<ttFont>
<head>
    <!-- Most of this table will be recalculated by the compiler -->
    <tableVersion value="1.0"/>
    <fontRevision value="1.301"/>
    <checkSumAdjustment value="0x602ce910"/>
    <magicNumber value="0x5f0f3cf5"/>
    <flags value="00000000 00001011"/>
    <unitsPerEm value="1000"/>
    <created value="Tue Oct  2 22:59:00 2007"/>
    <modified value="Thu Mar  6 18:36:16 2014"/>
    <xMin value="-32"/>
    <yMin value="-229"/>
    <xMax value="644"/>
    <yMax value="968"/>
    <macStyle value="00000000 00000000"/>
    <lowestRecPPEM value="9"/>
    <fontDirectionHint value="2"/>
    <indexToLocFormat value="0"/>
    <glyphDataFormat value="0"/>
  </head>
    <TTGlyph name="A" xMin="23" yMin="0" xMax="350" yMax="740">
      <contour>
        <pt x="319" y="0" on="1"/>
        <pt x="271" y="225" on="1"/>
        <pt x="101" y="225" on="1"/>
        <pt x="53" y="0" on="1"/>
        <pt x="23" y="0" on="1"/>
        <pt x="181" y="740" on="1"/>
        <pt x="194" y="740" on="1"/>
        <pt x="350" y="0" on="1"/>
      </contour>
      <contour>
        <pt x="186" y="641" on="1"/>
        <pt x="107" y="253" on="1"/>
        <pt x="265" y="253" on="1"/>
      </contour>
    </TTGlyph>
    <TTGlyph name="AE" xMin="24" yMin="0" xMax="536" yMax="733">
      <contour>
        <pt x="311" y="0" on="1"/>
        <pt x="311" y="225" on="1"/>
        <pt x="145" y="225" on="1"/>
        <pt x="57" y="0" on="1"/>
        <pt x="24" y="0" on="1"/>
        <pt x="311" y="733" on="1"/>
        <pt x="536" y="733" on="1"/>
        <pt x="536" y="704" on="1"/>
        <pt x="342" y="704" on="1"/>
        <pt x="342" y="389" on="1"/>
        <pt x="523" y="389" on="1"/>
        <pt x="523" y="360" on="1"/>
        <pt x="342" y="360" on="1"/>
        <pt x="342" y="29" on="1"/>
        <pt x="536" y="29" on="1"/>
        <pt x="536" y="0" on="1"/>
      </contour>
      <contour>
        <pt x="311" y="649" on="1"/>
        <pt x="156" y="253" on="1"/>
        <pt x="311" y="253" on="1"/>
      </contour>
    </TTGlyph>
    <TTGlyph name="AEacute" xMin="24" yMin="0" xMax="536" yMax="877">
      <component glyphName="AE" x="0" y="0" flags="0x204"/>
      <component glyphName="acute" x="213" y="287" flags="0x4"/>
    </TTGlyph>
    <TTGlyph name="Aacute" xMin="23" yMin="0" xMax="350" yMax="887">
      <component glyphName="A" x="0" y="0" flags="0x204"/>
      <component glyphName="acute" x="31" y="297" flags="0x4"/>
    </TTGlyph>
    <TTGlyph name="Abreve" xMin="23" yMin="0" xMax="350" yMax="875">
      <component glyphName="A" x="0" y="0" flags="0x204"/>
      <component glyphName="breve" x="-11" y="297" flags="0x4"/>
    </TTGlyph>
    <TTGlyph name="Acircumflex" xMin="23" yMin="0" xMax="350" yMax="871">
      <component glyphName="A" x="0" y="0" flags="0x204"/>
      <component glyphName="circumflex" x="-13" y="297" flags="0x4"/>
    </TTGlyph>
    <TTGlyph name="Adieresis" xMin="23" yMin="0" xMax="350" yMax="837">
      <component glyphName="A" x="0" y="0" flags="0x204"/>
      <component glyphName="dieresis" x="-11" y="297" flags="0x4"/>
    </TTGlyph>
    <TTGlyph name="Agrave" xMin="23" yMin="0" xMax="350" yMax="887">
      <component glyphName="A" x="0" y="0" flags="0x204"/>
      <component glyphName="grave" x="-51" y="297" flags="0x4"/>
    </TTGlyph>
    <TTGlyph name="Amacron" xMin="23" yMin="0" xMax="350" yMax="822">
      <component glyphName="A" x="0" y="0" flags="0x204"/>
      <component glyphName="macron" x="-11" y="297" flags="0x4"/>
    </TTGlyph>
    <TTGlyph name="Aogonek" xMin="23" yMin="-189" xMax="360" yMax="740">
      <contour>
        <pt x="360" y="-168" on="1"/>
        <pt x="342" y="-189" on="0"/>
        <pt x="314" y="-189" on="1"/>
        <pt x="289" y="-189" on="0"/>
        <pt x="260" y="-154" on="0"/>
        <pt x="260" y="-125" on="1"/>
        <pt x="260" y="-100" on="0"/>
        <pt x="284" y="-37" on="0"/>
        <pt x="318" y="1" on="1"/>
        <pt x="271" y="225" on="1"/>
        <pt x="101" y="225" on="1"/>
        <pt x="53" y="0" on="1"/>
        <pt x="23" y="0" on="1"/>
        <pt x="181" y="740" on="1"/>
        <pt x="194" y="740" on="1"/>
        <pt x="350" y="0" on="1"/>
        <pt x="315" y="-37" on="0"/>
        <pt x="289" y="-96" on="0"/>
        <pt x="289" y="-123" on="1"/>
        <pt x="289" y="-141" on="0"/>
        <pt x="304" y="-162" on="0"/>
        <pt x="317" y="-162" on="1"/>
        <pt x="334" y="-162" on="0"/>
        <pt x="346" y="-148" on="1"/>
      </contour>
      <contour>
        <pt x="186" y="641" on="1"/>
        <pt x="107" y="253" on="1"/>
        <pt x="265" y="253" on="1"/>
      </contour>
    </TTGlyph>
    <TTGlyph name="Aring" xMin="23" yMin="0" xMax="350" yMax="829">
      <contour>
        <pt x="254" y="762" on="1"/>
        <pt x="254" y="739" on="0"/>
        <pt x="226" y="702" on="0"/>
        <pt x="203" y="697" on="1"/>
        <pt x="350" y="0" on="1"/>
        <pt x="319" y="0" on="1"/>
        <pt x="271" y="225" on="1"/>
        <pt x="101" y="225" on="1"/>
        <pt x="53" y="0" on="1"/>
        <pt x="23" y="0" on="1"/>
        <pt x="172" y="697" on="1"/>
        <pt x="149" y="702" on="0"/>
        <pt x="122" y="740" on="0"/>
        <pt x="122" y="762" on="1"/>
        <pt x="122" y="788" on="0"/>
        <pt x="158" y="829" on="0"/>
        <pt x="188" y="829" on="1"/>
        <pt x="218" y="829" on="0"/>
        <pt x="254" y="788" on="0"/>
      </contour>
      <contour>
        <pt x="186" y="641" on="1"/>
        <pt x="107" y="253" on="1"/>
        <pt x="265" y="253" on="1"/>
      </contour>
      <contour>
        <pt x="230" y="762" on="1"/>
        <pt x="230" y="779" on="0"/>
        <pt x="209" y="809" on="0"/>
        <pt x="188" y="809" on="1"/>
        <pt x="167" y="809" on="0"/>
        <pt x="146" y="779" on="0"/>
        <pt x="146" y="762" on="1"/>
        <pt x="146" y="745" on="0"/>
        <pt x="167" y="715" on="0"/>
        <pt x="188" y="715" on="1"/>
        <pt x="209" y="715" on="0"/>
        <pt x="230" y="745" on="0"/>
      </contour>
    </TTGlyph>
    <TTGlyph name="Aringacute" xMin="23" yMin="0" xMax="350" yMax="968">
      <component glyphName="acute" x="32" y="378" flags="0x4"/>
      <component glyphName="Aring" x="0" y="0" flags="0x4"/>
    </TTGlyph>
    <TTGlyph name="Atilde" xMin="23" yMin="0" xMax="350" yMax="841">
      <component glyphName="A" x="0" y="0" flags="0x204"/>
      <component glyphName="tilde" x="-10" y="297" flags="0x4"/>
    </TTGlyph>
    <TTGlyph name="B" xMin="57" yMin="-6" xMax="326" yMax="739">
      <contour>
        <pt x="326" y="196" on="1"/>
        <pt x="326" y="101" on="0"/>
        <pt x="221" y="-6" on="0"/>
        <pt x="127" y="-6" on="1"/>
        <pt x="108" y="-6" on="0"/>
        <pt x="70" y="-1" on="0"/>
        <pt x="57" y="2" on="1"/>
        <pt x="57" y="731" on="1"/>
        <pt x="73" y="735" on="0"/>
        <pt x="113" y="739" on="0"/>
        <pt x="131" y="739" on="1"/>
        <pt x="177" y="739" on="0"/>
        <pt x="247" y="710" on="0"/>
        <pt x="294" y="662" on="0"/>
        <pt x="317" y="598" on="0"/>
        <pt x="317" y="562" on="1"/>
        <pt x="317" y="523" on="0"/>
        <pt x="296" y="462" on="0"/>
        <pt x="261" y="417" on="0"/>
        <pt x="215" y="387" on="0"/>
        <pt x="191" y="380" on="1"/>
        <pt x="219" y="373" on="0"/>
        <pt x="268" y="343" on="0"/>
        <pt x="305" y="297" on="0"/>
        <pt x="326" y="235" on="0"/>
      </contour>
      <contour>
        <pt x="286" y="560" on="1"/>
        <pt x="286" y="629" on="0"/>
        <pt x="206" y="711" on="0"/>
        <pt x="128" y="711" on="1"/>
        <pt x="119" y="711" on="0"/>
        <pt x="97" y="709" on="0"/>
        <pt x="87" y="707" on="1"/>
        <pt x="87" y="394" on="1"/>
        <pt x="93" y="393" on="0"/>
        <pt x="117" y="393" on="0"/>
        <pt x="125" y="393" on="1"/>
        <pt x="160" y="393" on="0"/>
        <pt x="219" y="414" on="0"/>
        <pt x="262" y="456" on="0"/>
        <pt x="286" y="519" on="0"/>
      </contour>
      <contour>
        <pt x="295" y="195" on="1"/>
        <pt x="295" y="280" on="0"/>
        <pt x="199" y="366" on="0"/>
        <pt x="124" y="366" on="1"/>
        <pt x="118" y="366" on="0"/>
        <pt x="92" y="366" on="0"/>
        <pt x="87" y="365" on="1"/>
        <pt x="87" y="26" on="1"/>
        <pt x="98" y="24" on="0"/>
        <pt x="120" y="22" on="0"/>
        <pt x="129" y="22" on="1"/>
        <pt x="203" y="22" on="0"/>
        <pt x="295" y="107" on="0"/>
      </contour>
    </TTGlyph>
    <TTGlyph name="C" xMin="34" yMin="-8" xMax="312" yMax="741">
      <contour>
        <pt x="312" y="39" on="1"/>
        <pt x="295" y="22" on="0"/>
        <pt x="243" y="-8" on="0"/>
        <pt x="208" y="-8" on="1"/>
        <pt x="123" y="-8" on="0"/>
        <pt x="34" y="178" on="0"/>
        <pt x="34" y="364" on="1"/>
        <pt x="34" y="550" on="0"/>
        <pt x="128" y="741" on="0"/>
        <pt x="211" y="741" on="1"/>
        <pt x="245" y="741" on="0"/>
        <pt x="295" y="714" on="0"/>
        <pt x="312" y="697" on="1"/>
        <pt x="294" y="673" on="1"/>
        <pt x="277" y="689" on="0"/>
        <pt x="234" y="713" on="0"/>
        <pt x="210" y="713" on="1"/>
        <pt x="142" y="713" on="0"/>
        <pt x="65" y="529" on="0"/>
        <pt x="65" y="364" on="1"/>
        <pt x="65" y="198" on="0"/>
        <pt x="143" y="20" on="0"/>
        <pt x="210" y="20" on="1"/>
        <pt x="233" y="20" on="0"/>
        <pt x="274" y="42" on="0"/>
        <pt x="294" y="60" on="1"/>
        <pt x="312" y="39" on="1"/>
      </contour>
    </TTGlyph>
    <TTGlyph name="Cacute" xMin="34" yMin="-8" xMax="312" yMax="887">
      <component glyphName="C" x="0" y="0" flags="0x204"/>
      <component glyphName="acute" x="46" y="297" flags="0x4"/>
    </TTGlyph>
    <TTGlyph name="Ccaron" xMin="34" yMin="-8" xMax="312" yMax="871">
      <component glyphName="C" x="0" y="0" flags="0x204"/>
      <component glyphName="caron" x="1" y="297" flags="0x4"/>
    </TTGlyph>
    <TTGlyph name="Ccedilla" xMin="34" yMin="-168" xMax="312" yMax="741">
      <contour>
        <pt x="262" y="-110" on="1"/>
        <pt x="262" y="-133" on="0"/>
        <pt x="226" y="-168" on="0"/>
        <pt x="193" y="-168" on="1"/>
        <pt x="174" y="-168" on="0"/>
        <pt x="138" y="-156" on="0"/>
        <pt x="123" y="-146" on="1"/>
        <pt x="135" y="-122" on="1"/>
        <pt x="148" y="-130" on="0"/>
        <pt x="179" y="-143" on="0"/>
        <pt x="195" y="-143" on="1"/>
        <pt x="214" y="-143" on="0"/>
        <pt x="234" y="-125" on="0"/>
        <pt x="234" y="-112" on="1"/>
        <pt x="234" y="-94" on="0"/>
        <pt x="198" y="-68" on="0"/>
        <pt x="160" y="-63" on="1"/>
        <pt x="158" y="-59" on="1"/>
        <pt x="172" y="-3" on="1"/>
        <pt x="105" y="16" on="0"/>
        <pt x="34" y="199" on="0"/>
        <pt x="34" y="364" on="1"/>
        <pt x="34" y="550" on="0"/>
        <pt x="128" y="741" on="0"/>
        <pt x="211" y="741" on="1"/>
        <pt x="245" y="741" on="0"/>
        <pt x="295" y="714" on="0"/>
        <pt x="312" y="697" on="1"/>
        <pt x="294" y="673" on="1"/>
        <pt x="277" y="689" on="0"/>
        <pt x="234" y="713" on="0"/>
        <pt x="210" y="713" on="1"/>
        <pt x="142" y="713" on="0"/>
        <pt x="65" y="529" on="0"/>
        <pt x="65" y="364" on="1"/>
        <pt x="65" y="198" on="0"/>
        <pt x="143" y="20" on="0"/>
        <pt x="210" y="20" on="1"/>
        <pt x="233" y="20" on="0"/>
        <pt x="274" y="42" on="0"/>
        <pt x="294" y="60" on="1"/>
        <pt x="312" y="39" on="1"/>
        <pt x="295" y="22" on="0"/>
        <pt x="243" y="-8" on="0"/>
        <pt x="208" y="-8" on="1"/>
        <pt x="198" y="-8" on="1"/>
        <pt x="189" y="-43" on="1"/>
        <pt x="227" y="-53" on="0"/>
        <pt x="262" y="-89" on="0"/>
      </contour>
    </TTGlyph>
    <TTGlyph name="Cdotaccent" xMin="34" yMin="-8" xMax="312" yMax="837">
      <component glyphName="C" x="0" y="0" flags="0x204"/>
      <component glyphName="dotaccent" x="3" y="297" flags="0x4"/>
    </TTGlyph>
    <TTGlyph name="D" xMin="57" yMin="-6" xMax="356" yMax="739">
      <contour>
        <pt x="356" y="368" on="1"/>
        <pt x="356" y="283" on="0"/>
        <pt x="322" y="145" on="0"/>
        <pt x="261" y="47" on="0"/>
        <pt x="176" y="-6" on="0"/>
        <pt x="124" y="-6" on="1"/>
        <pt x="107" y="-6" on="0"/>
        <pt x="70" y="-1" on="0"/>
        <pt x="57" y="2" on="1"/>
        <pt x="57" y="733" on="1"/>
        <pt x="66" y="735" on="0"/>
        <pt x="103" y="739" on="0"/>
        <pt x="123" y="739" on="1"/>
        <pt x="178" y="739" on="0"/>
        <pt x="264" y="682" on="0"/>
        <pt x="324" y="583" on="0"/>
        <pt x="356" y="447" on="0"/>
      </contour>
      <contour>
        <pt x="325" y="367" on="1"/>
        <pt x="325" y="440" on="0"/>
        <pt x="296" y="566" on="0"/>
        <pt x="244" y="659" on="0"/>
        <pt x="170" y="711" on="0"/>
        <pt x="125" y="711" on="1"/>
        <pt x="101" y="711" on="0"/>
        <pt x="88" y="708" on="1"/>
        <pt x="88" y="25" on="1"/>
        <pt x="103" y="22" on="0"/>
        <pt x="125" y="22" on="1"/>
        <pt x="168" y="22" on="0"/>
        <pt x="242" y="69" on="0"/>
        <pt x="295" y="158" on="0"/>
        <pt x="325" y="286" on="0"/>
      </contour>
    </TTGlyph>
    <TTGlyph name="Dcaron" xMin="57" yMin="-6" xMax="356" yMax="861">
      <component glyphName="D" x="0" y="0" flags="0x204"/>
      <component glyphName="caron" x="-29" y="287" flags="0x4"/>
    </TTGlyph>
    <TTGlyph name="Dcroat" xMin="29" yMin="-8" xMax="364" yMax="740">
      <component glyphName="Eth" x="0" y="0" flags="0x204"/>
    </TTGlyph>
    <TTGlyph name="E" xMin="57" yMin="0" xMax="282" yMax="733">
      <contour>
        <pt x="57" y="0" on="1"/>
        <pt x="57" y="733" on="1"/>
        <pt x="282" y="733" on="1"/>
        <pt x="282" y="704" on="1"/>
        <pt x="88" y="704" on="1"/>
        <pt x="88" y="389" on="1"/>
        <pt x="269" y="389" on="1"/>
        <pt x="269" y="360" on="1"/>
        <pt x="88" y="360" on="1"/>
        <pt x="88" y="29" on="1"/>
        <pt x="282" y="29" on="1"/>
        <pt x="282" y="0" on="1"/>
      </contour>
    </TTGlyph>
    <TTGlyph name="Eacute" xMin="57" yMin="0" xMax="282" yMax="877">
      <component glyphName="E" x="0" y="0" flags="0x204"/>
      <component glyphName="acute" x="12" y="287" flags="0x4"/>
    </TTGlyph>
    <TTGlyph name="Ebreve" xMin="57" yMin="0" xMax="282" yMax="865">
      <component glyphName="E" x="0" y="0" flags="0x204"/>
      <component glyphName="breve" x="-30" y="287" flags="0x4"/>
    </TTGlyph>
    <TTGlyph name="Ecaron" xMin="57" yMin="0" xMax="282" yMax="861">
      <component glyphName="E" x="0" y="0" flags="0x204"/>
      <component glyphName="caron" x="-32" y="287" flags="0x4"/>
    </TTGlyph>
    <TTGlyph name="Ecircumflex" xMin="57" yMin="0" xMax="282" yMax="861">
      <component glyphName="E" x="0" y="0" flags="0x204"/>
      <component glyphName="circumflex" x="-32" y="287" flags="0x4"/>
    </TTGlyph>
    <TTGlyph name="Edieresis" xMin="57" yMin="0" xMax="282" yMax="827">
      <component glyphName="E" x="0" y="0" flags="0x204"/>
      <component glyphName="dieresis" x="-30" y="287" flags="0x4"/>
    </TTGlyph>
    <TTGlyph name="Edotaccent" xMin="57" yMin="0" xMax="282" yMax="827">
      <component glyphName="E" x="0" y="0" flags="0x204"/>
      <component glyphName="dotaccent" x="-30" y="287" flags="0x4"/>
    </TTGlyph>
    <TTGlyph name="Egrave" xMin="57" yMin="0" xMax="282" yMax="877">
      <component glyphName="E" x="0" y="0" flags="0x204"/>
      <component glyphName="grave" x="-70" y="287" flags="0x4"/>
    </TTGlyph>
    <TTGlyph name="Emacron" xMin="57" yMin="0" xMax="282" yMax="812">
      <component glyphName="E" x="0" y="0" flags="0x204"/>
      <component glyphName="macron" x="-30" y="287" flags="0x4"/>
    </TTGlyph>
    <TTGlyph name="Eogonek" xMin="57" yMin="-189" xMax="292" yMax="733">
      <contour>
        <pt x="292" y="-168" on="1"/>
        <pt x="274" y="-189" on="0"/>
        <pt x="246" y="-189" on="1"/>
        <pt x="221" y="-189" on="0"/>
        <pt x="192" y="-154" on="0"/>
        <pt x="192" y="-125" on="1"/>
        <pt x="192" y="-101" on="0"/>
        <pt x="216" y="-38" on="0"/>
        <pt x="249" y="0" on="1"/>
        <pt x="57" y="0" on="1"/>
        <pt x="57" y="733" on="1"/>
        <pt x="282" y="733" on="1"/>
        <pt x="282" y="704" on="1"/>
        <pt x="88" y="704" on="1"/>
        <pt x="88" y="389" on="1"/>
        <pt x="269" y="389" on="1"/>
        <pt x="269" y="360" on="1"/>
        <pt x="88" y="360" on="1"/>
        <pt x="88" y="29" on="1"/>
        <pt x="282" y="29" on="1"/>
        <pt x="282" y="0" on="1"/>
        <pt x="247" y="-37" on="0"/>
        <pt x="221" y="-96" on="0"/>
        <pt x="221" y="-123" on="1"/>
        <pt x="221" y="-141" on="0"/>
        <pt x="236" y="-162" on="0"/>
        <pt x="249" y="-162" on="1"/>
        <pt x="266" y="-162" on="0"/>
        <pt x="278" y="-148" on="1"/>
        <pt x="292" y="-168" on="1"/>
      </contour>
    </TTGlyph>
    <TTGlyph name="Eth" xMin="29" yMin="-8" xMax="364" yMax="740">
      <contour>
        <pt x="364" y="368" on="1"/>
        <pt x="364" y="282" on="0"/>
        <pt x="330" y="144" on="0"/>
        <pt x="269" y="45" on="0"/>
        <pt x="184" y="-8" on="0"/>
        <pt x="132" y="-8" on="1"/>
        <pt x="115" y="-8" on="0"/>
        <pt x="78" y="-3" on="0"/>
        <pt x="65" y="0" on="1"/>
        <pt x="65" y="357" on="1"/>
        <pt x="29" y="357" on="1"/>
        <pt x="29" y="387" on="1"/>
        <pt x="65" y="387" on="1"/>
        <pt x="65" y="734" on="1"/>
        <pt x="74" y="736" on="0"/>
        <pt x="111" y="740" on="0"/>
        <pt x="131" y="740" on="1"/>
        <pt x="186" y="740" on="0"/>
        <pt x="272" y="683" on="0"/>
        <pt x="332" y="584" on="0"/>
        <pt x="364" y="447" on="0"/>
      </contour>
      <contour>
        <pt x="333" y="367" on="1"/>
        <pt x="333" y="441" on="0"/>
        <pt x="304" y="567" on="0"/>
        <pt x="252" y="660" on="0"/>
        <pt x="178" y="712" on="0"/>
        <pt x="133" y="712" on="1"/>
        <pt x="109" y="712" on="0"/>
        <pt x="96" y="709" on="1"/>
        <pt x="96" y="387" on="1"/>
        <pt x="200" y="387" on="1"/>
        <pt x="200" y="357" on="1"/>
        <pt x="96" y="357" on="1"/>
        <pt x="96" y="23" on="1"/>
        <pt x="111" y="20" on="0"/>
        <pt x="133" y="20" on="1"/>
        <pt x="176" y="20" on="0"/>
        <pt x="250" y="67" on="0"/>
        <pt x="303" y="157" on="0"/>
        <pt x="333" y="286" on="0"/>
      </contour>
    </TTGlyph>
    <TTGlyph name="Euro" xMin="20" yMin="-8" xMax="330" yMax="729">
      <contour>
        <pt x="20" y="422" on="1"/>
        <pt x="20" y="447" on="1"/>
        <pt x="70" y="447" on="1"/>
        <pt x="80" y="587" on="0"/>
        <pt x="164" y="729" on="0"/>
        <pt x="233" y="729" on="1"/>
        <pt x="265" y="729" on="0"/>
        <pt x="314" y="702" on="0"/>
        <pt x="330" y="685" on="1"/>
        <pt x="312" y="661" on="1"/>
        <pt x="296" y="677" on="0"/>
        <pt x="255" y="701" on="0"/>
        <pt x="232" y="701" on="1"/>
        <pt x="176" y="701" on="0"/>
        <pt x="109" y="570" on="0"/>
        <pt x="101" y="447" on="1"/>
        <pt x="284" y="447" on="1"/>
        <pt x="284" y="422" on="1"/>
        <pt x="99" y="422" on="1"/>
        <pt x="98" y="407" on="0"/>
        <pt x="98" y="375" on="0"/>
        <pt x="98" y="358" on="1"/>
        <pt x="98" y="338" on="0"/>
        <pt x="99" y="304" on="0"/>
        <pt x="100" y="287" on="1"/>
        <pt x="284" y="287" on="1"/>
        <pt x="284" y="262" on="1"/>
        <pt x="101" y="262" on="1"/>
        <pt x="111" y="143" on="0"/>
        <pt x="179" y="20" on="0"/>
        <pt x="233" y="20" on="1"/>
        <pt x="255" y="20" on="0"/>
        <pt x="293" y="42" on="0"/>
        <pt x="312" y="60" on="1"/>
        <pt x="330" y="39" on="1"/>
        <pt x="313" y="22" on="0"/>
        <pt x="264" y="-8" on="0"/>
        <pt x="231" y="-8" on="1"/>
        <pt x="91" y="-8" on="0"/>
        <pt x="70" y="262" on="1"/>
        <pt x="20" y="262" on="1"/>
        <pt x="20" y="287" on="1"/>
        <pt x="68" y="287" on="1"/>
        <pt x="67" y="304" on="0"/>
        <pt x="67" y="338" on="0"/>
        <pt x="67" y="358" on="1"/>
        <pt x="67" y="375" on="0"/>
        <pt x="67" y="407" on="0"/>
        <pt x="68" y="422" on="1"/>
      </contour>
    </TTGlyph>
    <TTGlyph name="Euro.lin" xMin="20" yMin="-8" xMax="330" yMax="729">
      <contour>
        <pt x="20" y="422" on="1"/>
        <pt x="20" y="447" on="1"/>
        <pt x="70" y="447" on="1"/>
        <pt x="80" y="587" on="0"/>
        <pt x="164" y="729" on="0"/>
        <pt x="233" y="729" on="1"/>
        <pt x="265" y="729" on="0"/>
        <pt x="314" y="702" on="0"/>
        <pt x="330" y="685" on="1"/>
        <pt x="312" y="661" on="1"/>
        <pt x="296" y="677" on="0"/>
        <pt x="255" y="701" on="0"/>
        <pt x="232" y="701" on="1"/>
        <pt x="176" y="701" on="0"/>
        <pt x="109" y="570" on="0"/>
        <pt x="101" y="447" on="1"/>
        <pt x="284" y="447" on="1"/>
        <pt x="284" y="422" on="1"/>
        <pt x="99" y="422" on="1"/>
        <pt x="98" y="407" on="0"/>
        <pt x="98" y="375" on="0"/>
        <pt x="98" y="358" on="1"/>
        <pt x="98" y="338" on="0"/>
        <pt x="99" y="304" on="0"/>
        <pt x="100" y="287" on="1"/>
        <pt x="284" y="287" on="1"/>
        <pt x="284" y="262" on="1"/>
        <pt x="101" y="262" on="1"/>
        <pt x="111" y="143" on="0"/>
        <pt x="179" y="20" on="0"/>
        <pt x="233" y="20" on="1"/>
        <pt x="255" y="20" on="0"/>
        <pt x="293" y="42" on="0"/>
        <pt x="312" y="60" on="1"/>
        <pt x="330" y="39" on="1"/>
        <pt x="313" y="22" on="0"/>
        <pt x="264" y="-8" on="0"/>
        <pt x="231" y="-8" on="1"/>
        <pt x="91" y="-8" on="0"/>
        <pt x="70" y="262" on="1"/>
        <pt x="20" y="262" on="1"/>
        <pt x="20" y="287" on="1"/>
        <pt x="68" y="287" on="1"/>
        <pt x="67" y="304" on="0"/>
        <pt x="67" y="338" on="0"/>
        <pt x="67" y="358" on="1"/>
        <pt x="67" y="375" on="0"/>
        <pt x="67" y="407" on="0"/>
        <pt x="68" y="422" on="1"/>
      </contour>
    </TTGlyph>
    <TTGlyph name="F" xMin="57" yMin="0" xMax="283" yMax="733">
      <contour>
        <pt x="88" y="704" on="1"/>
        <pt x="88" y="393" on="1"/>
        <pt x="265" y="393" on="1"/>
        <pt x="265" y="364" on="1"/>
        <pt x="88" y="364" on="1"/>
        <pt x="88" y="0" on="1"/>
        <pt x="57" y="0" on="1"/>
        <pt x="57" y="733" on="1"/>
        <pt x="283" y="733" on="1"/>
        <pt x="283" y="704" on="1"/>
      </contour>
    </TTGlyph>
    <TTGlyph name="G" xMin="34" yMin="-7" xMax="327" yMax="741">
      <contour>
        <pt x="327" y="372" on="1"/>
        <pt x="327" y="35" on="1"/>
        <pt x="307" y="15" on="0"/>
        <pt x="251" y="-7" on="0"/>
        <pt x="219" y="-7" on="1"/>
        <pt x="131" y="-7" on="0"/>
        <pt x="34" y="176" on="0"/>
        <pt x="34" y="365" on="1"/>
        <pt x="34" y="551" on="0"/>
        <pt x="131" y="741" on="0"/>
        <pt x="221" y="741" on="1"/>
        <pt x="256" y="741" on="0"/>
        <pt x="307" y="713" on="0"/>
        <pt x="326" y="695" on="1"/>
        <pt x="308" y="671" on="1"/>
        <pt x="289" y="689" on="0"/>
        <pt x="246" y="713" on="0"/>
        <pt x="219" y="713" on="1"/>
        <pt x="146" y="713" on="0"/>
        <pt x="65" y="530" on="0"/>
        <pt x="65" y="365" on="1"/>
        <pt x="65" y="195" on="0"/>
        <pt x="145" y="20" on="0"/>
        <pt x="220" y="20" on="1"/>
        <pt x="241" y="20" on="0"/>
        <pt x="283" y="33" on="0"/>
        <pt x="297" y="47" on="1"/>
        <pt x="297" y="343" on="1"/>
        <pt x="192" y="343" on="1"/>
        <pt x="192" y="372" on="1"/>
      </contour>
    </TTGlyph>
    <TTGlyph name="G.alt" xMin="34" yMin="-7" xMax="344" yMax="742">
      <contour>
        <pt x="344" y="372" on="1"/>
        <pt x="344" y="293" on="0"/>
        <pt x="330" y="155" on="0"/>
        <pt x="296" y="52" on="0"/>
        <pt x="238" y="-7" on="0"/>
        <pt x="194" y="-7" on="1"/>
        <pt x="114" y="-7" on="0"/>
        <pt x="34" y="182" on="0"/>
        <pt x="34" y="365" on="1"/>
        <pt x="34" y="454" on="0"/>
        <pt x="57" y="594" on="0"/>
        <pt x="102" y="691" on="0"/>
        <pt x="166" y="742" on="0"/>
        <pt x="208" y="742" on="1"/>
        <pt x="243" y="742" on="0"/>
        <pt x="301" y="704" on="0"/>
        <pt x="320" y="671" on="1"/>
        <pt x="296" y="653" on="1"/>
        <pt x="282" y="678" on="0"/>
        <pt x="240" y="714" on="0"/>
        <pt x="208" y="714" on="1"/>
        <pt x="174" y="714" on="0"/>
        <pt x="121" y="664" on="0"/>
        <pt x="84" y="573" on="0"/>
        <pt x="65" y="444" on="0"/>
        <pt x="65" y="365" on="1"/>
        <pt x="65" y="203" on="0"/>
        <pt x="128" y="20" on="0"/>
        <pt x="195" y="20" on="1"/>
        <pt x="227" y="20" on="0"/>
        <pt x="272" y="67" on="0"/>
        <pt x="300" y="153" on="0"/>
        <pt x="314" y="272" on="0"/>
        <pt x="314" y="343" on="1"/>
        <pt x="192" y="343" on="1"/>
        <pt x="192" y="372" on="1"/>
      </contour>
    </TTGlyph>
    <TTGlyph name="Gbreve" xMin="34" yMin="-7" xMax="327" yMax="875">
      <component glyphName="G" x="0" y="0" flags="0x204"/>
      <component glyphName="breve" x="10" y="297" flags="0x4"/>
    </TTGlyph>
    <TTGlyph name="Gbreve.alt" xMin="34" yMin="-7" xMax="344" yMax="875">
      <component glyphName="G.alt" x="0" y="0" flags="0x204"/>
      <component glyphName="breve" x="5" y="297" flags="0x4"/>
    </TTGlyph>
    <TTGlyph name="Gcommaaccent" xMin="34" yMin="-197" xMax="327" yMax="741">
      <component glyphName="G" x="0" y="0" flags="0x204"/>
      <component glyphName="commaaccent" x="169" y="0" flags="0x4"/>
    </TTGlyph>
    <TTGlyph name="Gcommaaccent.alt" xMin="34" yMin="-197" xMax="344" yMax="742">
      <component glyphName="G.alt" x="0" y="0" flags="0x4"/>
      <component glyphName="commaaccent" x="149" y="0" flags="0x4"/>
    </TTGlyph>
    <TTGlyph name="Gdotaccent" xMin="34" yMin="-7" xMax="327" yMax="837">
      <component glyphName="G" x="0" y="0" flags="0x204"/>
      <component glyphName="dotaccent" x="10" y="297" flags="0x4"/>
    </TTGlyph>
    <TTGlyph name="Gdotaccent.alt" xMin="34" yMin="-7" xMax="344" yMax="837">
      <component glyphName="G.alt" x="0" y="0" flags="0x4"/>
      <component glyphName="dotaccent" x="5" y="297" flags="0x4"/>
    </TTGlyph>
    <TTGlyph name="H" xMin="57" yMin="0" xMax="336" yMax="733">
      <contour>
        <pt x="305" y="0" on="1"/>
        <pt x="305" y="360" on="1"/>
        <pt x="88" y="360" on="1"/>
        <pt x="88" y="0" on="1"/>
        <pt x="57" y="0" on="1"/>
        <pt x="57" y="733" on="1"/>
        <pt x="88" y="733" on="1"/>
        <pt x="88" y="389" on="1"/>
        <pt x="305" y="389" on="1"/>
        <pt x="305" y="733" on="1"/>
        <pt x="336" y="733" on="1"/>
        <pt x="336" y="0" on="1"/>
      </contour>
    </TTGlyph>
    <TTGlyph name="Hbar" xMin="7" yMin="0" xMax="386" yMax="733">
      <contour>
        <pt x="305" y="0" on="1"/>
        <pt x="305" y="360" on="1"/>
        <pt x="88" y="360" on="1"/>
        <pt x="88" y="0" on="1"/>
        <pt x="57" y="0" on="1"/>
        <pt x="57" y="564" on="1"/>
        <pt x="7" y="564" on="1"/>
        <pt x="7" y="592" on="1"/>
        <pt x="57" y="592" on="1"/>
        <pt x="57" y="733" on="1"/>
        <pt x="88" y="733" on="1"/>
        <pt x="88" y="592" on="1"/>
        <pt x="305" y="592" on="1"/>
        <pt x="305" y="733" on="1"/>
        <pt x="336" y="733" on="1"/>
        <pt x="336" y="592" on="1"/>
        <pt x="386" y="592" on="1"/>
        <pt x="386" y="564" on="1"/>
        <pt x="336" y="564" on="1"/>
        <pt x="336" y="0" on="1"/>
      </contour>
      <contour>
        <pt x="305" y="389" on="1"/>
        <pt x="305" y="564" on="1"/>
        <pt x="88" y="564" on="1"/>
        <pt x="88" y="389" on="1"/>
      </contour>
    </TTGlyph>
    <TTGlyph name="I" xMin="60" yMin="0" xMax="91" yMax="733">
      <contour>
        <pt x="60" y="0" on="1"/>
        <pt x="60" y="733" on="1"/>
        <pt x="91" y="733" on="1"/>
        <pt x="91" y="0" on="1"/>
      </contour>
    </TTGlyph>
    <TTGlyph name="Iacute" xMin="50" yMin="0" xMax="174" yMax="877">
      <component glyphName="I" x="0" y="0" flags="0x204"/>
      <component glyphName="acute" x="-81" y="287" flags="0x4"/>
    </TTGlyph>
    <TTGlyph name="Ibreve" xMin="-7" yMin="0" xMax="159" yMax="865">
      <component glyphName="I" x="0" y="0" flags="0x204"/>
      <component glyphName="breve" x="-124" y="287" flags="0x4"/>
    </TTGlyph>
    <TTGlyph name="Icircumflex" xMin="-11" yMin="0" xMax="161" yMax="861">
      <component glyphName="I" x="0" y="0" flags="0x204"/>
      <component glyphName="circumflex" x="-126" y="287" flags="0x4"/>
    </TTGlyph>
    <TTGlyph name="Idieresis" xMin="1" yMin="0" xMax="151" yMax="827">
      <component glyphName="I" x="0" y="0" flags="0x204"/>
      <component glyphName="dieresis" x="-124" y="287" flags="0x4"/>
    </TTGlyph>
    <TTGlyph name="Idotaccent" xMin="51" yMin="0" xMax="101" yMax="827">
      <component glyphName="I" x="0" y="0" flags="0x204"/>
      <component glyphName="dotaccent" x="-124" y="287" flags="0x4"/>
    </TTGlyph>
    <TTGlyph name="Igrave" xMin="-22" yMin="0" xMax="102" yMax="877">
      <component glyphName="I" x="0" y="0" flags="0x204"/>
      <component glyphName="grave" x="-164" y="287" flags="0x4"/>
    </TTGlyph>
    <TTGlyph name="Imacron" xMin="-15" yMin="0" xMax="167" yMax="812">
      <component glyphName="I" x="0" y="0" flags="0x204"/>
      <component glyphName="macron" x="-124" y="287" flags="0x4"/>
    </TTGlyph>
    <TTGlyph name="Iogonek" xMin="15" yMin="-188" xMax="113" yMax="733">
      <contour>
        <pt x="113" y="-167" on="1"/>
        <pt x="95" y="-188" on="0"/>
        <pt x="68" y="-188" on="1"/>
        <pt x="43" y="-188" on="0"/>
        <pt x="15" y="-152" on="0"/>
        <pt x="15" y="-121" on="1"/>
        <pt x="15" y="-97" on="0"/>
        <pt x="33" y="-39" on="0"/>
        <pt x="60" y="1" on="1"/>
        <pt x="60" y="733" on="1"/>
        <pt x="91" y="733" on="1"/>
        <pt x="91" y="0" on="1"/>
        <pt x="61" y="-42" on="0"/>
        <pt x="42" y="-95" on="0"/>
        <pt x="42" y="-120" on="1"/>
        <pt x="42" y="-163" on="0"/>
        <pt x="70" y="-163" on="1"/>
        <pt x="88" y="-163" on="0"/>
        <pt x="101" y="-149" on="1"/>
        <pt x="113" y="-167" on="1"/>
      </contour>
    </TTGlyph>
    <TTGlyph name="J" xMin="5" yMin="-11" xMax="212" yMax="733">
      <contour>
        <pt x="212" y="122" on="1"/>
        <pt x="212" y="58" on="0"/>
        <pt x="153" y="-11" on="0"/>
        <pt x="102" y="-11" on="1"/>
        <pt x="73" y="-11" on="0"/>
        <pt x="25" y="13" on="0"/>
        <pt x="5" y="32" on="1"/>
        <pt x="23" y="54" on="1"/>
        <pt x="64" y="16" on="0"/>
        <pt x="104" y="16" on="1"/>
        <pt x="139" y="16" on="0"/>
        <pt x="181" y="69" on="0"/>
        <pt x="181" y="123" on="1"/>
        <pt x="181" y="733" on="1"/>
        <pt x="212" y="733" on="1"/>
      </contour>
    </TTGlyph>
    <TTGlyph name="K" xMin="57" yMin="0" xMax="316" yMax="733">
      <contour>
        <pt x="280" y="0" on="1"/>
        <pt x="88" y="361" on="1"/>
        <pt x="88" y="0" on="1"/>
        <pt x="57" y="0" on="1"/>
        <pt x="57" y="733" on="1"/>
        <pt x="88" y="733" on="1"/>
        <pt x="88" y="386" on="1"/>
        <pt x="275" y="733" on="1"/>
        <pt x="311" y="733" on="1"/>
        <pt x="115" y="375" on="1"/>
        <pt x="316" y="0" on="1"/>
      </contour>
    </TTGlyph>
    <TTGlyph name="Kcommaaccent" xMin="57" yMin="-187" xMax="316" yMax="733">
      <component glyphName="K" x="0" y="0" flags="0x204"/>
      <component glyphName="commaaccent" x="135" y="10" flags="0x4"/>
    </TTGlyph>
    <TTGlyph name="L" xMin="57" yMin="0" xMax="283" yMax="733">
      <contour>
        <pt x="57" y="0" on="1"/>
        <pt x="57" y="733" on="1"/>
        <pt x="88" y="733" on="1"/>
        <pt x="88" y="28" on="1"/>
        <pt x="283" y="28" on="1"/>
        <pt x="283" y="0" on="1"/>
      </contour>
    </TTGlyph>
    <TTGlyph name="Lacute" xMin="57" yMin="0" xMax="283" yMax="877">
      <component glyphName="L" x="0" y="0" flags="0x204"/>
      <component glyphName="acute" x="-66" y="287" flags="0x4"/>
    </TTGlyph>
    <TTGlyph name="Lcaron" xMin="57" yMin="0" xMax="283" yMax="734">
      <component glyphName="L" x="0" y="0" flags="0x204"/>
      <component glyphName="caron.alt" x="69" y="-2" flags="0x4"/>
    </TTGlyph>
    <TTGlyph name="Lcommaaccent" xMin="57" yMin="-197" xMax="283" yMax="733">
      <component glyphName="L" x="0" y="0" flags="0x204"/>
      <component glyphName="commaaccent" x="129" y="0" flags="0x4"/>
    </TTGlyph>
    <TTGlyph name="Ldot" xMin="57" yMin="0" xMax="283" yMax="733">
      <component glyphName="L" x="0" y="0" flags="0x204"/>
      <component glyphName="dotaccent" x="17" y="-147" flags="0x4"/>
    </TTGlyph>
    <TTGlyph name="Lslash" xMin="9" yMin="0" xMax="294" yMax="733">
      <contour>
        <pt x="68" y="0" on="1"/>
        <pt x="68" y="344" on="1"/>
        <pt x="9" y="318" on="1"/>
        <pt x="9" y="349" on="1"/>
        <pt x="68" y="375" on="1"/>
        <pt x="68" y="733" on="1"/>
        <pt x="99" y="733" on="1"/>
        <pt x="99" y="389" on="1"/>
        <pt x="197" y="434" on="1"/>
        <pt x="197" y="403" on="1"/>
        <pt x="99" y="358" on="1"/>
        <pt x="99" y="28" on="1"/>
        <pt x="294" y="28" on="1"/>
        <pt x="294" y="0" on="1"/>
      </contour>
    </TTGlyph>
    <TTGlyph name="M" xMin="54" yMin="0" xMax="420" yMax="736">
      <contour>
        <pt x="390" y="0" on="1"/>
        <pt x="384" y="614" on="1"/>
        <pt x="241" y="178" on="1"/>
        <pt x="233" y="178" on="1"/>
        <pt x="88" y="613" on="1"/>
        <pt x="84" y="0" on="1"/>
        <pt x="54" y="0" on="1"/>
        <pt x="64" y="734" on="1"/>
        <pt x="77" y="736" on="1"/>
        <pt x="237" y="251" on="1"/>
        <pt x="397" y="736" on="1"/>
        <pt x="410" y="734" on="1"/>
        <pt x="420" y="0" on="1"/>
      </contour>
    </TTGlyph>
    <TTGlyph name="M.alt" xMin="54" yMin="0" xMax="420" yMax="736">
      <contour>
        <pt x="390" y="0" on="1"/>
        <pt x="384" y="614" on="1"/>
        <pt x="241" y="178" on="1"/>
        <pt x="233" y="178" on="1"/>
        <pt x="88" y="613" on="1"/>
        <pt x="84" y="0" on="1"/>
        <pt x="54" y="0" on="1"/>
        <pt x="64" y="734" on="1"/>
        <pt x="77" y="736" on="1"/>
        <pt x="237" y="251" on="1"/>
        <pt x="397" y="736" on="1"/>
        <pt x="410" y="734" on="1"/>
        <pt x="420" y="0" on="1"/>
      </contour>
    </TTGlyph>
    <TTGlyph name="N" xMin="57" yMin="-2" xMax="339" yMax="735">
      <contour>
        <pt x="326" y="-2" on="1"/>
        <pt x="85" y="620" on="1"/>
        <pt x="86" y="0" on="1"/>
        <pt x="57" y="0" on="1"/>
        <pt x="57" y="733" on="1"/>
        <pt x="70" y="735" on="1"/>
        <pt x="311" y="111" on="1"/>
        <pt x="310" y="733" on="1"/>
        <pt x="339" y="733" on="1"/>
        <pt x="339" y="0" on="1"/>
      </contour>
    </TTGlyph>
    <TTGlyph name="Nacute" xMin="57" yMin="-2" xMax="339" yMax="877">
      <component glyphName="N" x="0" y="0" flags="0x204"/>
      <component glyphName="acute" x="41" y="287" flags="0x4"/>
    </TTGlyph>
    <TTGlyph name="Ncaron" xMin="57" yMin="-2" xMax="339" yMax="861">
      <component glyphName="N" x="0" y="0" flags="0x204"/>
      <component glyphName="caron" x="-3" y="287" flags="0x4"/>
    </TTGlyph>
    <TTGlyph name="Ncommaaccent" xMin="57" yMin="-187" xMax="339" yMax="735">
      <component glyphName="N" x="0" y="0" flags="0x204"/>
      <component glyphName="commaaccent" x="157" y="10" flags="0x4"/>
    </TTGlyph>
    <TTGlyph name="Ntilde" xMin="57" yMin="-2" xMax="339" yMax="831">
      <component glyphName="N" x="0" y="0" flags="0x204"/>
      <component glyphName="tilde" x="0" y="287" flags="0x4"/>
    </TTGlyph>
    <TTGlyph name="O" xMin="34" yMin="-8" xMax="365" yMax="741">
      <contour>
        <pt x="365" y="367" on="1"/>
        <pt x="365" y="287" on="0"/>
        <pt x="343" y="150" on="0"/>
        <pt x="301" y="49" on="0"/>
        <pt x="240" y="-8" on="0"/>
        <pt x="201" y="-8" on="1"/>
        <pt x="161" y="-8" on="0"/>
        <pt x="99" y="49" on="0"/>
        <pt x="56" y="150" on="0"/>
        <pt x="34" y="287" on="0"/>
        <pt x="34" y="367" on="1"/>
        <pt x="34" y="447" on="0"/>
        <pt x="57" y="584" on="0"/>
        <pt x="100" y="684" on="0"/>
        <pt x="162" y="741" on="0"/>
        <pt x="201" y="741" on="1"/>
        <pt x="241" y="741" on="0"/>
        <pt x="302" y="684" on="0"/>
        <pt x="344" y="584" on="0"/>
        <pt x="365" y="447" on="0"/>
      </contour>
      <contour>
        <pt x="334" y="367" on="1"/>
        <pt x="334" y="443" on="0"/>
        <pt x="314" y="571" on="0"/>
        <pt x="279" y="662" on="0"/>
        <pt x="230" y="713" on="0"/>
        <pt x="201" y="713" on="1"/>
        <pt x="172" y="713" on="0"/>
        <pt x="122" y="662" on="0"/>
        <pt x="86" y="571" on="0"/>
        <pt x="65" y="443" on="0"/>
        <pt x="65" y="367" on="1"/>
        <pt x="65" y="290" on="0"/>
        <pt x="86" y="163" on="0"/>
        <pt x="122" y="71" on="0"/>
        <pt x="172" y="20" on="0"/>
        <pt x="201" y="20" on="1"/>
        <pt x="230" y="20" on="0"/>
        <pt x="279" y="71" on="0"/>
        <pt x="314" y="163" on="0"/>
        <pt x="334" y="290" on="0"/>
      </contour>
    </TTGlyph>
    <TTGlyph name="OE" xMin="32" yMin="-5" xMax="525" yMax="738">
      <contour>
        <pt x="322" y="0" on="1"/>
        <pt x="309" y="-2" on="0"/>
        <pt x="281" y="-5" on="0"/>
        <pt x="264" y="-5" on="1"/>
        <pt x="213" y="-5" on="0"/>
        <pt x="127" y="48" on="0"/>
        <pt x="66" y="146" on="0"/>
        <pt x="32" y="284" on="0"/>
        <pt x="32" y="368" on="1"/>
        <pt x="32" y="446" on="0"/>
        <pt x="64" y="582" on="0"/>
        <pt x="125" y="681" on="0"/>
        <pt x="211" y="738" on="0"/>
        <pt x="265" y="738" on="1"/>
        <pt x="282" y="738" on="0"/>
        <pt x="320" y="735" on="0"/>
        <pt x="331" y="733" on="1"/>
        <pt x="525" y="733" on="1"/>
        <pt x="525" y="704" on="1"/>
        <pt x="331" y="704" on="1"/>
        <pt x="331" y="389" on="1"/>
        <pt x="512" y="389" on="1"/>
        <pt x="512" y="360" on="1"/>
        <pt x="331" y="360" on="1"/>
        <pt x="331" y="29" on="1"/>
        <pt x="525" y="29" on="1"/>
        <pt x="525" y="0" on="1"/>
      </contour>
      <contour>
        <pt x="300" y="708" on="1"/>
        <pt x="286" y="711" on="0"/>
        <pt x="263" y="711" on="1"/>
        <pt x="218" y="711" on="0"/>
        <pt x="144" y="659" on="0"/>
        <pt x="92" y="566" on="0"/>
        <pt x="63" y="440" on="0"/>
        <pt x="63" y="367" on="1"/>
        <pt x="63" y="286" on="0"/>
        <pt x="93" y="158" on="0"/>
        <pt x="146" y="69" on="0"/>
        <pt x="219" y="22" on="0"/>
        <pt x="263" y="22" on="1"/>
        <pt x="285" y="22" on="0"/>
        <pt x="300" y="25" on="1"/>
      </contour>
    </TTGlyph>
    <TTGlyph name="Oacute" xMin="34" yMin="-8" xMax="365" yMax="887">
      <component glyphName="O" x="0" y="0" flags="0x204"/>
      <component glyphName="acute" x="44" y="297" flags="0x4"/>
    </TTGlyph>
    <TTGlyph name="Obreve" xMin="34" yMin="-8" xMax="365" yMax="875">
      <component glyphName="O" x="0" y="0" flags="0x204"/>
      <component glyphName="breve" x="1" y="297" flags="0x4"/>
    </TTGlyph>
    <TTGlyph name="Ocircumflex" xMin="34" yMin="-8" xMax="365" yMax="871">
      <component glyphName="O" x="0" y="0" flags="0x204"/>
      <component glyphName="circumflex" x="0" y="297" flags="0x4"/>
    </TTGlyph>
    <TTGlyph name="Odieresis" xMin="34" yMin="-8" xMax="365" yMax="837">
      <component glyphName="O" x="0" y="0" flags="0x204"/>
      <component glyphName="dieresis" x="1" y="297" flags="0x4"/>
    </TTGlyph>
    <TTGlyph name="Ograve" xMin="34" yMin="-8" xMax="365" yMax="887">
      <component glyphName="O" x="0" y="0" flags="0x204"/>
      <component glyphName="grave" x="-38" y="297" flags="0x4"/>
    </TTGlyph>
    <TTGlyph name="Ohungarumlaut" xMin="34" yMin="-8" xMax="365" yMax="930">
      <component glyphName="O" x="0" y="0" flags="0x204"/>
      <component glyphName="hungarumlaut" x="33" y="297" flags="0x4"/>
    </TTGlyph>
    <TTGlyph name="Omacron" xMin="34" yMin="-8" xMax="365" yMax="822">
      <component glyphName="O" x="0" y="0" flags="0x204"/>
      <component glyphName="macron" x="1" y="297" flags="0x4"/>
    </TTGlyph>
    <TTGlyph name="Oslash" xMin="2" yMin="-8" xMax="397" yMax="745">
      <contour>
        <pt x="365" y="367" on="1"/>
        <pt x="365" y="287" on="0"/>
        <pt x="343" y="150" on="0"/>
        <pt x="301" y="49" on="0"/>
        <pt x="240" y="-8" on="0"/>
        <pt x="201" y="-8" on="1"/>
        <pt x="161" y="-8" on="0"/>
        <pt x="100" y="48" on="0"/>
        <pt x="79" y="97" on="1"/>
        <pt x="26" y="-8" on="1"/>
        <pt x="2" y="5" on="1"/>
        <pt x="66" y="132" on="1"/>
        <pt x="34" y="228" on="0"/>
        <pt x="34" y="367" on="1"/>
        <pt x="34" y="447" on="0"/>
        <pt x="57" y="584" on="0"/>
        <pt x="100" y="684" on="0"/>
        <pt x="162" y="741" on="0"/>
        <pt x="201" y="741" on="1"/>
        <pt x="239" y="741" on="0"/>
        <pt x="299" y="688" on="0"/>
        <pt x="320" y="640" on="1"/>
        <pt x="373" y="745" on="1"/>
        <pt x="397" y="731" on="1"/>
        <pt x="333" y="604" on="1"/>
        <pt x="365" y="506" on="0"/>
      </contour>
      <contour>
        <pt x="301" y="602" on="1"/>
        <pt x="283" y="655" on="0"/>
        <pt x="232" y="713" on="0"/>
        <pt x="201" y="713" on="1"/>
        <pt x="172" y="713" on="0"/>
        <pt x="122" y="662" on="0"/>
        <pt x="86" y="571" on="0"/>
        <pt x="65" y="443" on="0"/>
        <pt x="65" y="367" on="1"/>
        <pt x="65" y="311" on="0"/>
        <pt x="76" y="213" on="0"/>
        <pt x="86" y="172" on="1"/>
      </contour>
      <contour>
        <pt x="334" y="367" on="1"/>
        <pt x="334" y="424" on="0"/>
        <pt x="323" y="522" on="0"/>
        <pt x="313" y="563" on="1"/>
        <pt x="97" y="134" on="1"/>
        <pt x="116" y="80" on="0"/>
        <pt x="169" y="20" on="0"/>
        <pt x="201" y="20" on="1"/>
        <pt x="230" y="20" on="0"/>
        <pt x="279" y="71" on="0"/>
        <pt x="314" y="163" on="0"/>
        <pt x="334" y="290" on="0"/>
      </contour>
    </TTGlyph>
    <TTGlyph name="Oslashacute" xMin="2" yMin="-8" xMax="397" yMax="887">
      <component glyphName="Oslash" x="0" y="0" flags="0x204"/>
      <component glyphName="acute" x="42" y="297" flags="0x4"/>
    </TTGlyph>
    <TTGlyph name="Otilde" xMin="34" yMin="-8" xMax="365" yMax="841">
      <component glyphName="O" x="0" y="0" flags="0x204"/>
      <component glyphName="tilde" x="2" y="297" flags="0x4"/>
    </TTGlyph>
    <TTGlyph name="P" xMin="57" yMin="0" xMax="311" yMax="739">
      <contour>
        <pt x="311" y="502" on="1"/>
        <pt x="311" y="452" on="0"/>
        <pt x="285" y="367" on="0"/>
        <pt x="239" y="304" on="0"/>
        <pt x="175" y="268" on="0"/>
        <pt x="136" y="268" on="1"/>
        <pt x="122" y="268" on="0"/>
        <pt x="98" y="270" on="0"/>
        <pt x="88" y="272" on="1"/>
        <pt x="88" y="0" on="1"/>
        <pt x="57" y="0" on="1"/>
        <pt x="57" y="732" on="1"/>
        <pt x="71" y="735" on="0"/>
        <pt x="103" y="739" on="0"/>
        <pt x="123" y="739" on="1"/>
        <pt x="171" y="739" on="0"/>
        <pt x="242" y="701" on="0"/>
        <pt x="289" y="637" on="0"/>
        <pt x="311" y="550" on="0"/>
      </contour>
      <contour>
        <pt x="280" y="502" on="1"/>
        <pt x="280" y="543" on="0"/>
        <pt x="262" y="618" on="0"/>
        <pt x="223" y="676" on="0"/>
        <pt x="163" y="711" on="0"/>
        <pt x="122" y="711" on="1"/>
        <pt x="103" y="711" on="0"/>
        <pt x="88" y="708" on="1"/>
        <pt x="88" y="300" on="1"/>
        <pt x="100" y="298" on="0"/>
        <pt x="124" y="296" on="0"/>
        <pt x="136" y="296" on="1"/>
        <pt x="168" y="296" on="0"/>
        <pt x="221" y="329" on="0"/>
        <pt x="259" y="385" on="0"/>
        <pt x="280" y="460" on="0"/>
      </contour>
    </TTGlyph>
    <TTGlyph name="Q" xMin="34" yMin="-12" xMax="384" yMax="741">
      <contour>
        <pt x="363" y="-12" on="1"/>
        <pt x="307" y="69" on="1"/>
        <pt x="287" y="32" on="0"/>
        <pt x="234" y="-8" on="0"/>
        <pt x="201" y="-8" on="1"/>
        <pt x="161" y="-8" on="0"/>
        <pt x="99" y="49" on="0"/>
        <pt x="56" y="150" on="0"/>
        <pt x="34" y="287" on="0"/>
        <pt x="34" y="367" on="1"/>
        <pt x="34" y="447" on="0"/>
        <pt x="57" y="584" on="0"/>
        <pt x="100" y="684" on="0"/>
        <pt x="162" y="741" on="0"/>
        <pt x="201" y="741" on="1"/>
        <pt x="241" y="741" on="0"/>
        <pt x="302" y="684" on="0"/>
        <pt x="344" y="584" on="0"/>
        <pt x="365" y="447" on="0"/>
        <pt x="365" y="367" on="1"/>
        <pt x="365" y="286" on="0"/>
        <pt x="343" y="148" on="0"/>
        <pt x="321" y="97" on="1"/>
        <pt x="384" y="8" on="1"/>
      </contour>
      <contour>
        <pt x="334" y="367" on="1"/>
        <pt x="334" y="443" on="0"/>
        <pt x="314" y="571" on="0"/>
        <pt x="279" y="662" on="0"/>
        <pt x="230" y="713" on="0"/>
        <pt x="201" y="713" on="1"/>
        <pt x="172" y="713" on="0"/>
        <pt x="122" y="662" on="0"/>
        <pt x="86" y="571" on="0"/>
        <pt x="65" y="443" on="0"/>
        <pt x="65" y="367" on="1"/>
        <pt x="65" y="290" on="0"/>
        <pt x="86" y="163" on="0"/>
        <pt x="122" y="71" on="0"/>
        <pt x="172" y="20" on="0"/>
        <pt x="201" y="20" on="1"/>
        <pt x="227" y="20" on="0"/>
        <pt x="272" y="60" on="0"/>
        <pt x="288" y="97" on="1"/>
        <pt x="236" y="173" on="1"/>
        <pt x="213" y="206" on="0"/>
        <pt x="183" y="249" on="1"/>
        <pt x="204" y="269" on="1"/>
        <pt x="301" y="127" on="1"/>
        <pt x="317" y="172" on="0"/>
        <pt x="334" y="293" on="0"/>
      </contour>
    </TTGlyph>
    <TTGlyph name="R" xMin="57" yMin="0" xMax="334" yMax="739">
      <contour>
        <pt x="299" y="0" on="1"/>
        <pt x="174" y="317" on="1"/>
        <pt x="156" y="314" on="0"/>
        <pt x="139" y="314" on="1"/>
        <pt x="107" y="314" on="0"/>
        <pt x="88" y="317" on="1"/>
        <pt x="88" y="0" on="1"/>
        <pt x="57" y="0" on="1"/>
        <pt x="57" y="732" on="1"/>
        <pt x="71" y="734" on="0"/>
        <pt x="108" y="739" on="0"/>
        <pt x="128" y="739" on="1"/>
        <pt x="176" y="739" on="0"/>
        <pt x="249" y="705" on="0"/>
        <pt x="297" y="648" on="0"/>
        <pt x="321" y="572" on="0"/>
        <pt x="321" y="529" on="1"/>
        <pt x="321" y="451" on="0"/>
        <pt x="254" y="348" on="0"/>
        <pt x="203" y="327" on="1"/>
        <pt x="334" y="0" on="1"/>
      </contour>
      <contour>
        <pt x="289" y="528" on="1"/>
        <pt x="289" y="567" on="0"/>
        <pt x="269" y="634" on="0"/>
        <pt x="229" y="683" on="0"/>
        <pt x="168" y="711" on="0"/>
        <pt x="127" y="711" on="1"/>
        <pt x="115" y="711" on="0"/>
        <pt x="96" y="710" on="0"/>
        <pt x="88" y="709" on="1"/>
        <pt x="88" y="345" on="1"/>
        <pt x="104" y="342" on="0"/>
        <pt x="139" y="342" on="1"/>
        <pt x="169" y="342" on="0"/>
        <pt x="224" y="367" on="0"/>
        <pt x="265" y="415" on="0"/>
        <pt x="289" y="484" on="0"/>
      </contour>
    </TTGlyph>
    <TTGlyph name="Racute" xMin="57" yMin="0" xMax="334" yMax="877">
      <component glyphName="R" x="0" y="0" flags="0x204"/>
      <component glyphName="acute" x="22" y="287" flags="0x4"/>
    </TTGlyph>
    <TTGlyph name="Rcaron" xMin="57" yMin="0" xMax="334" yMax="861">
      <component glyphName="R" x="0" y="0" flags="0x204"/>
      <component glyphName="caron" x="-22" y="287" flags="0x4"/>
    </TTGlyph>
    <TTGlyph name="Rcommaaccent" xMin="57" yMin="-187" xMax="334" yMax="739">
      <component glyphName="R" x="0" y="0" flags="0x204"/>
      <component glyphName="commaaccent" x="138" y="10" flags="0x4"/>
    </TTGlyph>
    <TTGlyph name="S" xMin="20" yMin="-8" xMax="296" yMax="741">
      <contour>
        <pt x="296" y="163" on="1"/>
        <pt x="296" y="124" on="0"/>
        <pt x="274" y="60" on="0"/>
        <pt x="235" y="16" on="0"/>
        <pt x="184" y="-8" on="0"/>
        <pt x="154" y="-8" on="1"/>
        <pt x="112" y="-8" on="0"/>
        <pt x="47" y="27" on="0"/>
        <pt x="20" y="53" on="1"/>
        <pt x="39" y="77" on="1"/>
        <pt x="64" y="54" on="0"/>
        <pt x="121" y="20" on="0"/>
        <pt x="154" y="20" on="1"/>
        <pt x="200" y="20" on="0"/>
        <pt x="265" y="94" on="0"/>
        <pt x="265" y="160" on="1"/>
        <pt x="265" y="194" on="0"/>
        <pt x="245" y="251" on="0"/>
        <pt x="213" y="300" on="0"/>
        <pt x="172" y="344" on="0"/>
        <pt x="151" y="366" on="1"/>
        <pt x="130" y="388" on="0"/>
        <pt x="89" y="433" on="0"/>
        <pt x="57" y="484" on="0"/>
        <pt x="38" y="544" on="0"/>
        <pt x="38" y="580" on="1"/>
        <pt x="38" y="617" on="0"/>
        <pt x="58" y="676" on="0"/>
        <pt x="93" y="718" on="0"/>
        <pt x="141" y="741" on="0"/>
        <pt x="170" y="741" on="1"/>
        <pt x="212" y="741" on="0"/>
        <pt x="266" y="710" on="0"/>
        <pt x="289" y="687" on="1"/>
        <pt x="270" y="663" on="1"/>
        <pt x="251" y="683" on="0"/>
        <pt x="204" y="713" on="0"/>
        <pt x="170" y="713" on="1"/>
        <pt x="125" y="713" on="0"/>
        <pt x="69" y="641" on="0"/>
        <pt x="69" y="583" on="1"/>
        <pt x="69" y="551" on="0"/>
        <pt x="89" y="496" on="0"/>
        <pt x="120" y="448" on="0"/>
        <pt x="161" y="403" on="0"/>
        <pt x="182" y="381" on="1"/>
        <pt x="203" y="358" on="0"/>
        <pt x="244" y="312" on="0"/>
        <pt x="276" y="259" on="0"/>
        <pt x="296" y="199" on="0"/>
      </contour>
    </TTGlyph>
    <TTGlyph name="Sacute" xMin="20" yMin="-8" xMax="296" yMax="887">
      <component glyphName="S" x="0" y="0" flags="0x204"/>
      <component glyphName="acute" x="14" y="297" flags="0x4"/>
    </TTGlyph>
    <TTGlyph name="Scaron" xMin="20" yMin="-8" xMax="296" yMax="871">
      <component glyphName="S" x="0" y="0" flags="0x204"/>
      <component glyphName="caron" x="-30" y="297" flags="0x4"/>
    </TTGlyph>
    <TTGlyph name="Scedilla" xMin="20" yMin="-168" xMax="296" yMax="741">
      <contour>
        <pt x="234" y="-110" on="1"/>
        <pt x="234" y="-133" on="0"/>
        <pt x="198" y="-168" on="0"/>
        <pt x="165" y="-168" on="1"/>
        <pt x="146" y="-168" on="0"/>
        <pt x="110" y="-156" on="0"/>
        <pt x="95" y="-146" on="1"/>
        <pt x="107" y="-122" on="1"/>
        <pt x="120" y="-130" on="0"/>
        <pt x="151" y="-143" on="0"/>
        <pt x="167" y="-143" on="1"/>
        <pt x="186" y="-143" on="0"/>
        <pt x="206" y="-125" on="0"/>
        <pt x="206" y="-112" on="1"/>
        <pt x="206" y="-94" on="0"/>
        <pt x="170" y="-68" on="0"/>
        <pt x="132" y="-63" on="1"/>
        <pt x="130" y="-59" on="1"/>
        <pt x="143" y="-8" on="1"/>
        <pt x="105" y="-6" on="0"/>
        <pt x="45" y="29" on="0"/>
        <pt x="20" y="53" on="1"/>
        <pt x="39" y="77" on="1"/>
        <pt x="64" y="54" on="0"/>
        <pt x="121" y="20" on="0"/>
        <pt x="154" y="20" on="1"/>
        <pt x="200" y="20" on="0"/>
        <pt x="265" y="94" on="0"/>
        <pt x="265" y="160" on="1"/>
        <pt x="265" y="194" on="0"/>
        <pt x="245" y="251" on="0"/>
        <pt x="213" y="300" on="0"/>
        <pt x="172" y="344" on="0"/>
        <pt x="151" y="366" on="1"/>
        <pt x="130" y="388" on="0"/>
        <pt x="89" y="433" on="0"/>
        <pt x="57" y="484" on="0"/>
        <pt x="38" y="544" on="0"/>
        <pt x="38" y="580" on="1"/>
        <pt x="38" y="617" on="0"/>
        <pt x="58" y="676" on="0"/>
        <pt x="93" y="718" on="0"/>
        <pt x="141" y="741" on="0"/>
        <pt x="170" y="741" on="1"/>
        <pt x="212" y="741" on="0"/>
        <pt x="266" y="710" on="0"/>
        <pt x="289" y="687" on="1"/>
        <pt x="270" y="663" on="1"/>
        <pt x="251" y="683" on="0"/>
        <pt x="204" y="713" on="0"/>
        <pt x="170" y="713" on="1"/>
        <pt x="125" y="713" on="0"/>
        <pt x="69" y="641" on="0"/>
        <pt x="69" y="583" on="1"/>
        <pt x="69" y="551" on="0"/>
        <pt x="89" y="496" on="0"/>
        <pt x="120" y="448" on="0"/>
        <pt x="161" y="403" on="0"/>
        <pt x="182" y="381" on="1"/>
        <pt x="203" y="358" on="0"/>
        <pt x="244" y="312" on="0"/>
        <pt x="276" y="259" on="0"/>
        <pt x="296" y="199" on="0"/>
        <pt x="296" y="163" on="1"/>
        <pt x="296" y="126" on="0"/>
        <pt x="277" y="66" on="0"/>
        <pt x="243" y="22" on="0"/>
        <pt x="197" y="-4" on="0"/>
        <pt x="170" y="-7" on="1"/>
        <pt x="161" y="-43" on="1"/>
        <pt x="199" y="-53" on="0"/>
        <pt x="234" y="-89" on="0"/>
      </contour>
    </TTGlyph>
    <TTGlyph name="Scommaaccent" xMin="20" yMin="-197" xMax="296" yMax="741">
      <component glyphName="S" x="0" y="0" flags="0x204"/>
      <component glyphName="commaaccent" x="130" y="0" flags="0x4"/>
    </TTGlyph>
    <TTGlyph name="T" xMin="11" yMin="0" xMax="282" yMax="733">
      <contour>
        <pt x="162" y="704" on="1"/>
        <pt x="162" y="0" on="1"/>
        <pt x="131" y="0" on="1"/>
        <pt x="131" y="704" on="1"/>
        <pt x="11" y="704" on="1"/>
        <pt x="11" y="733" on="1"/>
        <pt x="282" y="733" on="1"/>
        <pt x="282" y="704" on="1"/>
      </contour>
    </TTGlyph>
    <TTGlyph name="Tcaron" xMin="11" yMin="0" xMax="282" yMax="861">
      <component glyphName="T" x="0" y="0" flags="0x204"/>
      <component glyphName="caron" x="-55" y="287" flags="0x4"/>
    </TTGlyph>
    <TTGlyph name="Tcommaaccent" xMin="11" yMin="-197" xMax="282" yMax="733">
      <component glyphName="T" x="0" y="0" flags="0x204"/>
      <component glyphName="commaaccent" x="105" y="0" flags="0x4"/>
    </TTGlyph>
    <TTGlyph name="Thorn" xMin="57" yMin="0" xMax="311" yMax="733">
      <contour>
        <pt x="311" y="389" on="1"/>
        <pt x="311" y="339" on="0"/>
        <pt x="285" y="254" on="0"/>
        <pt x="239" y="191" on="0"/>
        <pt x="175" y="155" on="0"/>
        <pt x="136" y="155" on="1"/>
        <pt x="121" y="155" on="0"/>
        <pt x="98" y="158" on="0"/>
        <pt x="88" y="160" on="1"/>
        <pt x="88" y="0" on="1"/>
        <pt x="57" y="0" on="1"/>
        <pt x="57" y="733" on="1"/>
        <pt x="88" y="733" on="1"/>
        <pt x="88" y="627" on="1"/>
        <pt x="95" y="628" on="0"/>
        <pt x="112" y="628" on="0"/>
        <pt x="123" y="628" on="1"/>
        <pt x="171" y="628" on="0"/>
        <pt x="242" y="590" on="0"/>
        <pt x="289" y="525" on="0"/>
        <pt x="311" y="438" on="0"/>
      </contour>
      <contour>
        <pt x="280" y="389" on="1"/>
        <pt x="280" y="430" on="0"/>
        <pt x="262" y="506" on="0"/>
        <pt x="223" y="565" on="0"/>
        <pt x="163" y="600" on="0"/>
        <pt x="122" y="600" on="1"/>
        <pt x="114" y="600" on="0"/>
        <pt x="96" y="600" on="0"/>
        <pt x="88" y="598" on="1"/>
        <pt x="88" y="189" on="1"/>
        <pt x="99" y="187" on="0"/>
        <pt x="120" y="183" on="0"/>
        <pt x="136" y="183" on="1"/>
        <pt x="168" y="183" on="0"/>
        <pt x="221" y="216" on="0"/>
        <pt x="259" y="272" on="0"/>
        <pt x="280" y="347" on="0"/>
      </contour>
    </TTGlyph>
    <TTGlyph name="U" xMin="53" yMin="-7" xMax="331" yMax="733">
      <contour>
        <pt x="331" y="176" on="1"/>
        <pt x="331" y="82" on="0"/>
        <pt x="255" y="-7" on="0"/>
        <pt x="191" y="-7" on="1"/>
        <pt x="127" y="-7" on="0"/>
        <pt x="53" y="82" on="0"/>
        <pt x="53" y="176" on="1"/>
        <pt x="53" y="733" on="1"/>
        <pt x="84" y="733" on="1"/>
        <pt x="84" y="171" on="1"/>
        <pt x="84" y="98" on="0"/>
        <pt x="142" y="20" on="0"/>
        <pt x="193" y="20" on="1"/>
        <pt x="244" y="20" on="0"/>
        <pt x="300" y="99" on="0"/>
        <pt x="300" y="174" on="1"/>
        <pt x="300" y="733" on="1"/>
        <pt x="331" y="733" on="1"/>
        <pt x="331" y="176" on="1"/>
      </contour>
    </TTGlyph>
    <TTGlyph name="Uacute" xMin="53" yMin="-7" xMax="331" yMax="877">
      <component glyphName="U" x="0" y="0" flags="0x204"/>
      <component glyphName="acute" x="35" y="287" flags="0x4"/>
    </TTGlyph>
    <TTGlyph name="Ubreve" xMin="53" yMin="-7" xMax="331" yMax="865">
      <component glyphName="U" x="0" y="0" flags="0x204"/>
      <component glyphName="breve" x="-7" y="287" flags="0x4"/>
    </TTGlyph>
    <TTGlyph name="Ucircumflex" xMin="53" yMin="-7" xMax="331" yMax="861">
      <component glyphName="U" x="0" y="0" flags="0x204"/>
      <component glyphName="circumflex" x="-9" y="287" flags="0x4"/>
    </TTGlyph>
    <TTGlyph name="Udieresis" xMin="53" yMin="-7" xMax="331" yMax="827">
      <component glyphName="U" x="0" y="0" flags="0x204"/>
      <component glyphName="dieresis" x="-7" y="287" flags="0x4"/>
    </TTGlyph>
    <TTGlyph name="Ugrave" xMin="53" yMin="-7" xMax="331" yMax="877">
      <component glyphName="U" x="0" y="0" flags="0x204"/>
      <component glyphName="grave" x="-47" y="287" flags="0x4"/>
    </TTGlyph>
    <TTGlyph name="Uhungarumlaut" xMin="53" yMin="-7" xMax="331" yMax="920">
      <component glyphName="U" x="0" y="0" flags="0x204"/>
      <component glyphName="hungarumlaut" x="24" y="287" flags="0x4"/>
    </TTGlyph>
    <TTGlyph name="Umacron" xMin="53" yMin="-7" xMax="331" yMax="812">
      <component glyphName="U" x="0" y="0" flags="0x204"/>
      <component glyphName="macron" x="-7" y="287" flags="0x4"/>
    </TTGlyph>
    <TTGlyph name="Uogonek" xMin="53" yMin="-189" xMax="331" yMax="733">
      <contour>
        <pt x="237" y="-168" on="1"/>
        <pt x="219" y="-189" on="0"/>
        <pt x="191" y="-189" on="1"/>
        <pt x="166" y="-189" on="0"/>
        <pt x="137" y="-154" on="0"/>
        <pt x="137" y="-125" on="1"/>
        <pt x="137" y="-102" on="0"/>
        <pt x="159" y="-43" on="0"/>
        <pt x="188" y="-7" on="1"/>
        <pt x="125" y="-6" on="0"/>
        <pt x="53" y="83" on="0"/>
        <pt x="53" y="176" on="1"/>
        <pt x="53" y="733" on="1"/>
        <pt x="84" y="733" on="1"/>
        <pt x="84" y="171" on="1"/>
        <pt x="84" y="98" on="0"/>
        <pt x="142" y="20" on="0"/>
        <pt x="193" y="20" on="1"/>
        <pt x="244" y="20" on="0"/>
        <pt x="300" y="99" on="0"/>
        <pt x="300" y="174" on="1"/>
        <pt x="300" y="733" on="1"/>
        <pt x="331" y="733" on="1"/>
        <pt x="331" y="176" on="1"/>
        <pt x="331" y="94" on="0"/>
        <pt x="273" y="6" on="0"/>
        <pt x="223" y="-4" on="1"/>
        <pt x="191" y="-39" on="0"/>
        <pt x="166" y="-97" on="0"/>
        <pt x="166" y="-123" on="1"/>
        <pt x="166" y="-141" on="0"/>
        <pt x="181" y="-162" on="0"/>
        <pt x="194" y="-162" on="1"/>
        <pt x="211" y="-162" on="0"/>
        <pt x="223" y="-148" on="1"/>
        <pt x="237" y="-168" on="1"/>
      </contour>
    </TTGlyph>
    <TTGlyph name="Uring" xMin="53" yMin="-7" xMax="331" yMax="905">
      <component glyphName="U" x="0" y="0" flags="0x204"/>
      <component glyphName="ring" x="-7" y="287" flags="0x4"/>
    </TTGlyph>
    <TTGlyph name="V" xMin="23" yMin="-10" xMax="345" yMax="733">
      <contour>
        <pt x="192" y="-10" on="1"/>
        <pt x="178" y="-10" on="1"/>
        <pt x="23" y="733" on="1"/>
        <pt x="55" y="733" on="1"/>
        <pt x="186" y="84" on="1"/>
        <pt x="313" y="733" on="1"/>
        <pt x="345" y="733" on="1"/>
      </contour>
    </TTGlyph>
    <TTGlyph name="W" xMin="23" yMin="-6" xMax="515" yMax="733">
      <contour>
        <pt x="403" y="-6" on="1"/>
        <pt x="388" y="-6" on="1"/>
        <pt x="269" y="626" on="1"/>
        <pt x="150" y="-6" on="1"/>
        <pt x="135" y="-6" on="1"/>
        <pt x="23" y="733" on="1"/>
        <pt x="55" y="733" on="1"/>
        <pt x="145" y="103" on="1"/>
        <pt x="262" y="733" on="1"/>
        <pt x="276" y="733" on="1"/>
        <pt x="393" y="102" on="1"/>
        <pt x="483" y="733" on="1"/>
        <pt x="515" y="733" on="1"/>
      </contour>
    </TTGlyph>
    <TTGlyph name="Wacute" xMin="23" yMin="-6" xMax="515" yMax="877">
      <component glyphName="W" x="0" y="0" flags="0x204"/>
      <component glyphName="acute" x="112" y="287" flags="0x4"/>
    </TTGlyph>
    <TTGlyph name="Wcircumflex" xMin="23" yMin="-6" xMax="515" yMax="861">
      <component glyphName="W" x="0" y="0" flags="0x204"/>
      <component glyphName="circumflex" x="67" y="287" flags="0x4"/>
    </TTGlyph>
    <TTGlyph name="Wdieresis" xMin="23" yMin="-6" xMax="515" yMax="827">
      <component glyphName="W" x="0" y="0" flags="0x204"/>
      <component glyphName="dieresis" x="69" y="287" flags="0x4"/>
    </TTGlyph>
    <TTGlyph name="Wgrave" xMin="23" yMin="-6" xMax="515" yMax="877">
      <component glyphName="W" x="0" y="0" flags="0x204"/>
      <component glyphName="grave" x="29" y="287" flags="0x4"/>
    </TTGlyph>
    <TTGlyph name="X" xMin="15" yMin="0" xMax="321" yMax="733">
      <contour>
        <pt x="289" y="0" on="1"/>
        <pt x="167" y="344" on="1"/>
        <pt x="46" y="0" on="1"/>
        <pt x="15" y="0" on="1"/>
        <pt x="151" y="377" on="1"/>
        <pt x="24" y="733" on="1"/>
        <pt x="56" y="733" on="1"/>
        <pt x="169" y="410" on="1"/>
        <pt x="281" y="733" on="1"/>
        <pt x="312" y="733" on="1"/>
        <pt x="186" y="377" on="1"/>
        <pt x="321" y="0" on="1"/>
      </contour>
    </TTGlyph>
    <TTGlyph name="Y" xMin="7" yMin="0" xMax="314" yMax="733">
      <contour>
        <pt x="176" y="310" on="1"/>
        <pt x="176" y="0" on="1"/>
        <pt x="145" y="0" on="1"/>
        <pt x="145" y="308" on="1"/>
        <pt x="7" y="733" on="1"/>
        <pt x="40" y="733" on="1"/>
        <pt x="160" y="351" on="1"/>
        <pt x="281" y="733" on="1"/>
        <pt x="314" y="733" on="1"/>
      </contour>
    </TTGlyph>
    <TTGlyph name="Yacute" xMin="7" yMin="0" xMax="314" yMax="877">
      <component glyphName="Y" x="0" y="0" flags="0x204"/>
      <component glyphName="acute" x="4" y="287" flags="0x4"/>
    </TTGlyph>
    <TTGlyph name="Ycircumflex" xMin="7" yMin="0" xMax="314" yMax="861">
      <component glyphName="Y" x="0" y="0" flags="0x204"/>
      <component glyphName="circumflex" x="-40" y="287" flags="0x4"/>
    </TTGlyph>
    <TTGlyph name="Ydieresis" xMin="7" yMin="0" xMax="314" yMax="827">
      <component glyphName="Y" x="0" y="0" flags="0x204"/>
      <component glyphName="dieresis" x="-38" y="287" flags="0x4"/>
    </TTGlyph>
    <TTGlyph name="Ygrave" xMin="7" yMin="0" xMax="314" yMax="877">
      <component glyphName="Y" x="0" y="0" flags="0x204"/>
      <component glyphName="grave" x="-78" y="287" flags="0x4"/>
    </TTGlyph>
    <TTGlyph name="Z" xMin="17" yMin="0" xMax="301" yMax="733">
      <contour>
        <pt x="57" y="29" on="1"/>
        <pt x="297" y="29" on="1"/>
        <pt x="297" y="0" on="1"/>
        <pt x="19" y="0" on="1"/>
        <pt x="17" y="5" on="1"/>
        <pt x="261" y="704" on="1"/>
        <pt x="33" y="704" on="1"/>
        <pt x="33" y="733" on="1"/>
        <pt x="299" y="733" on="1"/>
        <pt x="301" y="728" on="1"/>
      </contour>
    </TTGlyph>
    <TTGlyph name="Zacute" xMin="17" yMin="0" xMax="301" yMax="877">
      <component glyphName="Z" x="0" y="0" flags="0x204"/>
      <component glyphName="acute" x="10" y="287" flags="0x4"/>
    </TTGlyph>
    <TTGlyph name="Zcaron" xMin="17" yMin="0" xMax="301" yMax="861">
      <component glyphName="Z" x="0" y="0" flags="0x204"/>
      <component glyphName="caron" x="-34" y="287" flags="0x4"/>
    </TTGlyph>
    <TTGlyph name="Zdotaccent" xMin="17" yMin="0" xMax="301" yMax="827">
      <component glyphName="Z" x="0" y="0" flags="0x204"/>
      <component glyphName="dotaccent" x="-32" y="287" flags="0x4"/>
    </TTGlyph>
    <TTGlyph name="a" xMin="22" yMin="-10" xMax="229" yMax="451">
      <contour>
        <pt x="200" y="0" on="1"/>
        <pt x="200" y="46" on="1"/>
        <pt x="186" y="22" on="0"/>
        <pt x="149" y="-10" on="0"/>
        <pt x="123" y="-10" on="1"/>
        <pt x="78" y="-10" on="0"/>
        <pt x="22" y="66" on="0"/>
        <pt x="22" y="130" on="1"/>
        <pt x="22" y="198" on="0"/>
        <pt x="81" y="274" on="0"/>
        <pt x="126" y="274" on="1"/>
        <pt x="147" y="274" on="0"/>
        <pt x="185" y="255" on="0"/>
        <pt x="199" y="241" on="1"/>
        <pt x="199" y="341" on="1"/>
        <pt x="199" y="387" on="0"/>
        <pt x="157" y="423" on="0"/>
        <pt x="128" y="423" on="1"/>
        <pt x="93" y="423" on="0"/>
        <pt x="57" y="405" on="1"/>
        <pt x="49" y="432" on="1"/>
        <pt x="66" y="440" on="0"/>
        <pt x="106" y="451" on="0"/>
        <pt x="132" y="451" on="1"/>
        <pt x="177" y="451" on="0"/>
        <pt x="229" y="400" on="0"/>
        <pt x="229" y="346" on="1"/>
        <pt x="229" y="0" on="1"/>
      </contour>
      <contour>
        <pt x="199" y="216" on="1"/>
        <pt x="186" y="228" on="0"/>
        <pt x="147" y="247" on="0"/>
        <pt x="127" y="247" on="1"/>
        <pt x="94" y="247" on="0"/>
        <pt x="53" y="188" on="0"/>
        <pt x="53" y="134" on="1"/>
        <pt x="53" y="78" on="0"/>
        <pt x="92" y="16" on="0"/>
        <pt x="125" y="16" on="1"/>
        <pt x="148" y="16" on="0"/>
        <pt x="184" y="49" on="0"/>
        <pt x="199" y="78" on="1"/>
      </contour>
    </TTGlyph>
    <TTGlyph name="aacute" xMin="22" yMin="-10" xMax="237" yMax="590">
      <component glyphName="a" x="0" y="0" flags="0x204"/>
      <component glyphName="acute" x="-18" y="0" flags="0x4"/>
    </TTGlyph>
    <TTGlyph name="abreve" xMin="22" yMin="-10" xMax="229" yMax="578">
      <component glyphName="a" x="0" y="0" flags="0x204"/>
      <component glyphName="breve" x="-61" y="0" flags="0x4"/>
    </TTGlyph>
    <TTGlyph name="acircumflex" xMin="22" yMin="-10" xMax="229" yMax="574">
      <component glyphName="a" x="0" y="0" flags="0x204"/>
      <component glyphName="circumflex" x="-63" y="0" flags="0x4"/>
    </TTGlyph>
    <TTGlyph name="acute" xMin="131" yMin="481" xMax="255" yMax="590">
      <contour>
        <pt x="145" y="481" on="1"/>
        <pt x="131" y="497" on="1"/>
        <pt x="236" y="590" on="1"/>
        <pt x="255" y="565" on="1"/>
      </contour>
    </TTGlyph>
    <TTGlyph name="adieresis" xMin="22" yMin="-10" xMax="229" yMax="540">
      <component glyphName="a" x="0" y="0" flags="0x204"/>
      <component glyphName="dieresis" x="-61" y="0" flags="0x4"/>
    </TTGlyph>
    <TTGlyph name="ae" xMin="25" yMin="-10" xMax="421" yMax="451">
      <contour>
        <pt x="202" y="341" on="1"/>
        <pt x="202" y="387" on="0"/>
        <pt x="160" y="423" on="0"/>
        <pt x="131" y="423" on="1"/>
        <pt x="96" y="423" on="0"/>
        <pt x="60" y="405" on="1"/>
        <pt x="52" y="432" on="1"/>
        <pt x="69" y="440" on="0"/>
        <pt x="109" y="451" on="0"/>
        <pt x="135" y="451" on="1"/>
        <pt x="175" y="451" on="0"/>
        <pt x="221" y="413" on="0"/>
        <pt x="228" y="367" on="1"/>
        <pt x="255" y="451" on="0"/>
        <pt x="316" y="451" on="1"/>
        <pt x="341" y="451" on="0"/>
        <pt x="380" y="421" on="0"/>
        <pt x="407" y="365" on="0"/>
        <pt x="421" y="288" on="0"/>
        <pt x="421" y="241" on="1"/>
        <pt x="421" y="232" on="0"/>
        <pt x="421" y="215" on="0"/>
        <pt x="420" y="210" on="1"/>
        <pt x="232" y="210" on="1"/>
        <pt x="233" y="119" on="0"/>
        <pt x="282" y="19" on="0"/>
        <pt x="330" y="19" on="1"/>
        <pt x="350" y="19" on="0"/>
        <pt x="382" y="33" on="0"/>
        <pt x="398" y="46" on="1"/>
        <pt x="412" y="24" on="1"/>
        <pt x="398" y="13" on="0"/>
        <pt x="355" y="-8" on="0"/>
        <pt x="328" y="-8" on="1"/>
        <pt x="246" y="-8" on="0"/>
        <pt x="220" y="105" on="1"/>
        <pt x="214" y="54" on="0"/>
        <pt x="171" y="-10" on="0"/>
        <pt x="129" y="-10" on="1"/>
        <pt x="81" y="-10" on="0"/>
        <pt x="25" y="66" on="0"/>
        <pt x="25" y="130" on="1"/>
        <pt x="25" y="198" on="0"/>
        <pt x="84" y="274" on="0"/>
        <pt x="129" y="274" on="1"/>
        <pt x="152" y="274" on="0"/>
        <pt x="191" y="248" on="0"/>
        <pt x="202" y="234" on="1"/>
      </contour>
      <contour>
        <pt x="391" y="236" on="1"/>
        <pt x="391" y="276" on="0"/>
        <pt x="381" y="345" on="0"/>
        <pt x="362" y="395" on="0"/>
        <pt x="334" y="424" on="0"/>
        <pt x="315" y="424" on="1"/>
        <pt x="281" y="424" on="0"/>
        <pt x="234" y="324" on="0"/>
        <pt x="232" y="236" on="1"/>
      </contour>
      <contour>
        <pt x="202" y="206" on="1"/>
        <pt x="191" y="220" on="0"/>
        <pt x="152" y="247" on="0"/>
        <pt x="130" y="247" on="1"/>
        <pt x="97" y="247" on="0"/>
        <pt x="56" y="188" on="0"/>
        <pt x="56" y="134" on="1"/>
        <pt x="56" y="78" on="0"/>
        <pt x="96" y="16" on="0"/>
        <pt x="130" y="16" on="1"/>
        <pt x="152" y="16" on="0"/>
        <pt x="181" y="48" on="0"/>
        <pt x="196" y="102" on="0"/>
        <pt x="202" y="170" on="0"/>
      </contour>
    </TTGlyph>
    <TTGlyph name="aeacute" xMin="25" yMin="-10" xMax="421" yMax="590">
      <component glyphName="ae" x="0" y="0" flags="0x204"/>
      <component glyphName="acute" x="79" y="0" flags="0x4"/>
    </TTGlyph>
    <TTGlyph name="agrave" xMin="22" yMin="-10" xMax="229" yMax="590">
      <component glyphName="a" x="0" y="0" flags="0x204"/>
      <component glyphName="grave" x="-101" y="0" flags="0x4"/>
    </TTGlyph>
    <TTGlyph name="amacron" xMin="22" yMin="-10" xMax="230" yMax="525">
      <component glyphName="a" x="0" y="0" flags="0x204"/>
      <component glyphName="macron" x="-61" y="0" flags="0x4"/>
    </TTGlyph>
    <TTGlyph name="ampersand" xMin="30" yMin="-13" xMax="383" yMax="738">
      <contour>
        <pt x="383" y="332" on="1"/>
        <pt x="365" y="270" on="0"/>
        <pt x="325" y="161" on="0"/>
        <pt x="305" y="123" on="1"/>
        <pt x="345" y="57" on="0"/>
        <pt x="382" y="4" on="1"/>
        <pt x="355" y="-13" on="1"/>
        <pt x="340" y="9" on="0"/>
        <pt x="305" y="61" on="0"/>
        <pt x="288" y="90" on="1"/>
        <pt x="262" y="45" on="0"/>
        <pt x="198" y="-10" on="0"/>
        <pt x="156" y="-10" on="1"/>
        <pt x="99" y="-10" on="0"/>
        <pt x="30" y="85" on="0"/>
        <pt x="30" y="162" on="1"/>
        <pt x="30" y="198" on="0"/>
        <pt x="47" y="263" on="0"/>
        <pt x="77" y="320" on="0"/>
        <pt x="116" y="370" on="0"/>
        <pt x="138" y="392" on="1"/>
        <pt x="117" y="446" on="0"/>
        <pt x="93" y="547" on="0"/>
        <pt x="93" y="589" on="1"/>
        <pt x="93" y="619" on="0"/>
        <pt x="107" y="673" on="0"/>
        <pt x="134" y="714" on="0"/>
        <pt x="172" y="738" on="0"/>
        <pt x="197" y="738" on="1"/>
        <pt x="238" y="738" on="0"/>
        <pt x="286" y="668" on="0"/>
        <pt x="286" y="612" on="1"/>
        <pt x="286" y="574" on="0"/>
        <pt x="267" y="510" on="0"/>
        <pt x="236" y="454" on="0"/>
        <pt x="195" y="405" on="0"/>
        <pt x="174" y="384" on="1"/>
        <pt x="197" y="325" on="0"/>
        <pt x="256" y="207" on="0"/>
        <pt x="288" y="151" on="1"/>
        <pt x="306" y="192" on="0"/>
        <pt x="338" y="282" on="0"/>
        <pt x="355" y="343" on="1"/>
      </contour>
      <contour>
        <pt x="255" y="610" on="1"/>
        <pt x="255" y="656" on="0"/>
        <pt x="223" y="710" on="0"/>
        <pt x="196" y="710" on="1"/>
        <pt x="179" y="710" on="0"/>
        <pt x="153" y="690" on="0"/>
        <pt x="134" y="656" on="0"/>
        <pt x="124" y="613" on="0"/>
        <pt x="124" y="590" on="1"/>
        <pt x="124" y="552" on="0"/>
        <pt x="145" y="462" on="0"/>
        <pt x="163" y="412" on="1"/>
        <pt x="201" y="451" on="0"/>
        <pt x="255" y="547" on="0"/>
      </contour>
      <contour>
        <pt x="272" y="117" on="1"/>
        <pt x="239" y="174" on="0"/>
        <pt x="175" y="301" on="0"/>
        <pt x="149" y="364" on="1"/>
        <pt x="111" y="324" on="0"/>
        <pt x="60" y="224" on="0"/>
        <pt x="60" y="164" on="1"/>
        <pt x="60" y="134" on="0"/>
        <pt x="73" y="81" on="0"/>
        <pt x="99" y="41" on="0"/>
        <pt x="134" y="18" on="0"/>
        <pt x="157" y="18" on="1"/>
        <pt x="192" y="18" on="0"/>
        <pt x="247" y="72" on="0"/>
      </contour>
    </TTGlyph>
    <TTGlyph name="ampersand.cap" xMin="30" yMin="-13" xMax="383" yMax="738">
      <contour>
        <pt x="163" y="412" on="1"/>
        <pt x="201" y="451" on="0"/>
        <pt x="255" y="547" on="0"/>
        <pt x="255" y="610" on="1"/>
        <pt x="255" y="656" on="0"/>
        <pt x="223" y="710" on="0"/>
        <pt x="196" y="710" on="1"/>
        <pt x="179" y="710" on="0"/>
        <pt x="153" y="690" on="0"/>
        <pt x="134" y="656" on="0"/>
        <pt x="124" y="613" on="0"/>
        <pt x="124" y="590" on="1"/>
        <pt x="124" y="552" on="0"/>
        <pt x="145" y="462" on="0"/>
      </contour>
      <contour>
        <pt x="272" y="117" on="1"/>
        <pt x="239" y="174" on="0"/>
        <pt x="175" y="301" on="0"/>
        <pt x="149" y="364" on="1"/>
        <pt x="111" y="324" on="0"/>
        <pt x="60" y="224" on="0"/>
        <pt x="60" y="164" on="1"/>
        <pt x="60" y="134" on="0"/>
        <pt x="73" y="81" on="0"/>
        <pt x="99" y="41" on="0"/>
        <pt x="134" y="18" on="0"/>
        <pt x="157" y="18" on="1"/>
        <pt x="192" y="18" on="0"/>
        <pt x="247" y="72" on="0"/>
      </contour>
      <contour>
        <pt x="174" y="384" on="1"/>
        <pt x="197" y="325" on="0"/>
        <pt x="256" y="207" on="0"/>
        <pt x="288" y="151" on="1"/>
        <pt x="306" y="192" on="0"/>
        <pt x="338" y="282" on="0"/>
        <pt x="355" y="343" on="1"/>
        <pt x="383" y="332" on="1"/>
        <pt x="365" y="270" on="0"/>
        <pt x="325" y="161" on="0"/>
        <pt x="305" y="123" on="1"/>
        <pt x="345" y="57" on="0"/>
        <pt x="382" y="4" on="1"/>
        <pt x="355" y="-13" on="1"/>
        <pt x="340" y="9" on="0"/>
        <pt x="305" y="61" on="0"/>
        <pt x="288" y="90" on="1"/>
        <pt x="262" y="45" on="0"/>
        <pt x="198" y="-10" on="0"/>
        <pt x="156" y="-10" on="1"/>
        <pt x="99" y="-10" on="0"/>
        <pt x="30" y="85" on="0"/>
        <pt x="30" y="162" on="1"/>
        <pt x="30" y="198" on="0"/>
        <pt x="47" y="263" on="0"/>
        <pt x="77" y="320" on="0"/>
        <pt x="116" y="370" on="0"/>
        <pt x="138" y="392" on="1"/>
        <pt x="117" y="446" on="0"/>
        <pt x="93" y="547" on="0"/>
        <pt x="93" y="589" on="1"/>
        <pt x="93" y="619" on="0"/>
        <pt x="107" y="673" on="0"/>
        <pt x="134" y="714" on="0"/>
        <pt x="172" y="738" on="0"/>
        <pt x="197" y="738" on="1"/>
        <pt x="238" y="738" on="0"/>
        <pt x="286" y="668" on="0"/>
        <pt x="286" y="612" on="1"/>
        <pt x="286" y="574" on="0"/>
        <pt x="267" y="510" on="0"/>
        <pt x="236" y="454" on="0"/>
        <pt x="195" y="405" on="0"/>
      </contour>
    </TTGlyph>
    <TTGlyph name="aogonek" xMin="22" yMin="-189" xMax="239" yMax="451">
      <contour>
        <pt x="239" y="-168" on="1"/>
        <pt x="221" y="-189" on="0"/>
        <pt x="193" y="-189" on="1"/>
        <pt x="168" y="-189" on="0"/>
        <pt x="139" y="-154" on="0"/>
        <pt x="139" y="-125" on="1"/>
        <pt x="139" y="-100" on="0"/>
        <pt x="165" y="-36" on="0"/>
        <pt x="200" y="4" on="1"/>
        <pt x="200" y="46" on="1"/>
        <pt x="186" y="22" on="0"/>
        <pt x="149" y="-10" on="0"/>
        <pt x="123" y="-10" on="1"/>
        <pt x="78" y="-10" on="0"/>
        <pt x="22" y="66" on="0"/>
        <pt x="22" y="130" on="1"/>
        <pt x="22" y="198" on="0"/>
        <pt x="81" y="274" on="0"/>
        <pt x="126" y="274" on="1"/>
        <pt x="147" y="274" on="0"/>
        <pt x="185" y="255" on="0"/>
        <pt x="199" y="241" on="1"/>
        <pt x="199" y="341" on="1"/>
        <pt x="199" y="387" on="0"/>
        <pt x="157" y="423" on="0"/>
        <pt x="128" y="423" on="1"/>
        <pt x="93" y="423" on="0"/>
        <pt x="57" y="405" on="1"/>
        <pt x="49" y="432" on="1"/>
        <pt x="66" y="440" on="0"/>
        <pt x="106" y="451" on="0"/>
        <pt x="132" y="451" on="1"/>
        <pt x="177" y="451" on="0"/>
        <pt x="229" y="400" on="0"/>
        <pt x="229" y="346" on="1"/>
        <pt x="229" y="0" on="1"/>
        <pt x="194" y="-37" on="0"/>
        <pt x="168" y="-96" on="0"/>
        <pt x="168" y="-123" on="1"/>
        <pt x="168" y="-141" on="0"/>
        <pt x="183" y="-162" on="0"/>
        <pt x="196" y="-162" on="1"/>
        <pt x="213" y="-162" on="0"/>
        <pt x="225" y="-148" on="1"/>
      </contour>
      <contour>
        <pt x="199" y="216" on="1"/>
        <pt x="186" y="228" on="0"/>
        <pt x="147" y="247" on="0"/>
        <pt x="127" y="247" on="1"/>
        <pt x="94" y="247" on="0"/>
        <pt x="53" y="188" on="0"/>
        <pt x="53" y="134" on="1"/>
        <pt x="53" y="78" on="0"/>
        <pt x="92" y="16" on="0"/>
        <pt x="125" y="16" on="1"/>
        <pt x="148" y="16" on="0"/>
        <pt x="184" y="49" on="0"/>
        <pt x="199" y="78" on="1"/>
      </contour>
    </TTGlyph>
    <TTGlyph name="aring" xMin="22" yMin="-10" xMax="229" yMax="618">
      <component glyphName="a" x="0" y="0" flags="0x204"/>
      <component glyphName="ring" x="-61" y="0" flags="0x4"/>
    </TTGlyph>
    <TTGlyph name="aringacute" xMin="22" yMin="-10" xMax="237" yMax="757">
      <component glyphName="a" x="0" y="0" flags="0x204"/>
      <component glyphName="ring" x="-63" y="0" flags="0x4"/>
      <component glyphName="acute" x="-18" y="167" flags="0x4"/>
    </TTGlyph>
    <TTGlyph name="arrowleft" xMin="14" yMin="82" xMax="395" yMax="454">
      <contour>
        <pt x="59" y="254" on="1"/>
        <pt x="176" y="100" on="1"/>
        <pt x="155" y="82" on="1"/>
        <pt x="14" y="266" on="1"/>
        <pt x="14" y="270" on="1"/>
        <pt x="155" y="454" on="1"/>
        <pt x="176" y="436" on="1"/>
        <pt x="59" y="282" on="1"/>
        <pt x="395" y="282" on="1"/>
        <pt x="395" y="254" on="1"/>
      </contour>
    </TTGlyph>
    <TTGlyph name="arrowleft.cap" xMin="14" yMin="185" xMax="395" yMax="557">
      <component glyphName="arrowleft" x="0" y="103" flags="0x204"/>
    </TTGlyph>
    <TTGlyph name="arrowright" xMin="26" yMin="82" xMax="407" yMax="454">
      <contour>
        <pt x="362" y="282" on="1"/>
        <pt x="245" y="436" on="1"/>
        <pt x="266" y="454" on="1"/>
        <pt x="407" y="270" on="1"/>
        <pt x="407" y="266" on="1"/>
        <pt x="266" y="82" on="1"/>
        <pt x="245" y="100" on="1"/>
        <pt x="362" y="254" on="1"/>
        <pt x="26" y="254" on="1"/>
        <pt x="26" y="282" on="1"/>
      </contour>
    </TTGlyph>
    <TTGlyph name="arrowright.cap" xMin="26" yMin="185" xMax="407" yMax="557">
      <component glyphName="arrowright" x="0" y="103" flags="0x204"/>
    </TTGlyph>
    <TTGlyph name="asciicircum" xMin="115" yMin="584" xMax="287" yMax="671">
      <contour>
        <pt x="255" y="584" on="1"/>
        <pt x="200" y="637" on="1"/>
        <pt x="147" y="584" on="1"/>
        <pt x="115" y="584" on="1"/>
        <pt x="199" y="671" on="1"/>
        <pt x="203" y="671" on="1"/>
        <pt x="287" y="584" on="1"/>
      </contour>
    </TTGlyph>
    <TTGlyph name="asciitilde" xMin="107" yMin="194" xMax="291" yMax="249">
      <contour>
        <pt x="291" y="225" on="1"/>
        <pt x="281" y="211" on="0"/>
        <pt x="250" y="194" on="0"/>
        <pt x="234" y="194" on="1"/>
        <pt x="223" y="194" on="0"/>
        <pt x="204" y="203" on="0"/>
        <pt x="195" y="208" on="1"/>
        <pt x="185" y="214" on="0"/>
        <pt x="170" y="222" on="0"/>
        <pt x="162" y="222" on="1"/>
        <pt x="142" y="222" on="0"/>
        <pt x="123" y="198" on="1"/>
        <pt x="107" y="218" on="1"/>
        <pt x="117" y="232" on="0"/>
        <pt x="148" y="249" on="0"/>
        <pt x="164" y="249" on="1"/>
        <pt x="175" y="249" on="0"/>
        <pt x="194" y="240" on="0"/>
        <pt x="203" y="235" on="1"/>
        <pt x="213" y="229" on="0"/>
        <pt x="228" y="221" on="0"/>
        <pt x="236" y="221" on="1"/>
        <pt x="256" y="221" on="0"/>
        <pt x="275" y="245" on="1"/>
        <pt x="291" y="225" on="1"/>
      </contour>
    </TTGlyph>
    <TTGlyph name="asterisk" xMin="11" yMin="556" xMax="193" yMax="732">
      <contour>
        <pt x="119" y="633" on="1"/>
        <pt x="167" y="570" on="1"/>
        <pt x="147" y="556" on="1"/>
        <pt x="102" y="618" on="1"/>
        <pt x="57" y="556" on="1"/>
        <pt x="37" y="570" on="1"/>
        <pt x="85" y="633" on="1"/>
        <pt x="11" y="655" on="1"/>
        <pt x="18" y="678" on="1"/>
        <pt x="92" y="654" on="1"/>
        <pt x="90" y="732" on="1"/>
        <pt x="114" y="732" on="1"/>
        <pt x="112" y="654" on="1"/>
        <pt x="186" y="678" on="1"/>
        <pt x="193" y="655" on="1"/>
      </contour>
    </TTGlyph>
    <TTGlyph name="at" xMin="37" yMin="-8" xMax="438" yMax="621">
      <contour>
        <pt x="438" y="327" on="1"/>
        <pt x="438" y="272" on="0"/>
        <pt x="424" y="200" on="0"/>
        <pt x="410" y="176" on="1"/>
        <pt x="390" y="143" on="0"/>
        <pt x="356" y="143" on="1"/>
        <pt x="331" y="143" on="0"/>
        <pt x="299" y="175" on="0"/>
        <pt x="294" y="200" on="1"/>
        <pt x="268" y="149" on="0"/>
        <pt x="228" y="149" on="1"/>
        <pt x="197" y="149" on="0"/>
        <pt x="158" y="197" on="0"/>
        <pt x="158" y="238" on="1"/>
        <pt x="158" y="280" on="0"/>
        <pt x="199" y="336" on="0"/>
        <pt x="233" y="336" on="1"/>
        <pt x="250" y="336" on="0"/>
        <pt x="278" y="320" on="0"/>
        <pt x="287" y="310" on="1"/>
        <pt x="287" y="355" on="1"/>
        <pt x="287" y="390" on="0"/>
        <pt x="260" y="417" on="0"/>
        <pt x="238" y="417" on="1"/>
        <pt x="223" y="417" on="0"/>
        <pt x="198" y="410" on="0"/>
        <pt x="184" y="403" on="1"/>
        <pt x="176" y="427" on="1"/>
        <pt x="188" y="433" on="0"/>
        <pt x="219" y="443" on="0"/>
        <pt x="239" y="443" on="1"/>
        <pt x="273" y="443" on="0"/>
        <pt x="315" y="403" on="0"/>
        <pt x="315" y="359" on="1"/>
        <pt x="315" y="237" on="1"/>
        <pt x="315" y="199" on="0"/>
        <pt x="340" y="167" on="0"/>
        <pt x="357" y="167" on="1"/>
        <pt x="377" y="167" on="0"/>
        <pt x="390" y="188" on="1"/>
        <pt x="401" y="207" on="0"/>
        <pt x="412" y="270" on="0"/>
        <pt x="412" y="326" on="1"/>
        <pt x="412" y="384" on="0"/>
        <pt x="389" y="484" on="0"/>
        <pt x="347" y="556" on="0"/>
        <pt x="287" y="597" on="0"/>
        <pt x="249" y="597" on="1"/>
        <pt x="208" y="597" on="0"/>
        <pt x="139" y="549" on="0"/>
        <pt x="90" y="465" on="0"/>
        <pt x="63" y="351" on="0"/>
        <pt x="63" y="286" on="1"/>
        <pt x="63" y="226" on="0"/>
        <pt x="86" y="127" on="0"/>
        <pt x="133" y="55" on="0"/>
        <pt x="204" y="16" on="0"/>
        <pt x="251" y="16" on="1"/>
        <pt x="275" y="16" on="0"/>
        <pt x="321" y="30" on="0"/>
        <pt x="341" y="42" on="1"/>
        <pt x="350" y="20" on="1"/>
        <pt x="328" y="7" on="0"/>
        <pt x="277" y="-8" on="0"/>
        <pt x="250" y="-8" on="1"/>
        <pt x="197" y="-8" on="0"/>
        <pt x="118" y="34" on="0"/>
        <pt x="64" y="112" on="0"/>
        <pt x="37" y="220" on="0"/>
        <pt x="37" y="286" on="1"/>
        <pt x="37" y="357" on="0"/>
        <pt x="68" y="480" on="0"/>
        <pt x="125" y="570" on="0"/>
        <pt x="203" y="621" on="0"/>
        <pt x="250" y="621" on="1"/>
        <pt x="293" y="621" on="0"/>
        <pt x="362" y="579" on="0"/>
        <pt x="411" y="501" on="0"/>
        <pt x="438" y="393" on="0"/>
      </contour>
      <contour>
        <pt x="287" y="285" on="1"/>
        <pt x="278" y="294" on="0"/>
        <pt x="252" y="312" on="0"/>
        <pt x="235" y="312" on="1"/>
        <pt x="213" y="312" on="0"/>
        <pt x="186" y="271" on="0"/>
        <pt x="186" y="239" on="1"/>
        <pt x="186" y="208" on="0"/>
        <pt x="211" y="173" on="0"/>
        <pt x="229" y="173" on="1"/>
        <pt x="248" y="173" on="0"/>
        <pt x="276" y="202" on="0"/>
        <pt x="287" y="226" on="1"/>
      </contour>
    </TTGlyph>
    <TTGlyph name="at.cap" xMin="37" yMin="-8" xMax="438" yMax="741">
      <contour>
        <pt x="438" y="400" on="1"/>
        <pt x="438" y="330" on="0"/>
        <pt x="424" y="242" on="0"/>
        <pt x="410" y="218" on="1"/>
        <pt x="390" y="185" on="0"/>
        <pt x="354" y="185" on="1"/>
        <pt x="332" y="185" on="0"/>
        <pt x="299" y="217" on="0"/>
        <pt x="294" y="242" on="1"/>
        <pt x="268" y="191" on="0"/>
        <pt x="230" y="191" on="1"/>
        <pt x="198" y="191" on="0"/>
        <pt x="158" y="248" on="0"/>
        <pt x="158" y="296" on="1"/>
        <pt x="158" y="347" on="0"/>
        <pt x="201" y="404" on="0"/>
        <pt x="235" y="404" on="1"/>
        <pt x="250" y="404" on="0"/>
        <pt x="278" y="388" on="0"/>
        <pt x="287" y="378" on="1"/>
        <pt x="287" y="449" on="1"/>
        <pt x="287" y="484" on="0"/>
        <pt x="260" y="511" on="0"/>
        <pt x="238" y="511" on="1"/>
        <pt x="223" y="511" on="0"/>
        <pt x="198" y="504" on="0"/>
        <pt x="184" y="497" on="1"/>
        <pt x="176" y="521" on="1"/>
        <pt x="188" y="527" on="0"/>
        <pt x="219" y="537" on="0"/>
        <pt x="239" y="537" on="1"/>
        <pt x="273" y="537" on="0"/>
        <pt x="315" y="497" on="0"/>
        <pt x="315" y="453" on="1"/>
        <pt x="315" y="279" on="1"/>
        <pt x="315" y="241" on="0"/>
        <pt x="341" y="209" on="0"/>
        <pt x="356" y="209" on="1"/>
        <pt x="377" y="209" on="0"/>
        <pt x="390" y="230" on="1"/>
        <pt x="401" y="249" on="0"/>
        <pt x="412" y="328" on="0"/>
        <pt x="412" y="398" on="1"/>
        <pt x="412" y="451" on="0"/>
        <pt x="395" y="564" on="0"/>
        <pt x="357" y="657" on="0"/>
        <pt x="294" y="717" on="0"/>
        <pt x="249" y="717" on="1"/>
        <pt x="205" y="717" on="0"/>
        <pt x="136" y="661" on="0"/>
        <pt x="88" y="565" on="0"/>
        <pt x="63" y="437" on="0"/>
        <pt x="63" y="365" on="1"/>
        <pt x="63" y="294" on="0"/>
        <pt x="84" y="167" on="0"/>
        <pt x="129" y="72" on="0"/>
        <pt x="202" y="16" on="0"/>
        <pt x="253" y="16" on="1"/>
        <pt x="276" y="16" on="0"/>
        <pt x="321" y="30" on="0"/>
        <pt x="341" y="42" on="1"/>
        <pt x="350" y="20" on="1"/>
        <pt x="328" y="6" on="0"/>
        <pt x="278" y="-8" on="0"/>
        <pt x="255" y="-8" on="1"/>
        <pt x="195" y="-8" on="0"/>
        <pt x="111" y="51" on="0"/>
        <pt x="60" y="152" on="0"/>
        <pt x="37" y="288" on="0"/>
        <pt x="37" y="365" on="1"/>
        <pt x="37" y="443" on="0"/>
        <pt x="67" y="580" on="0"/>
        <pt x="122" y="682" on="0"/>
        <pt x="200" y="741" on="0"/>
        <pt x="249" y="741" on="1"/>
        <pt x="301" y="741" on="0"/>
        <pt x="373" y="681" on="0"/>
        <pt x="418" y="583" on="0"/>
        <pt x="438" y="461" on="0"/>
      </contour>
      <contour>
        <pt x="287" y="353" on="1"/>
        <pt x="278" y="362" on="0"/>
        <pt x="252" y="380" on="0"/>
        <pt x="236" y="380" on="1"/>
        <pt x="215" y="380" on="0"/>
        <pt x="186" y="337" on="0"/>
        <pt x="186" y="299" on="1"/>
        <pt x="186" y="259" on="0"/>
        <pt x="211" y="215" on="0"/>
        <pt x="231" y="215" on="1"/>
        <pt x="248" y="215" on="0"/>
        <pt x="276" y="244" on="0"/>
        <pt x="287" y="268" on="1"/>
      </contour>
    </TTGlyph>
    <TTGlyph name="atilde" xMin="22" yMin="-10" xMax="232" yMax="544">
      <component glyphName="a" x="0" y="0" flags="0x204"/>
      <component glyphName="tilde" x="-60" y="0" flags="0x4"/>
    </TTGlyph>
    <TTGlyph name="b" xMin="47" yMin="-7" xMax="278" yMax="733">
      <contour>
        <pt x="278" y="226" on="1"/>
        <pt x="278" y="169" on="0"/>
        <pt x="258" y="82" on="0"/>
        <pt x="223" y="23" on="0"/>
        <pt x="178" y="-7" on="0"/>
        <pt x="154" y="-7" on="1"/>
        <pt x="131" y="-7" on="0"/>
        <pt x="93" y="23" on="0"/>
        <pt x="76" y="44" on="1"/>
        <pt x="76" y="0" on="1"/>
        <pt x="47" y="0" on="1"/>
        <pt x="47" y="733" on="1"/>
        <pt x="77" y="733" on="1"/>
        <pt x="77" y="399" on="1"/>
        <pt x="94" y="419" on="0"/>
        <pt x="133" y="448" on="0"/>
        <pt x="160" y="448" on="1"/>
        <pt x="183" y="448" on="0"/>
        <pt x="225" y="421" on="0"/>
        <pt x="258" y="367" on="0"/>
        <pt x="278" y="283" on="0"/>
      </contour>
      <contour>
        <pt x="248" y="225" on="1"/>
        <pt x="248" y="277" on="0"/>
        <pt x="232" y="351" on="0"/>
        <pt x="206" y="398" on="0"/>
        <pt x="173" y="420" on="0"/>
        <pt x="156" y="420" on="1"/>
        <pt x="133" y="420" on="0"/>
        <pt x="91" y="386" on="0"/>
        <pt x="77" y="367" on="1"/>
        <pt x="77" y="76" on="1"/>
        <pt x="93" y="56" on="0"/>
        <pt x="130" y="21" on="0"/>
        <pt x="153" y="21" on="1"/>
        <pt x="192" y="21" on="0"/>
        <pt x="248" y="126" on="0"/>
      </contour>
    </TTGlyph>
    <TTGlyph name="backslash" xMin="5" yMin="-216" xMax="176" yMax="733">
      <contour>
        <pt x="149" y="-216" on="1"/>
        <pt x="5" y="733" on="1"/>
        <pt x="32" y="733" on="1"/>
        <pt x="176" y="-216" on="1"/>
      </contour>
    </TTGlyph>
    <TTGlyph name="backslash.cap" xMin="8" yMin="-112" xMax="179" yMax="837">
      <component glyphName="backslash" x="3" y="104" flags="0x204"/>
    </TTGlyph>
    <TTGlyph name="bar" xMin="65" yMin="-215" xMax="91" yMax="734">
      <contour>
        <pt x="65" y="-215" on="1"/>
        <pt x="65" y="734" on="1"/>
        <pt x="91" y="734" on="1"/>
        <pt x="91" y="-215" on="1"/>
      </contour>
    </TTGlyph>
    <TTGlyph name="bar.cap" xMin="65" yMin="-112" xMax="91" yMax="837">
      <component glyphName="bar" x="0" y="103" flags="0x204"/>
    </TTGlyph>
    <TTGlyph name="braceleft" xMin="18" yMin="-223" xMax="192" yMax="740">
      <contour>
        <pt x="192" y="-223" on="1"/>
        <pt x="172" y="-223" on="0"/>
        <pt x="136" y="-212" on="0"/>
        <pt x="107" y="-188" on="0"/>
        <pt x="90" y="-151" on="0"/>
        <pt x="90" y="-125" on="1"/>
        <pt x="90" y="176" on="1"/>
        <pt x="90" y="212" on="0"/>
        <pt x="56" y="244" on="0"/>
        <pt x="32" y="244" on="1"/>
        <pt x="18" y="244" on="1"/>
        <pt x="18" y="273" on="1"/>
        <pt x="32" y="273" on="1"/>
        <pt x="56" y="273" on="0"/>
        <pt x="90" y="305" on="0"/>
        <pt x="90" y="341" on="1"/>
        <pt x="90" y="642" on="1"/>
        <pt x="90" y="668" on="0"/>
        <pt x="107" y="705" on="0"/>
        <pt x="136" y="729" on="0"/>
        <pt x="172" y="740" on="0"/>
        <pt x="192" y="740" on="1"/>
        <pt x="192" y="713" on="1"/>
        <pt x="163" y="713" on="0"/>
        <pt x="122" y="678" on="0"/>
        <pt x="122" y="640" on="1"/>
        <pt x="122" y="343" on="1"/>
        <pt x="122" y="305" on="0"/>
        <pt x="92" y="263" on="0"/>
        <pt x="71" y="258" on="1"/>
        <pt x="92" y="253" on="0"/>
        <pt x="122" y="212" on="0"/>
        <pt x="122" y="174" on="1"/>
        <pt x="122" y="-123" on="1"/>
        <pt x="122" y="-161" on="0"/>
        <pt x="163" y="-196" on="0"/>
        <pt x="192" y="-196" on="1"/>
        <pt x="192" y="-223" on="1"/>
      </contour>
    </TTGlyph>
    <TTGlyph name="braceleft.cap" xMin="18" yMin="-119" xMax="192" yMax="844">
      <component glyphName="braceleft" x="0" y="104" flags="0x204"/>
    </TTGlyph>
    <TTGlyph name="braceright" xMin="5" yMin="-223" xMax="179" yMax="740">
      <contour>
        <pt x="165" y="244" on="1"/>
        <pt x="141" y="244" on="0"/>
        <pt x="107" y="212" on="0"/>
        <pt x="107" y="176" on="1"/>
        <pt x="107" y="-125" on="1"/>
        <pt x="107" y="-151" on="0"/>
        <pt x="90" y="-188" on="0"/>
        <pt x="62" y="-212" on="0"/>
        <pt x="25" y="-223" on="0"/>
        <pt x="6" y="-223" on="1"/>
        <pt x="5" y="-196" on="1"/>
        <pt x="34" y="-196" on="0"/>
        <pt x="75" y="-161" on="0"/>
        <pt x="75" y="-123" on="1"/>
        <pt x="75" y="174" on="1"/>
        <pt x="75" y="212" on="0"/>
        <pt x="105" y="253" on="0"/>
        <pt x="126" y="258" on="1"/>
        <pt x="105" y="263" on="0"/>
        <pt x="75" y="305" on="0"/>
        <pt x="75" y="343" on="1"/>
        <pt x="75" y="640" on="1"/>
        <pt x="75" y="678" on="0"/>
        <pt x="34" y="713" on="0"/>
        <pt x="5" y="713" on="1"/>
        <pt x="5" y="740" on="1"/>
        <pt x="24" y="740" on="0"/>
        <pt x="61" y="729" on="0"/>
        <pt x="90" y="705" on="0"/>
        <pt x="107" y="668" on="0"/>
        <pt x="107" y="642" on="1"/>
        <pt x="107" y="341" on="1"/>
        <pt x="107" y="305" on="0"/>
        <pt x="141" y="273" on="0"/>
        <pt x="165" y="273" on="1"/>
        <pt x="179" y="273" on="1"/>
        <pt x="179" y="244" on="1"/>
      </contour>
    </TTGlyph>
    <TTGlyph name="braceright.cap" xMin="5" yMin="-119" xMax="179" yMax="844">
      <component glyphName="braceright" x="0" y="104" flags="0x204"/>
    </TTGlyph>
    <TTGlyph name="bracketleft" xMin="58" yMin="-217" xMax="181" yMax="732">
      <contour>
        <pt x="58" y="-217" on="1"/>
        <pt x="58" y="732" on="1"/>
        <pt x="181" y="732" on="1"/>
        <pt x="181" y="706" on="1"/>
        <pt x="88" y="706" on="1"/>
        <pt x="88" y="-189" on="1"/>
        <pt x="181" y="-189" on="1"/>
        <pt x="181" y="-217" on="1"/>
      </contour>
    </TTGlyph>
    <TTGlyph name="bracketleft.cap" xMin="58" yMin="-112" xMax="181" yMax="837">
      <component glyphName="bracketleft" x="0" y="105" flags="0x204"/>
    </TTGlyph>
    <TTGlyph name="bracketright" xMin="5" yMin="-216" xMax="128" yMax="733">
      <contour>
        <pt x="5" y="-216" on="1"/>
        <pt x="5" y="-190" on="1"/>
        <pt x="98" y="-190" on="1"/>
        <pt x="98" y="707" on="1"/>
        <pt x="5" y="707" on="1"/>
        <pt x="5" y="733" on="1"/>
        <pt x="128" y="733" on="1"/>
        <pt x="128" y="-216" on="1"/>
      </contour>
    </TTGlyph>
    <TTGlyph name="bracketright.cap" xMin="5" yMin="-112" xMax="128" yMax="837">
      <component glyphName="bracketright" x="0" y="104" flags="0x204"/>
    </TTGlyph>
    <TTGlyph name="breve" xMin="117" yMin="489" xMax="283" yMax="578">
      <contour>
        <pt x="283" y="576" on="1"/>
        <pt x="283" y="541" on="0"/>
        <pt x="242" y="489" on="0"/>
        <pt x="200" y="489" on="1"/>
        <pt x="159" y="489" on="0"/>
        <pt x="117" y="541" on="0"/>
        <pt x="117" y="576" on="1"/>
        <pt x="142" y="578" on="1"/>
        <pt x="143" y="551" on="0"/>
        <pt x="171" y="511" on="0"/>
        <pt x="200" y="511" on="1"/>
        <pt x="230" y="511" on="0"/>
        <pt x="257" y="551" on="0"/>
        <pt x="258" y="578" on="1"/>
        <pt x="283" y="576" on="1"/>
      </contour>
    </TTGlyph>
    <TTGlyph name="bullet" xMin="56" yMin="296" xMax="196" yMax="436">
      <contour>
        <pt x="196" y="366" on="1"/>
        <pt x="196" y="337" on="0"/>
        <pt x="155" y="296" on="0"/>
        <pt x="126" y="296" on="1"/>
        <pt x="97" y="296" on="0"/>
        <pt x="56" y="337" on="0"/>
        <pt x="56" y="366" on="1"/>
        <pt x="56" y="395" on="0"/>
        <pt x="97" y="436" on="0"/>
        <pt x="126" y="436" on="1"/>
        <pt x="155" y="436" on="0"/>
        <pt x="196" y="395" on="0"/>
      </contour>
    </TTGlyph>
    <TTGlyph name="c" xMin="25" yMin="-8" xMax="236" yMax="449">
      <contour>
        <pt x="233" y="27" on="1"/>
        <pt x="215" y="11" on="0"/>
        <pt x="179" y="-8" on="0"/>
        <pt x="153" y="-8" on="1"/>
        <pt x="122" y="-8" on="0"/>
        <pt x="74" y="25" on="0"/>
        <pt x="42" y="85" on="0"/>
        <pt x="25" y="168" on="0"/>
        <pt x="25" y="218" on="1"/>
        <pt x="25" y="268" on="0"/>
        <pt x="42" y="353" on="0"/>
        <pt x="75" y="414" on="0"/>
        <pt x="123" y="449" on="0"/>
        <pt x="155" y="449" on="1"/>
        <pt x="182" y="449" on="0"/>
        <pt x="222" y="427" on="0"/>
        <pt x="236" y="413" on="1"/>
        <pt x="219" y="390" on="1"/>
        <pt x="208" y="401" on="0"/>
        <pt x="175" y="421" on="0"/>
        <pt x="153" y="421" on="1"/>
        <pt x="127" y="421" on="0"/>
        <pt x="90" y="388" on="0"/>
        <pt x="66" y="332" on="0"/>
        <pt x="55" y="258" on="0"/>
        <pt x="55" y="218" on="1"/>
        <pt x="55" y="178" on="0"/>
        <pt x="67" y="106" on="0"/>
        <pt x="91" y="52" on="0"/>
        <pt x="129" y="20" on="0"/>
        <pt x="155" y="20" on="1"/>
        <pt x="173" y="20" on="0"/>
        <pt x="205" y="37" on="0"/>
        <pt x="219" y="50" on="1"/>
        <pt x="233" y="27" on="1"/>
      </contour>
    </TTGlyph>
    <TTGlyph name="cacute" xMin="25" yMin="-8" xMax="245" yMax="590">
      <component glyphName="c" x="0" y="0" flags="0x204"/>
      <component glyphName="acute" x="-10" y="0" flags="0x4"/>
    </TTGlyph>
    <TTGlyph name="caron" xMin="115" yMin="487" xMax="287" yMax="574">
      <contour>
        <pt x="203" y="487" on="1"/>
        <pt x="199" y="487" on="1"/>
        <pt x="115" y="574" on="1"/>
        <pt x="148" y="574" on="1"/>
        <pt x="202" y="521" on="1"/>
        <pt x="254" y="574" on="1"/>
        <pt x="287" y="574" on="1"/>
      </contour>
    </TTGlyph>
    <TTGlyph name="caron.alt" xMin="71" yMin="539" xMax="136" yMax="736">
      <contour>
        <pt x="135" y="732" on="1"/>
        <pt x="136" y="683" on="0"/>
        <pt x="119" y="581" on="0"/>
        <pt x="85" y="539" on="1"/>
        <pt x="71" y="548" on="1"/>
        <pt x="99" y="592" on="0"/>
        <pt x="108" y="688" on="0"/>
        <pt x="108" y="736" on="1"/>
      </contour>
    </TTGlyph>
    <TTGlyph name="ccaron" xMin="25" yMin="-8" xMax="236" yMax="574">
      <component glyphName="c" x="0" y="0" flags="0x204"/>
      <component glyphName="caron" x="-55" y="0" flags="0x4"/>
    </TTGlyph>
    <TTGlyph name="ccedilla" xMin="25" yMin="-168" xMax="236" yMax="449">
      <contour>
        <pt x="222" y="-110" on="1"/>
        <pt x="222" y="-133" on="0"/>
        <pt x="186" y="-168" on="0"/>
        <pt x="153" y="-168" on="1"/>
        <pt x="134" y="-168" on="0"/>
        <pt x="98" y="-156" on="0"/>
        <pt x="83" y="-146" on="1"/>
        <pt x="95" y="-122" on="1"/>
        <pt x="108" y="-130" on="0"/>
        <pt x="139" y="-143" on="0"/>
        <pt x="155" y="-143" on="1"/>
        <pt x="174" y="-143" on="0"/>
        <pt x="194" y="-125" on="0"/>
        <pt x="194" y="-112" on="1"/>
        <pt x="194" y="-94" on="0"/>
        <pt x="158" y="-68" on="0"/>
        <pt x="120" y="-63" on="1"/>
        <pt x="118" y="-59" on="1"/>
        <pt x="132" y="-6" on="1"/>
        <pt x="79" y="5" on="0"/>
        <pt x="25" y="126" on="0"/>
        <pt x="25" y="218" on="1"/>
        <pt x="25" y="268" on="0"/>
        <pt x="42" y="353" on="0"/>
        <pt x="75" y="414" on="0"/>
        <pt x="123" y="449" on="0"/>
        <pt x="155" y="449" on="1"/>
        <pt x="182" y="449" on="0"/>
        <pt x="222" y="427" on="0"/>
        <pt x="236" y="413" on="1"/>
        <pt x="219" y="390" on="1"/>
        <pt x="208" y="401" on="0"/>
        <pt x="175" y="421" on="0"/>
        <pt x="153" y="421" on="1"/>
        <pt x="127" y="421" on="0"/>
        <pt x="90" y="388" on="0"/>
        <pt x="66" y="332" on="0"/>
        <pt x="55" y="258" on="0"/>
        <pt x="55" y="218" on="1"/>
        <pt x="55" y="178" on="0"/>
        <pt x="67" y="106" on="0"/>
        <pt x="91" y="52" on="0"/>
        <pt x="129" y="20" on="0"/>
        <pt x="155" y="20" on="1"/>
        <pt x="173" y="20" on="0"/>
        <pt x="205" y="37" on="0"/>
        <pt x="219" y="50" on="1"/>
        <pt x="233" y="27" on="1"/>
        <pt x="216" y="12" on="0"/>
        <pt x="181" y="-6" on="0"/>
        <pt x="158" y="-8" on="1"/>
        <pt x="149" y="-43" on="1"/>
        <pt x="187" y="-53" on="0"/>
        <pt x="222" y="-89" on="0"/>
      </contour>
    </TTGlyph>
    <TTGlyph name="cdotaccent" xMin="25" yMin="-8" xMax="236" yMax="540">
      <component glyphName="c" x="0" y="0" flags="0x204"/>
      <component glyphName="dotaccent" x="-53" y="0" flags="0x4"/>
    </TTGlyph>
    <TTGlyph name="cedilla" xMin="142" yMin="-168" xMax="281" yMax="14">
      <contour>
        <pt x="281" y="-110" on="1"/>
        <pt x="281" y="-133" on="0"/>
        <pt x="245" y="-168" on="0"/>
        <pt x="212" y="-168" on="1"/>
        <pt x="193" y="-168" on="0"/>
        <pt x="157" y="-156" on="0"/>
        <pt x="142" y="-146" on="1"/>
        <pt x="154" y="-122" on="1"/>
        <pt x="167" y="-130" on="0"/>
        <pt x="198" y="-143" on="0"/>
        <pt x="214" y="-143" on="1"/>
        <pt x="233" y="-143" on="0"/>
        <pt x="253" y="-125" on="0"/>
        <pt x="253" y="-112" on="1"/>
        <pt x="253" y="-94" on="0"/>
        <pt x="217" y="-68" on="0"/>
        <pt x="179" y="-63" on="1"/>
        <pt x="177" y="-59" on="1"/>
        <pt x="196" y="14" on="1"/>
        <pt x="221" y="7" on="1"/>
        <pt x="208" y="-43" on="1"/>
        <pt x="246" y="-53" on="0"/>
        <pt x="281" y="-89" on="0"/>
      </contour>
    </TTGlyph>
    <TTGlyph name="cent" xMin="25" yMin="-78" xMax="236" yMax="535">
      <contour>
        <pt x="122" y="-4" on="1"/>
        <pt x="75" y="10" on="0"/>
        <pt x="25" y="130" on="0"/>
        <pt x="25" y="218" on="1"/>
        <pt x="25" y="267" on="0"/>
        <pt x="42" y="351" on="0"/>
        <pt x="73" y="412" on="0"/>
        <pt x="120" y="448" on="0"/>
        <pt x="150" y="449" on="1"/>
        <pt x="156" y="535" on="1"/>
        <pt x="182" y="534" on="1"/>
        <pt x="176" y="447" on="1"/>
        <pt x="194" y="443" on="0"/>
        <pt x="223" y="425" on="0"/>
        <pt x="236" y="413" on="1"/>
        <pt x="219" y="390" on="1"/>
        <pt x="208" y="400" on="0"/>
        <pt x="188" y="414" on="0"/>
        <pt x="175" y="418" on="1"/>
        <pt x="150" y="20" on="1"/>
        <pt x="151" y="20" on="1"/>
        <pt x="169" y="20" on="0"/>
        <pt x="205" y="37" on="0"/>
        <pt x="219" y="50" on="1"/>
        <pt x="233" y="27" on="1"/>
        <pt x="215" y="11" on="0"/>
        <pt x="175" y="-8" on="0"/>
        <pt x="149" y="-8" on="1"/>
        <pt x="148" y="-8" on="1"/>
        <pt x="144" y="-78" on="1"/>
        <pt x="118" y="-77" on="1"/>
      </contour>
      <contour>
        <pt x="55" y="218" on="1"/>
        <pt x="55" y="185" on="0"/>
        <pt x="63" y="123" on="0"/>
        <pt x="79" y="71" on="0"/>
        <pt x="106" y="33" on="0"/>
        <pt x="124" y="25" on="1"/>
        <pt x="149" y="421" on="1"/>
        <pt x="125" y="420" on="0"/>
        <pt x="90" y="386" on="0"/>
        <pt x="66" y="330" on="0"/>
        <pt x="55" y="257" on="0"/>
      </contour>
    </TTGlyph>
    <TTGlyph name="cent.lin" xMin="25" yMin="56" xMax="236" yMax="669">
      <component glyphName="cent" x="0" y="134" flags="0x204"/>
    </TTGlyph>
    <TTGlyph name="circumflex" xMin="115" yMin="487" xMax="287" yMax="574">
      <contour>
        <pt x="254" y="487" on="1"/>
        <pt x="200" y="540" on="1"/>
        <pt x="148" y="487" on="1"/>
        <pt x="115" y="487" on="1"/>
        <pt x="199" y="574" on="1"/>
        <pt x="203" y="574" on="1"/>
        <pt x="287" y="487" on="1"/>
      </contour>
    </TTGlyph>
    <TTGlyph name="colon" xMin="18" yMin="-8" xMax="74" yMax="395">
      <contour>
        <pt x="18" y="21" on="1"/>
        <pt x="18" y="32" on="0"/>
        <pt x="35" y="50" on="0"/>
        <pt x="46" y="50" on="1"/>
        <pt x="57" y="50" on="0"/>
        <pt x="74" y="32" on="0"/>
        <pt x="74" y="21" on="1"/>
        <pt x="74" y="10" on="0"/>
        <pt x="57" y="-8" on="0"/>
        <pt x="46" y="-8" on="1"/>
        <pt x="35" y="-8" on="0"/>
        <pt x="18" y="10" on="0"/>
      </contour>
      <contour>
        <pt x="18" y="366" on="1"/>
        <pt x="18" y="377" on="0"/>
        <pt x="35" y="395" on="0"/>
        <pt x="46" y="395" on="1"/>
        <pt x="57" y="395" on="0"/>
        <pt x="74" y="377" on="0"/>
        <pt x="74" y="366" on="1"/>
        <pt x="74" y="355" on="0"/>
        <pt x="57" y="337" on="0"/>
        <pt x="46" y="337" on="1"/>
        <pt x="35" y="337" on="0"/>
        <pt x="18" y="355" on="0"/>
      </contour>
    </TTGlyph>
    <TTGlyph name="comma" xMin="9" yMin="-89" xMax="74" yMax="50">
      <contour>
        <pt x="74" y="11" on="1"/>
        <pt x="74" y="-5" on="0"/>
        <pt x="63" y="-36" on="0"/>
        <pt x="47" y="-63" on="0"/>
        <pt x="27" y="-83" on="0"/>
        <pt x="18" y="-89" on="1"/>
        <pt x="9" y="-81" on="1"/>
        <pt x="26" y="-64" on="0"/>
        <pt x="47" y="-28" on="0"/>
        <pt x="49" y="-8" on="1"/>
        <pt x="33" y="-6" on="0"/>
        <pt x="17" y="11" on="0"/>
        <pt x="17" y="22" on="1"/>
        <pt x="17" y="33" on="0"/>
        <pt x="32" y="50" on="0"/>
        <pt x="43" y="50" on="1"/>
        <pt x="56" y="50" on="0"/>
        <pt x="74" y="28" on="0"/>
      </contour>
    </TTGlyph>
    <TTGlyph name="commaaccent" xMin="9" yMin="-197" xMax="74" yMax="-58">
      <contour>
        <pt x="74" y="-97" on="1"/>
        <pt x="74" y="-113" on="0"/>
        <pt x="63" y="-144" on="0"/>
        <pt x="47" y="-171" on="0"/>
        <pt x="27" y="-191" on="0"/>
        <pt x="18" y="-197" on="1"/>
        <pt x="9" y="-189" on="1"/>
        <pt x="26" y="-172" on="0"/>
        <pt x="47" y="-136" on="0"/>
        <pt x="49" y="-116" on="1"/>
        <pt x="33" y="-114" on="0"/>
        <pt x="17" y="-97" on="0"/>
        <pt x="17" y="-86" on="1"/>
        <pt x="17" y="-75" on="0"/>
        <pt x="32" y="-58" on="0"/>
        <pt x="43" y="-58" on="1"/>
        <pt x="56" y="-58" on="0"/>
        <pt x="74" y="-80" on="0"/>
      </contour>
    </TTGlyph>
    <TTGlyph name="copyright" xMin="27" yMin="-12" xMax="478" yMax="745">
      <contour>
        <pt x="478" y="366" on="1"/>
        <pt x="478" y="288" on="0"/>
        <pt x="446" y="150" on="0"/>
        <pt x="387" y="47" on="0"/>
        <pt x="304" y="-12" on="0"/>
        <pt x="253" y="-12" on="1"/>
        <pt x="202" y="-12" on="0"/>
        <pt x="119" y="47" on="0"/>
        <pt x="60" y="150" on="0"/>
        <pt x="27" y="288" on="0"/>
        <pt x="27" y="366" on="1"/>
        <pt x="27" y="444" on="0"/>
        <pt x="60" y="582" on="0"/>
        <pt x="119" y="685" on="0"/>
        <pt x="202" y="745" on="0"/>
        <pt x="253" y="745" on="1"/>
        <pt x="304" y="745" on="0"/>
        <pt x="387" y="685" on="0"/>
        <pt x="446" y="582" on="0"/>
        <pt x="478" y="444" on="0"/>
      </contour>
      <contour>
        <pt x="453" y="366" on="1"/>
        <pt x="453" y="436" on="0"/>
        <pt x="425" y="564" on="0"/>
        <pt x="373" y="662" on="0"/>
        <pt x="299" y="721" on="0"/>
        <pt x="253" y="721" on="1"/>
        <pt x="206" y="721" on="0"/>
        <pt x="132" y="662" on="0"/>
        <pt x="80" y="564" on="0"/>
        <pt x="52" y="436" on="0"/>
        <pt x="52" y="366" on="1"/>
        <pt x="52" y="297" on="0"/>
        <pt x="80" y="169" on="0"/>
        <pt x="132" y="71" on="0"/>
        <pt x="206" y="12" on="0"/>
        <pt x="253" y="12" on="1"/>
        <pt x="299" y="12" on="0"/>
        <pt x="373" y="71" on="0"/>
        <pt x="425" y="169" on="0"/>
        <pt x="453" y="297" on="0"/>
      </contour>
      <contour>
        <pt x="325" y="201" on="1"/>
        <pt x="298" y="180" on="0"/>
        <pt x="269" y="180" on="1"/>
        <pt x="224" y="180" on="0"/>
        <pt x="163" y="273" on="0"/>
        <pt x="163" y="367" on="1"/>
        <pt x="163" y="453" on="0"/>
        <pt x="221" y="553" on="0"/>
        <pt x="269" y="553" on="1"/>
        <pt x="286" y="553" on="0"/>
        <pt x="313" y="544" on="0"/>
        <pt x="327" y="533" on="1"/>
        <pt x="312" y="509" on="1"/>
        <pt x="303" y="516" on="0"/>
        <pt x="280" y="525" on="0"/>
        <pt x="268" y="525" on="1"/>
        <pt x="238" y="525" on="0"/>
        <pt x="194" y="444" on="0"/>
        <pt x="194" y="369" on="1"/>
        <pt x="194" y="288" on="0"/>
        <pt x="242" y="208" on="0"/>
        <pt x="271" y="208" on="1"/>
        <pt x="282" y="208" on="0"/>
        <pt x="305" y="218" on="0"/>
        <pt x="313" y="223" on="1"/>
      </contour>
    </TTGlyph>
    <TTGlyph name="d" xMin="25" yMin="-7" xMax="256" yMax="733">
      <contour>
        <pt x="227" y="0" on="1"/>
        <pt x="227" y="43" on="1"/>
        <pt x="210" y="23" on="0"/>
        <pt x="170" y="-7" on="0"/>
        <pt x="143" y="-7" on="1"/>
        <pt x="120" y="-7" on="0"/>
        <pt x="78" y="20" on="0"/>
        <pt x="45" y="74" on="0"/>
        <pt x="25" y="158" on="0"/>
        <pt x="25" y="215" on="1"/>
        <pt x="25" y="272" on="0"/>
        <pt x="45" y="359" on="0"/>
        <pt x="80" y="418" on="0"/>
        <pt x="125" y="448" on="0"/>
        <pt x="149" y="448" on="1"/>
        <pt x="172" y="448" on="0"/>
        <pt x="209" y="419" on="0"/>
        <pt x="226" y="398" on="1"/>
        <pt x="226" y="733" on="1"/>
        <pt x="256" y="733" on="1"/>
        <pt x="256" y="0" on="1"/>
      </contour>
      <contour>
        <pt x="226" y="365" on="1"/>
        <pt x="210" y="385" on="0"/>
        <pt x="173" y="420" on="0"/>
        <pt x="150" y="420" on="1"/>
        <pt x="111" y="420" on="0"/>
        <pt x="55" y="315" on="0"/>
        <pt x="55" y="216" on="1"/>
        <pt x="55" y="164" on="0"/>
        <pt x="71" y="90" on="0"/>
        <pt x="97" y="43" on="0"/>
        <pt x="130" y="21" on="0"/>
        <pt x="147" y="21" on="1"/>
        <pt x="170" y="21" on="0"/>
        <pt x="212" y="55" on="0"/>
        <pt x="226" y="74" on="1"/>
      </contour>
    </TTGlyph>
    <TTGlyph name="dagger" xMin="19" yMin="213" xMax="215" yMax="733">
      <contour>
        <pt x="131" y="603" on="1"/>
        <pt x="131" y="213" on="1"/>
        <pt x="103" y="213" on="1"/>
        <pt x="103" y="603" on="1"/>
        <pt x="19" y="603" on="1"/>
        <pt x="19" y="631" on="1"/>
        <pt x="103" y="631" on="1"/>
        <pt x="103" y="733" on="1"/>
        <pt x="131" y="733" on="1"/>
        <pt x="131" y="631" on="1"/>
        <pt x="215" y="631" on="1"/>
        <pt x="215" y="603" on="1"/>
      </contour>
    </TTGlyph>
    <TTGlyph name="daggerdbl" xMin="42" yMin="213" xMax="238" yMax="733">
      <contour>
        <pt x="154" y="345" on="1"/>
        <pt x="154" y="213" on="1"/>
        <pt x="126" y="213" on="1"/>
        <pt x="126" y="345" on="1"/>
        <pt x="42" y="345" on="1"/>
        <pt x="42" y="373" on="1"/>
        <pt x="126" y="373" on="1"/>
        <pt x="126" y="573" on="1"/>
        <pt x="42" y="573" on="1"/>
        <pt x="42" y="601" on="1"/>
        <pt x="126" y="601" on="1"/>
        <pt x="126" y="733" on="1"/>
        <pt x="154" y="733" on="1"/>
        <pt x="154" y="601" on="1"/>
        <pt x="238" y="601" on="1"/>
        <pt x="238" y="573" on="1"/>
        <pt x="154" y="573" on="1"/>
        <pt x="154" y="373" on="1"/>
        <pt x="238" y="373" on="1"/>
        <pt x="238" y="345" on="1"/>
      </contour>
    </TTGlyph>
    <TTGlyph name="dcaron" xMin="25" yMin="-7" xMax="338" yMax="736">
      <component glyphName="d" x="0" y="0" flags="0x204"/>
      <component glyphName="caron.alt" x="202" y="0" flags="0x4"/>
    </TTGlyph>
    <TTGlyph name="dcroat" xMin="25" yMin="-7" xMax="300" yMax="733">
      <contour>
        <pt x="227" y="0" on="1"/>
        <pt x="227" y="43" on="1"/>
        <pt x="210" y="23" on="0"/>
        <pt x="170" y="-7" on="0"/>
        <pt x="143" y="-7" on="1"/>
        <pt x="120" y="-7" on="0"/>
        <pt x="78" y="20" on="0"/>
        <pt x="45" y="74" on="0"/>
        <pt x="25" y="158" on="0"/>
        <pt x="25" y="215" on="1"/>
        <pt x="25" y="272" on="0"/>
        <pt x="45" y="359" on="0"/>
        <pt x="80" y="418" on="0"/>
        <pt x="125" y="448" on="0"/>
        <pt x="149" y="448" on="1"/>
        <pt x="172" y="448" on="0"/>
        <pt x="209" y="419" on="0"/>
        <pt x="226" y="398" on="1"/>
        <pt x="226" y="580" on="1"/>
        <pt x="131" y="580" on="1"/>
        <pt x="131" y="608" on="1"/>
        <pt x="226" y="608" on="1"/>
        <pt x="226" y="733" on="1"/>
        <pt x="256" y="733" on="1"/>
        <pt x="256" y="608" on="1"/>
        <pt x="300" y="608" on="1"/>
        <pt x="300" y="580" on="1"/>
        <pt x="256" y="580" on="1"/>
        <pt x="256" y="0" on="1"/>
      </contour>
      <contour>
        <pt x="226" y="365" on="1"/>
        <pt x="210" y="385" on="0"/>
        <pt x="173" y="420" on="0"/>
        <pt x="150" y="420" on="1"/>
        <pt x="111" y="420" on="0"/>
        <pt x="55" y="315" on="0"/>
        <pt x="55" y="216" on="1"/>
        <pt x="55" y="164" on="0"/>
        <pt x="71" y="90" on="0"/>
        <pt x="97" y="43" on="0"/>
        <pt x="130" y="21" on="0"/>
        <pt x="147" y="21" on="1"/>
        <pt x="170" y="21" on="0"/>
        <pt x="212" y="55" on="0"/>
        <pt x="226" y="74" on="1"/>
      </contour>
    </TTGlyph>
    <TTGlyph name="degree" xMin="35" yMin="487" xMax="265" yMax="729">
      <contour>
        <pt x="265" y="608" on="1"/>
        <pt x="265" y="584" on="0"/>
        <pt x="248" y="540" on="0"/>
        <pt x="218" y="507" on="0"/>
        <pt x="176" y="487" on="0"/>
        <pt x="150" y="487" on="1"/>
        <pt x="124" y="487" on="0"/>
        <pt x="82" y="507" on="0"/>
        <pt x="52" y="540" on="0"/>
        <pt x="35" y="584" on="0"/>
        <pt x="35" y="608" on="1"/>
        <pt x="35" y="633" on="0"/>
        <pt x="52" y="678" on="0"/>
        <pt x="83" y="710" on="0"/>
        <pt x="125" y="729" on="0"/>
        <pt x="150" y="729" on="1"/>
        <pt x="175" y="729" on="0"/>
        <pt x="217" y="710" on="0"/>
        <pt x="248" y="678" on="0"/>
        <pt x="265" y="633" on="0"/>
      </contour>
      <contour>
        <pt x="238" y="609" on="1"/>
        <pt x="238" y="651" on="0"/>
        <pt x="189" y="704" on="0"/>
        <pt x="149" y="704" on="1"/>
        <pt x="110" y="704" on="0"/>
        <pt x="62" y="651" on="0"/>
        <pt x="62" y="609" on="1"/>
        <pt x="62" y="568" on="0"/>
        <pt x="110" y="511" on="0"/>
        <pt x="149" y="511" on="1"/>
        <pt x="189" y="511" on="0"/>
        <pt x="238" y="568" on="0"/>
      </contour>
    </TTGlyph>
    <TTGlyph name="degree.lin" xMin="35" yMin="487" xMax="265" yMax="729">
      <contour>
        <pt x="265" y="608" on="1"/>
        <pt x="265" y="584" on="0"/>
        <pt x="248" y="540" on="0"/>
        <pt x="218" y="507" on="0"/>
        <pt x="176" y="487" on="0"/>
        <pt x="150" y="487" on="1"/>
        <pt x="124" y="487" on="0"/>
        <pt x="82" y="507" on="0"/>
        <pt x="52" y="540" on="0"/>
        <pt x="35" y="584" on="0"/>
        <pt x="35" y="608" on="1"/>
        <pt x="35" y="633" on="0"/>
        <pt x="52" y="678" on="0"/>
        <pt x="83" y="710" on="0"/>
        <pt x="125" y="729" on="0"/>
        <pt x="150" y="729" on="1"/>
        <pt x="175" y="729" on="0"/>
        <pt x="217" y="710" on="0"/>
        <pt x="248" y="678" on="0"/>
        <pt x="265" y="633" on="0"/>
      </contour>
      <contour>
        <pt x="238" y="609" on="1"/>
        <pt x="238" y="651" on="0"/>
        <pt x="189" y="704" on="0"/>
        <pt x="149" y="704" on="1"/>
        <pt x="110" y="704" on="0"/>
        <pt x="62" y="651" on="0"/>
        <pt x="62" y="609" on="1"/>
        <pt x="62" y="568" on="0"/>
        <pt x="110" y="511" on="0"/>
        <pt x="149" y="511" on="1"/>
        <pt x="189" y="511" on="0"/>
        <pt x="238" y="568" on="0"/>
      </contour>
    </TTGlyph>
    <TTGlyph name="dieresis" xMin="125" yMin="488" xMax="275" yMax="540">
      <contour>
        <pt x="275" y="514" on="1"/>
        <pt x="275" y="503" on="0"/>
        <pt x="261" y="488" on="0"/>
        <pt x="250" y="488" on="1"/>
        <pt x="239" y="488" on="0"/>
        <pt x="225" y="503" on="0"/>
        <pt x="225" y="514" on="1"/>
        <pt x="225" y="525" on="0"/>
        <pt x="239" y="540" on="0"/>
        <pt x="250" y="540" on="1"/>
        <pt x="261" y="540" on="0"/>
        <pt x="275" y="525" on="0"/>
      </contour>
      <contour>
        <pt x="175" y="514" on="1"/>
        <pt x="175" y="503" on="0"/>
        <pt x="161" y="488" on="0"/>
        <pt x="150" y="488" on="1"/>
        <pt x="139" y="488" on="0"/>
        <pt x="125" y="503" on="0"/>
        <pt x="125" y="514" on="1"/>
        <pt x="125" y="525" on="0"/>
        <pt x="139" y="540" on="0"/>
        <pt x="150" y="540" on="1"/>
        <pt x="161" y="540" on="0"/>
        <pt x="175" y="525" on="0"/>
      </contour>
    </TTGlyph>
    <TTGlyph name="divide" xMin="26" yMin="233" xMax="286" yMax="509">
      <contour>
        <pt x="26" y="385" on="1"/>
        <pt x="286" y="385" on="1"/>
        <pt x="286" y="357" on="1"/>
        <pt x="26" y="357" on="1"/>
      </contour>
      <contour>
        <pt x="131" y="483" on="1"/>
        <pt x="131" y="494" on="0"/>
        <pt x="145" y="509" on="0"/>
        <pt x="156" y="509" on="1"/>
        <pt x="167" y="509" on="0"/>
        <pt x="181" y="494" on="0"/>
        <pt x="181" y="483" on="1"/>
        <pt x="181" y="472" on="0"/>
        <pt x="167" y="457" on="0"/>
        <pt x="156" y="457" on="1"/>
        <pt x="145" y="457" on="0"/>
        <pt x="131" y="472" on="0"/>
      </contour>
      <contour>
        <pt x="131" y="259" on="1"/>
        <pt x="131" y="270" on="0"/>
        <pt x="145" y="285" on="0"/>
        <pt x="156" y="285" on="1"/>
        <pt x="167" y="285" on="0"/>
        <pt x="181" y="270" on="0"/>
        <pt x="181" y="259" on="1"/>
        <pt x="181" y="248" on="0"/>
        <pt x="167" y="233" on="0"/>
        <pt x="156" y="233" on="1"/>
        <pt x="145" y="233" on="0"/>
        <pt x="131" y="248" on="0"/>
      </contour>
    </TTGlyph>
    <TTGlyph name="divide.lin" xMin="26" yMin="233" xMax="286" yMax="509">
      <component glyphName="divide" x="0" y="0" flags="0x204"/>
    </TTGlyph>
    <TTGlyph name="dollar" xMin="6" yMin="-71" xMax="289" yMax="777">
      <contour>
        <pt x="228" y="773" on="1"/>
        <pt x="220" y="721" on="1"/>
        <pt x="261" y="706" on="0"/>
        <pt x="289" y="676" on="1"/>
        <pt x="271" y="653" on="1"/>
        <pt x="260" y="664" on="0"/>
        <pt x="232" y="684" on="0"/>
        <pt x="216" y="691" on="1"/>
        <pt x="170" y="380" on="1"/>
        <pt x="192" y="357" on="0"/>
        <pt x="234" y="311" on="0"/>
        <pt x="267" y="259" on="0"/>
        <pt x="288" y="197" on="0"/>
        <pt x="288" y="159" on="1"/>
        <pt x="288" y="121" on="0"/>
        <pt x="265" y="59" on="0"/>
        <pt x="226" y="15" on="0"/>
        <pt x="173" y="-8" on="0"/>
        <pt x="143" y="-8" on="1"/>
        <pt x="127" y="-8" on="0"/>
        <pt x="112" y="-5" on="1"/>
        <pt x="103" y="-71" on="1"/>
        <pt x="79" y="-67" on="1"/>
        <pt x="89" y="1" on="1"/>
        <pt x="64" y="9" on="0"/>
        <pt x="23" y="39" on="0"/>
        <pt x="6" y="56" on="1"/>
        <pt x="24" y="80" on="1"/>
        <pt x="38" y="65" on="0"/>
        <pt x="74" y="38" on="0"/>
        <pt x="93" y="30" on="1"/>
        <pt x="143" y="365" on="1"/>
        <pt x="123" y="386" on="0"/>
        <pt x="84" y="431" on="0"/>
        <pt x="54" y="481" on="0"/>
        <pt x="36" y="539" on="0"/>
        <pt x="36" y="575" on="1"/>
        <pt x="36" y="608" on="0"/>
        <pt x="57" y="665" on="0"/>
        <pt x="94" y="706" on="0"/>
        <pt x="144" y="729" on="0"/>
        <pt x="173" y="729" on="1"/>
        <pt x="179" y="729" on="0"/>
        <pt x="191" y="728" on="0"/>
        <pt x="196" y="727" on="1"/>
        <pt x="204" y="777" on="1"/>
      </contour>
      <contour>
        <pt x="258" y="156" on="1"/>
        <pt x="258" y="186" on="0"/>
        <pt x="242" y="237" on="0"/>
        <pt x="216" y="282" on="0"/>
        <pt x="182" y="323" on="0"/>
        <pt x="164" y="343" on="1"/>
        <pt x="116" y="22" on="1"/>
        <pt x="129" y="19" on="0"/>
        <pt x="143" y="19" on="1"/>
        <pt x="166" y="19" on="0"/>
        <pt x="208" y="38" on="0"/>
        <pt x="239" y="73" on="0"/>
        <pt x="258" y="124" on="0"/>
      </contour>
      <contour>
        <pt x="65" y="578" on="1"/>
        <pt x="65" y="521" on="0"/>
        <pt x="115" y="438" on="0"/>
        <pt x="148" y="403" on="1"/>
        <pt x="192" y="699" on="1"/>
        <pt x="187" y="700" on="0"/>
        <pt x="177" y="701" on="0"/>
        <pt x="172" y="701" on="1"/>
        <pt x="124" y="701" on="0"/>
        <pt x="65" y="631" on="0"/>
      </contour>
    </TTGlyph>
    <TTGlyph name="dollar.lin" xMin="6" yMin="-71" xMax="289" yMax="777">
      <contour>
        <pt x="228" y="773" on="1"/>
        <pt x="220" y="721" on="1"/>
        <pt x="261" y="706" on="0"/>
        <pt x="289" y="676" on="1"/>
        <pt x="271" y="653" on="1"/>
        <pt x="260" y="664" on="0"/>
        <pt x="232" y="684" on="0"/>
        <pt x="216" y="691" on="1"/>
        <pt x="170" y="380" on="1"/>
        <pt x="192" y="357" on="0"/>
        <pt x="234" y="311" on="0"/>
        <pt x="267" y="259" on="0"/>
        <pt x="288" y="197" on="0"/>
        <pt x="288" y="159" on="1"/>
        <pt x="288" y="121" on="0"/>
        <pt x="265" y="59" on="0"/>
        <pt x="226" y="15" on="0"/>
        <pt x="173" y="-8" on="0"/>
        <pt x="143" y="-8" on="1"/>
        <pt x="127" y="-8" on="0"/>
        <pt x="112" y="-5" on="1"/>
        <pt x="103" y="-71" on="1"/>
        <pt x="79" y="-67" on="1"/>
        <pt x="89" y="1" on="1"/>
        <pt x="64" y="9" on="0"/>
        <pt x="23" y="39" on="0"/>
        <pt x="6" y="56" on="1"/>
        <pt x="24" y="80" on="1"/>
        <pt x="38" y="65" on="0"/>
        <pt x="74" y="38" on="0"/>
        <pt x="93" y="30" on="1"/>
        <pt x="143" y="365" on="1"/>
        <pt x="123" y="386" on="0"/>
        <pt x="84" y="431" on="0"/>
        <pt x="54" y="481" on="0"/>
        <pt x="36" y="539" on="0"/>
        <pt x="36" y="575" on="1"/>
        <pt x="36" y="608" on="0"/>
        <pt x="57" y="665" on="0"/>
        <pt x="94" y="706" on="0"/>
        <pt x="144" y="729" on="0"/>
        <pt x="173" y="729" on="1"/>
        <pt x="179" y="729" on="0"/>
        <pt x="191" y="728" on="0"/>
        <pt x="196" y="727" on="1"/>
        <pt x="204" y="777" on="1"/>
      </contour>
      <contour>
        <pt x="258" y="156" on="1"/>
        <pt x="258" y="186" on="0"/>
        <pt x="242" y="237" on="0"/>
        <pt x="216" y="282" on="0"/>
        <pt x="182" y="323" on="0"/>
        <pt x="164" y="343" on="1"/>
        <pt x="116" y="22" on="1"/>
        <pt x="129" y="19" on="0"/>
        <pt x="143" y="19" on="1"/>
        <pt x="166" y="19" on="0"/>
        <pt x="208" y="38" on="0"/>
        <pt x="239" y="73" on="0"/>
        <pt x="258" y="124" on="0"/>
      </contour>
      <contour>
        <pt x="65" y="578" on="1"/>
        <pt x="65" y="521" on="0"/>
        <pt x="115" y="438" on="0"/>
        <pt x="148" y="403" on="1"/>
        <pt x="192" y="699" on="1"/>
        <pt x="187" y="700" on="0"/>
        <pt x="177" y="701" on="0"/>
        <pt x="172" y="701" on="1"/>
        <pt x="124" y="701" on="0"/>
        <pt x="65" y="631" on="0"/>
      </contour>
    </TTGlyph>
    <TTGlyph name="dotaccent" xMin="175" yMin="488" xMax="225" yMax="540">
      <contour>
        <pt x="175" y="514" on="1"/>
        <pt x="175" y="525" on="0"/>
        <pt x="189" y="540" on="0"/>
        <pt x="200" y="540" on="1"/>
        <pt x="211" y="540" on="0"/>
        <pt x="225" y="525" on="0"/>
        <pt x="225" y="514" on="1"/>
        <pt x="225" y="503" on="0"/>
        <pt x="211" y="488" on="0"/>
        <pt x="200" y="488" on="1"/>
        <pt x="189" y="488" on="0"/>
        <pt x="175" y="503" on="0"/>
      </contour>
    </TTGlyph>
    <TTGlyph name="dotlessi" xMin="50" yMin="0" xMax="80" yMax="441">
      <contour>
        <pt x="50" y="0" on="1"/>
        <pt x="50" y="441" on="1"/>
        <pt x="80" y="441" on="1"/>
        <pt x="80" y="0" on="1"/>
      </contour>
    </TTGlyph>
    <TTGlyph name="e" xMin="25" yMin="-8" xMax="245" yMax="451">
      <contour>
        <pt x="245" y="241" on="1"/>
        <pt x="245" y="232" on="0"/>
        <pt x="245" y="215" on="0"/>
        <pt x="244" y="210" on="1"/>
        <pt x="56" y="210" on="1"/>
        <pt x="57" y="119" on="0"/>
        <pt x="106" y="19" on="0"/>
        <pt x="154" y="19" on="1"/>
        <pt x="174" y="19" on="0"/>
        <pt x="206" y="33" on="0"/>
        <pt x="222" y="46" on="1"/>
        <pt x="236" y="24" on="1"/>
        <pt x="222" y="13" on="0"/>
        <pt x="179" y="-8" on="0"/>
        <pt x="152" y="-8" on="1"/>
        <pt x="92" y="-8" on="0"/>
        <pt x="25" y="108" on="0"/>
        <pt x="25" y="220" on="1"/>
        <pt x="25" y="329" on="0"/>
        <pt x="90" y="451" on="0"/>
        <pt x="140" y="451" on="1"/>
        <pt x="165" y="451" on="0"/>
        <pt x="204" y="421" on="0"/>
        <pt x="231" y="365" on="0"/>
        <pt x="245" y="288" on="0"/>
      </contour>
      <contour>
        <pt x="215" y="236" on="1"/>
        <pt x="215" y="276" on="0"/>
        <pt x="205" y="345" on="0"/>
        <pt x="186" y="395" on="0"/>
        <pt x="158" y="424" on="0"/>
        <pt x="139" y="424" on="1"/>
        <pt x="105" y="424" on="0"/>
        <pt x="58" y="324" on="0"/>
        <pt x="56" y="236" on="1"/>
      </contour>
    </TTGlyph>
    <TTGlyph name="eacute" xMin="25" yMin="-8" xMax="245" yMax="590">
      <component glyphName="e" x="0" y="0" flags="0x204"/>
      <component glyphName="acute" x="-17" y="0" flags="0x4"/>
    </TTGlyph>
    <TTGlyph name="ebreve" xMin="25" yMin="-8" xMax="245" yMax="578">
      <component glyphName="e" x="0" y="0" flags="0x204"/>
      <component glyphName="breve" x="-60" y="0" flags="0x4"/>
    </TTGlyph>
    <TTGlyph name="ecaron" xMin="25" yMin="-8" xMax="245" yMax="574">
      <component glyphName="e" x="0" y="0" flags="0x204"/>
      <component glyphName="caron" x="-62" y="0" flags="0x4"/>
    </TTGlyph>
    <TTGlyph name="ecircumflex" xMin="25" yMin="-8" xMax="245" yMax="574">
      <component glyphName="e" x="0" y="0" flags="0x204"/>
      <component glyphName="circumflex" x="-62" y="0" flags="0x4"/>
    </TTGlyph>
    <TTGlyph name="edieresis" xMin="25" yMin="-8" xMax="245" yMax="540">
      <component glyphName="e" x="0" y="0" flags="0x204"/>
      <component glyphName="dieresis" x="-60" y="0" flags="0x4"/>
    </TTGlyph>
    <TTGlyph name="edotaccent" xMin="25" yMin="-8" xMax="245" yMax="540">
      <component glyphName="e" x="0" y="0" flags="0x204"/>
      <component glyphName="dotaccent" x="-60" y="0" flags="0x4"/>
    </TTGlyph>
    <TTGlyph name="egrave" xMin="25" yMin="-8" xMax="245" yMax="590">
      <component glyphName="e" x="0" y="0" flags="0x204"/>
      <component glyphName="grave" x="-100" y="0" flags="0x4"/>
    </TTGlyph>
    <TTGlyph name="eight" xMin="29" yMin="-8" xMax="283" yMax="729">
      <contour>
        <pt x="283" y="184" on="1"/>
        <pt x="283" y="140" on="0"/>
        <pt x="262" y="69" on="0"/>
        <pt x="227" y="19" on="0"/>
        <pt x="181" y="-8" on="0"/>
        <pt x="156" y="-8" on="1"/>
        <pt x="130" y="-8" on="0"/>
        <pt x="84" y="18" on="0"/>
        <pt x="49" y="67" on="0"/>
        <pt x="29" y="138" on="0"/>
        <pt x="29" y="182" on="1"/>
        <pt x="29" y="209" on="0"/>
        <pt x="38" y="265" on="0"/>
        <pt x="58" y="316" on="0"/>
        <pt x="89" y="356" on="0"/>
        <pt x="111" y="367" on="1"/>
        <pt x="75" y="389" on="0"/>
        <pt x="36" y="488" on="0"/>
        <pt x="36" y="546" on="1"/>
        <pt x="36" y="588" on="0"/>
        <pt x="54" y="655" on="0"/>
        <pt x="87" y="703" on="0"/>
        <pt x="130" y="729" on="0"/>
        <pt x="156" y="729" on="1"/>
        <pt x="182" y="729" on="0"/>
        <pt x="226" y="703" on="0"/>
        <pt x="258" y="655" on="0"/>
        <pt x="276" y="588" on="0"/>
        <pt x="276" y="546" on="1"/>
        <pt x="276" y="488" on="0"/>
        <pt x="237" y="390" on="0"/>
        <pt x="201" y="367" on="1"/>
        <pt x="223" y="356" on="0"/>
        <pt x="254" y="316" on="0"/>
        <pt x="274" y="266" on="0"/>
        <pt x="283" y="210" on="0"/>
      </contour>
      <contour>
        <pt x="246" y="545" on="1"/>
        <pt x="246" y="615" on="0"/>
        <pt x="196" y="702" on="0"/>
        <pt x="155" y="702" on="1"/>
        <pt x="114" y="702" on="0"/>
        <pt x="66" y="615" on="0"/>
        <pt x="66" y="545" on="1"/>
        <pt x="66" y="511" on="0"/>
        <pt x="78" y="451" on="0"/>
        <pt x="102" y="406" on="0"/>
        <pt x="135" y="380" on="0"/>
        <pt x="156" y="380" on="1"/>
        <pt x="177" y="380" on="0"/>
        <pt x="210" y="406" on="0"/>
        <pt x="234" y="451" on="0"/>
        <pt x="246" y="511" on="0"/>
      </contour>
      <contour>
        <pt x="253" y="183" on="1"/>
        <pt x="253" y="216" on="0"/>
        <pt x="240" y="277" on="0"/>
        <pt x="216" y="324" on="0"/>
        <pt x="180" y="353" on="0"/>
        <pt x="156" y="353" on="1"/>
        <pt x="133" y="353" on="0"/>
        <pt x="97" y="324" on="0"/>
        <pt x="72" y="277" on="0"/>
        <pt x="59" y="216" on="0"/>
        <pt x="59" y="183" on="1"/>
        <pt x="59" y="148" on="0"/>
        <pt x="74" y="88" on="0"/>
        <pt x="99" y="44" on="0"/>
        <pt x="135" y="19" on="0"/>
        <pt x="156" y="19" on="1"/>
        <pt x="177" y="19" on="0"/>
        <pt x="212" y="45" on="0"/>
        <pt x="238" y="89" on="0"/>
        <pt x="253" y="149" on="0"/>
      </contour>
    </TTGlyph>
    <TTGlyph name="eight.lin" xMin="29" yMin="-8" xMax="283" yMax="729">
      <contour>
        <pt x="283" y="184" on="1"/>
        <pt x="283" y="140" on="0"/>
        <pt x="262" y="69" on="0"/>
        <pt x="227" y="19" on="0"/>
        <pt x="181" y="-8" on="0"/>
        <pt x="156" y="-8" on="1"/>
        <pt x="130" y="-8" on="0"/>
        <pt x="84" y="18" on="0"/>
        <pt x="49" y="67" on="0"/>
        <pt x="29" y="138" on="0"/>
        <pt x="29" y="182" on="1"/>
        <pt x="29" y="209" on="0"/>
        <pt x="38" y="265" on="0"/>
        <pt x="58" y="316" on="0"/>
        <pt x="89" y="356" on="0"/>
        <pt x="111" y="367" on="1"/>
        <pt x="75" y="389" on="0"/>
        <pt x="36" y="488" on="0"/>
        <pt x="36" y="546" on="1"/>
        <pt x="36" y="588" on="0"/>
        <pt x="54" y="655" on="0"/>
        <pt x="87" y="703" on="0"/>
        <pt x="130" y="729" on="0"/>
        <pt x="156" y="729" on="1"/>
        <pt x="182" y="729" on="0"/>
        <pt x="226" y="703" on="0"/>
        <pt x="258" y="655" on="0"/>
        <pt x="276" y="588" on="0"/>
        <pt x="276" y="546" on="1"/>
        <pt x="276" y="488" on="0"/>
        <pt x="237" y="390" on="0"/>
        <pt x="201" y="367" on="1"/>
        <pt x="223" y="356" on="0"/>
        <pt x="254" y="316" on="0"/>
        <pt x="274" y="266" on="0"/>
        <pt x="283" y="210" on="0"/>
      </contour>
      <contour>
        <pt x="246" y="545" on="1"/>
        <pt x="246" y="615" on="0"/>
        <pt x="196" y="702" on="0"/>
        <pt x="155" y="702" on="1"/>
        <pt x="114" y="702" on="0"/>
        <pt x="66" y="615" on="0"/>
        <pt x="66" y="545" on="1"/>
        <pt x="66" y="511" on="0"/>
        <pt x="78" y="451" on="0"/>
        <pt x="102" y="406" on="0"/>
        <pt x="135" y="380" on="0"/>
        <pt x="156" y="380" on="1"/>
        <pt x="177" y="380" on="0"/>
        <pt x="210" y="406" on="0"/>
        <pt x="234" y="451" on="0"/>
        <pt x="246" y="511" on="0"/>
      </contour>
      <contour>
        <pt x="253" y="183" on="1"/>
        <pt x="253" y="216" on="0"/>
        <pt x="240" y="277" on="0"/>
        <pt x="216" y="324" on="0"/>
        <pt x="180" y="353" on="0"/>
        <pt x="156" y="353" on="1"/>
        <pt x="133" y="353" on="0"/>
        <pt x="97" y="324" on="0"/>
        <pt x="72" y="277" on="0"/>
        <pt x="59" y="216" on="0"/>
        <pt x="59" y="183" on="1"/>
        <pt x="59" y="148" on="0"/>
        <pt x="74" y="88" on="0"/>
        <pt x="99" y="44" on="0"/>
        <pt x="135" y="19" on="0"/>
        <pt x="156" y="19" on="1"/>
        <pt x="177" y="19" on="0"/>
        <pt x="212" y="45" on="0"/>
        <pt x="238" y="89" on="0"/>
        <pt x="253" y="149" on="0"/>
      </contour>
    </TTGlyph>
    <TTGlyph name="ellipsis" xMin="36" yMin="-8" xMax="356" yMax="50">
      <contour>
        <pt x="36" y="21" on="1"/>
        <pt x="36" y="32" on="0"/>
        <pt x="53" y="50" on="0"/>
        <pt x="64" y="50" on="1"/>
        <pt x="75" y="50" on="0"/>
        <pt x="92" y="32" on="0"/>
        <pt x="92" y="21" on="1"/>
        <pt x="92" y="10" on="0"/>
        <pt x="75" y="-8" on="0"/>
        <pt x="64" y="-8" on="1"/>
        <pt x="53" y="-8" on="0"/>
        <pt x="36" y="10" on="0"/>
      </contour>
      <contour>
        <pt x="168" y="21" on="1"/>
        <pt x="168" y="32" on="0"/>
        <pt x="185" y="50" on="0"/>
        <pt x="196" y="50" on="1"/>
        <pt x="207" y="50" on="0"/>
        <pt x="224" y="32" on="0"/>
        <pt x="224" y="21" on="1"/>
        <pt x="224" y="10" on="0"/>
        <pt x="207" y="-8" on="0"/>
        <pt x="196" y="-8" on="1"/>
        <pt x="185" y="-8" on="0"/>
        <pt x="168" y="10" on="0"/>
      </contour>
      <contour>
        <pt x="300" y="21" on="1"/>
        <pt x="300" y="32" on="0"/>
        <pt x="317" y="50" on="0"/>
        <pt x="328" y="50" on="1"/>
        <pt x="339" y="50" on="0"/>
        <pt x="356" y="32" on="0"/>
        <pt x="356" y="21" on="1"/>
        <pt x="356" y="10" on="0"/>
        <pt x="339" y="-8" on="0"/>
        <pt x="328" y="-8" on="1"/>
        <pt x="317" y="-8" on="0"/>
        <pt x="300" y="10" on="0"/>
      </contour>
    </TTGlyph>
    <TTGlyph name="emacron" xMin="25" yMin="-8" xMax="245" yMax="525">
      <component glyphName="e" x="0" y="0" flags="0x204"/>
      <component glyphName="macron" x="-60" y="0" flags="0x4"/>
    </TTGlyph>
    <TTGlyph name="emdash" xMin="36" yMin="254" xMax="387" yMax="282">
      <contour>
        <pt x="36" y="254" on="1"/>
        <pt x="36" y="282" on="1"/>
        <pt x="387" y="282" on="1"/>
        <pt x="387" y="254" on="1"/>
      </contour>
    </TTGlyph>
    <TTGlyph name="emdash.cap" xMin="36" yMin="357" xMax="387" yMax="385">
      <component glyphName="emdash" x="0" y="103" flags="0x204"/>
    </TTGlyph>
    <TTGlyph name="endash" xMin="36" yMin="254" xMax="252" yMax="282">
      <contour>
        <pt x="36" y="254" on="1"/>
        <pt x="36" y="282" on="1"/>
        <pt x="252" y="282" on="1"/>
        <pt x="252" y="254" on="1"/>
      </contour>
    </TTGlyph>
    <TTGlyph name="endash.cap" xMin="36" yMin="357" xMax="252" yMax="385">
      <component glyphName="endash" x="0" y="103" flags="0x204"/>
    </TTGlyph>
    <TTGlyph name="eogonek" xMin="25" yMin="-188" xMax="245" yMax="451">
      <contour>
        <pt x="245" y="241" on="1"/>
        <pt x="245" y="232" on="0"/>
        <pt x="245" y="215" on="0"/>
        <pt x="244" y="210" on="1"/>
        <pt x="56" y="210" on="1"/>
        <pt x="57" y="119" on="0"/>
        <pt x="106" y="19" on="0"/>
        <pt x="154" y="19" on="1"/>
        <pt x="174" y="19" on="0"/>
        <pt x="206" y="33" on="0"/>
        <pt x="222" y="46" on="1"/>
        <pt x="236" y="24" on="1"/>
        <pt x="201" y="-14" on="0"/>
        <pt x="164" y="-90" on="0"/>
        <pt x="164" y="-123" on="1"/>
        <pt x="164" y="-141" on="0"/>
        <pt x="179" y="-163" on="0"/>
        <pt x="192" y="-163" on="1"/>
        <pt x="210" y="-163" on="0"/>
        <pt x="223" y="-149" on="1"/>
        <pt x="235" y="-167" on="1"/>
        <pt x="217" y="-188" on="0"/>
        <pt x="190" y="-188" on="1"/>
        <pt x="165" y="-188" on="0"/>
        <pt x="137" y="-153" on="0"/>
        <pt x="137" y="-124" on="1"/>
        <pt x="137" y="-98" on="0"/>
        <pt x="161" y="-33" on="0"/>
        <pt x="184" y="-3" on="1"/>
        <pt x="167" y="-8" on="0"/>
        <pt x="152" y="-8" on="1"/>
        <pt x="92" y="-8" on="0"/>
        <pt x="25" y="108" on="0"/>
        <pt x="25" y="220" on="1"/>
        <pt x="25" y="329" on="0"/>
        <pt x="90" y="451" on="0"/>
        <pt x="140" y="451" on="1"/>
        <pt x="165" y="451" on="0"/>
        <pt x="204" y="421" on="0"/>
        <pt x="231" y="365" on="0"/>
        <pt x="245" y="288" on="0"/>
      </contour>
      <contour>
        <pt x="215" y="236" on="1"/>
        <pt x="215" y="276" on="0"/>
        <pt x="205" y="345" on="0"/>
        <pt x="186" y="395" on="0"/>
        <pt x="158" y="424" on="0"/>
        <pt x="139" y="424" on="1"/>
        <pt x="105" y="424" on="0"/>
        <pt x="58" y="324" on="0"/>
        <pt x="56" y="236" on="1"/>
      </contour>
    </TTGlyph>
    <TTGlyph name="equal" xMin="33" yMin="306" xMax="200" yMax="436">
      <contour>
        <pt x="33" y="408" on="1"/>
        <pt x="33" y="436" on="1"/>
        <pt x="200" y="436" on="1"/>
        <pt x="200" y="408" on="1"/>
      </contour>
      <contour>
        <pt x="33" y="306" on="1"/>
        <pt x="33" y="334" on="1"/>
        <pt x="200" y="334" on="1"/>
        <pt x="200" y="306" on="1"/>
      </contour>
    </TTGlyph>
    <TTGlyph name="equal.lin" xMin="33" yMin="306" xMax="200" yMax="436">
      <component glyphName="equal" x="0" y="0" flags="0x204"/>
    </TTGlyph>
    <TTGlyph name="eth" xMin="25" yMin="-10" xMax="269" yMax="733">
      <contour>
        <pt x="52" y="605" on="1"/>
        <pt x="112" y="656" on="1"/>
        <pt x="100" y="671" on="0"/>
        <pt x="74" y="699" on="0"/>
        <pt x="60" y="713" on="1"/>
        <pt x="79" y="733" on="1"/>
        <pt x="93" y="719" on="0"/>
        <pt x="119" y="689" on="0"/>
        <pt x="132" y="673" on="1"/>
        <pt x="189" y="721" on="1"/>
        <pt x="206" y="701" on="1"/>
        <pt x="149" y="653" on="1"/>
        <pt x="176" y="616" on="0"/>
        <pt x="221" y="531" on="0"/>
        <pt x="252" y="429" on="0"/>
        <pt x="269" y="306" on="0"/>
        <pt x="269" y="231" on="1"/>
        <pt x="269" y="176" on="0"/>
        <pt x="252" y="87" on="0"/>
        <pt x="220" y="24" on="0"/>
        <pt x="175" y="-10" on="0"/>
        <pt x="147" y="-10" on="1"/>
        <pt x="90" y="-10" on="0"/>
        <pt x="25" y="110" on="0"/>
        <pt x="25" y="218" on="1"/>
        <pt x="25" y="270" on="0"/>
        <pt x="41" y="356" on="0"/>
        <pt x="71" y="417" on="0"/>
        <pt x="113" y="450" on="0"/>
        <pt x="138" y="450" on="1"/>
        <pt x="170" y="450" on="0"/>
        <pt x="220" y="399" on="0"/>
        <pt x="235" y="357" on="1"/>
        <pt x="222" y="447" on="0"/>
        <pt x="166" y="581" on="0"/>
        <pt x="127" y="635" on="1"/>
        <pt x="69" y="586" on="1"/>
      </contour>
      <contour>
        <pt x="239" y="220" on="1"/>
        <pt x="239" y="262" on="0"/>
        <pt x="223" y="336" on="0"/>
        <pt x="196" y="391" on="0"/>
        <pt x="160" y="423" on="0"/>
        <pt x="140" y="423" on="1"/>
        <pt x="120" y="423" on="0"/>
        <pt x="89" y="390" on="0"/>
        <pt x="67" y="333" on="0"/>
        <pt x="55" y="259" on="0"/>
        <pt x="55" y="219" on="1"/>
        <pt x="55" y="176" on="0"/>
        <pt x="68" y="102" on="0"/>
        <pt x="92" y="48" on="0"/>
        <pt x="126" y="17" on="0"/>
        <pt x="147" y="17" on="1"/>
        <pt x="169" y="17" on="0"/>
        <pt x="203" y="50" on="0"/>
        <pt x="227" y="106" on="0"/>
        <pt x="239" y="179" on="0"/>
      </contour>
    </TTGlyph>
    <TTGlyph name="exclam" xMin="36" yMin="-8" xMax="92" yMax="733">
      <contour>
        <pt x="76" y="182" on="1"/>
        <pt x="52" y="182" on="1"/>
        <pt x="48" y="733" on="1"/>
        <pt x="80" y="733" on="1"/>
      </contour>
      <contour>
        <pt x="92" y="21" on="1"/>
        <pt x="92" y="10" on="0"/>
        <pt x="75" y="-8" on="0"/>
        <pt x="64" y="-8" on="1"/>
        <pt x="53" y="-8" on="0"/>
        <pt x="36" y="10" on="0"/>
        <pt x="36" y="21" on="1"/>
        <pt x="36" y="32" on="0"/>
        <pt x="53" y="50" on="0"/>
        <pt x="64" y="50" on="1"/>
        <pt x="75" y="50" on="0"/>
        <pt x="92" y="32" on="0"/>
      </contour>
    </TTGlyph>
    <TTGlyph name="exclamdown" xMin="36" yMin="0" xMax="92" yMax="741">
      <contour>
        <pt x="36" y="712" on="1"/>
        <pt x="36" y="723" on="0"/>
        <pt x="53" y="741" on="0"/>
        <pt x="64" y="741" on="1"/>
        <pt x="75" y="741" on="0"/>
        <pt x="92" y="723" on="0"/>
        <pt x="92" y="712" on="1"/>
        <pt x="92" y="701" on="0"/>
        <pt x="75" y="683" on="0"/>
        <pt x="64" y="683" on="1"/>
        <pt x="53" y="683" on="0"/>
        <pt x="36" y="701" on="0"/>
      </contour>
      <contour>
        <pt x="52" y="551" on="1"/>
        <pt x="76" y="551" on="1"/>
        <pt x="80" y="0" on="1"/>
        <pt x="48" y="0" on="1"/>
      </contour>
    </TTGlyph>
    <TTGlyph name="f" xMin="4" yMin="0" xMax="195" yMax="740">
      <contour>
        <pt x="189" y="704" on="1"/>
        <pt x="181" y="707" on="0"/>
        <pt x="156" y="712" on="0"/>
        <pt x="146" y="712" on="1"/>
        <pt x="121" y="712" on="0"/>
        <pt x="91" y="672" on="0"/>
        <pt x="91" y="624" on="1"/>
        <pt x="91" y="441" on="1"/>
        <pt x="166" y="441" on="1"/>
        <pt x="166" y="413" on="1"/>
        <pt x="91" y="413" on="1"/>
        <pt x="91" y="0" on="1"/>
        <pt x="61" y="0" on="1"/>
        <pt x="61" y="412" on="1"/>
        <pt x="4" y="412" on="1"/>
        <pt x="4" y="427" on="1"/>
        <pt x="61" y="441" on="1"/>
        <pt x="61" y="625" on="1"/>
        <pt x="61" y="657" on="0"/>
        <pt x="75" y="701" on="0"/>
        <pt x="98" y="728" on="0"/>
        <pt x="128" y="740" on="0"/>
        <pt x="145" y="740" on="1"/>
        <pt x="160" y="740" on="0"/>
        <pt x="187" y="734" on="0"/>
        <pt x="195" y="732" on="1"/>
      </contour>
    </TTGlyph>
    <TTGlyph name="f_f" xMin="4" yMin="0" xMax="369" yMax="740">
      <contour>
        <pt x="189" y="704" on="1"/>
        <pt x="181" y="707" on="0"/>
        <pt x="156" y="712" on="0"/>
        <pt x="146" y="712" on="1"/>
        <pt x="121" y="712" on="0"/>
        <pt x="91" y="672" on="0"/>
        <pt x="91" y="624" on="1"/>
        <pt x="91" y="441" on="1"/>
        <pt x="166" y="441" on="1"/>
        <pt x="166" y="413" on="1"/>
        <pt x="91" y="413" on="1"/>
        <pt x="91" y="0" on="1"/>
        <pt x="61" y="0" on="1"/>
        <pt x="61" y="412" on="1"/>
        <pt x="4" y="412" on="1"/>
        <pt x="4" y="427" on="1"/>
        <pt x="61" y="441" on="1"/>
        <pt x="61" y="625" on="1"/>
        <pt x="61" y="657" on="0"/>
        <pt x="75" y="701" on="0"/>
        <pt x="98" y="728" on="0"/>
        <pt x="128" y="740" on="0"/>
        <pt x="145" y="740" on="1"/>
        <pt x="160" y="740" on="0"/>
        <pt x="187" y="734" on="0"/>
        <pt x="195" y="732" on="1"/>
      </contour>
      <contour>
        <pt x="363" y="704" on="1"/>
        <pt x="355" y="707" on="0"/>
        <pt x="330" y="712" on="0"/>
        <pt x="320" y="712" on="1"/>
        <pt x="295" y="712" on="0"/>
        <pt x="265" y="672" on="0"/>
        <pt x="265" y="624" on="1"/>
        <pt x="265" y="441" on="1"/>
        <pt x="340" y="441" on="1"/>
        <pt x="340" y="413" on="1"/>
        <pt x="265" y="413" on="1"/>
        <pt x="265" y="0" on="1"/>
        <pt x="235" y="0" on="1"/>
        <pt x="235" y="412" on="1"/>
        <pt x="178" y="412" on="1"/>
        <pt x="178" y="427" on="1"/>
        <pt x="235" y="441" on="1"/>
        <pt x="235" y="625" on="1"/>
        <pt x="235" y="657" on="0"/>
        <pt x="249" y="701" on="0"/>
        <pt x="272" y="728" on="0"/>
        <pt x="302" y="740" on="0"/>
        <pt x="319" y="740" on="1"/>
        <pt x="334" y="740" on="0"/>
        <pt x="361" y="734" on="0"/>
        <pt x="369" y="732" on="1"/>
      </contour>
    </TTGlyph>
    <TTGlyph name="f_f_i" xMin="4" yMin="0" xMax="438" yMax="740">
      <contour>
        <pt x="189" y="704" on="1"/>
        <pt x="181" y="707" on="0"/>
        <pt x="156" y="712" on="0"/>
        <pt x="146" y="712" on="1"/>
        <pt x="121" y="712" on="0"/>
        <pt x="91" y="672" on="0"/>
        <pt x="91" y="624" on="1"/>
        <pt x="91" y="441" on="1"/>
        <pt x="166" y="441" on="1"/>
        <pt x="166" y="413" on="1"/>
        <pt x="91" y="413" on="1"/>
        <pt x="91" y="0" on="1"/>
        <pt x="61" y="0" on="1"/>
        <pt x="61" y="412" on="1"/>
        <pt x="4" y="412" on="1"/>
        <pt x="4" y="427" on="1"/>
        <pt x="61" y="441" on="1"/>
        <pt x="61" y="625" on="1"/>
        <pt x="61" y="657" on="0"/>
        <pt x="75" y="701" on="0"/>
        <pt x="98" y="728" on="0"/>
        <pt x="128" y="740" on="0"/>
        <pt x="145" y="740" on="1"/>
        <pt x="160" y="740" on="0"/>
        <pt x="187" y="734" on="0"/>
        <pt x="195" y="732" on="1"/>
      </contour>
      <contour>
        <pt x="363" y="704" on="1"/>
        <pt x="355" y="707" on="0"/>
        <pt x="330" y="712" on="0"/>
        <pt x="320" y="712" on="1"/>
        <pt x="295" y="712" on="0"/>
        <pt x="265" y="672" on="0"/>
        <pt x="265" y="624" on="1"/>
        <pt x="265" y="441" on="1"/>
        <pt x="340" y="441" on="1"/>
        <pt x="340" y="413" on="1"/>
        <pt x="265" y="413" on="1"/>
        <pt x="265" y="0" on="1"/>
        <pt x="235" y="0" on="1"/>
        <pt x="235" y="412" on="1"/>
        <pt x="178" y="412" on="1"/>
        <pt x="178" y="427" on="1"/>
        <pt x="235" y="441" on="1"/>
        <pt x="235" y="625" on="1"/>
        <pt x="235" y="657" on="0"/>
        <pt x="249" y="701" on="0"/>
        <pt x="272" y="728" on="0"/>
        <pt x="302" y="740" on="0"/>
        <pt x="319" y="740" on="1"/>
        <pt x="334" y="740" on="0"/>
        <pt x="361" y="734" on="0"/>
        <pt x="369" y="732" on="1"/>
      </contour>
      <contour>
        <pt x="438" y="584" on="1"/>
        <pt x="438" y="573" on="0"/>
        <pt x="424" y="558" on="0"/>
        <pt x="413" y="558" on="1"/>
        <pt x="402" y="558" on="0"/>
        <pt x="388" y="573" on="0"/>
        <pt x="388" y="584" on="1"/>
        <pt x="388" y="595" on="0"/>
        <pt x="402" y="610" on="0"/>
        <pt x="413" y="610" on="1"/>
        <pt x="424" y="610" on="0"/>
        <pt x="438" y="595" on="0"/>
      </contour>
      <contour>
        <pt x="398" y="0" on="1"/>
        <pt x="398" y="441" on="1"/>
        <pt x="428" y="441" on="1"/>
        <pt x="428" y="0" on="1"/>
      </contour>
    </TTGlyph>
    <TTGlyph name="f_f_l" xMin="4" yMin="0" xMax="428" yMax="740">
      <contour>
        <pt x="189" y="704" on="1"/>
        <pt x="181" y="707" on="0"/>
        <pt x="156" y="712" on="0"/>
        <pt x="146" y="712" on="1"/>
        <pt x="121" y="712" on="0"/>
        <pt x="91" y="672" on="0"/>
        <pt x="91" y="624" on="1"/>
        <pt x="91" y="441" on="1"/>
        <pt x="166" y="441" on="1"/>
        <pt x="166" y="413" on="1"/>
        <pt x="91" y="413" on="1"/>
        <pt x="91" y="0" on="1"/>
        <pt x="61" y="0" on="1"/>
        <pt x="61" y="412" on="1"/>
        <pt x="4" y="412" on="1"/>
        <pt x="4" y="427" on="1"/>
        <pt x="61" y="441" on="1"/>
        <pt x="61" y="625" on="1"/>
        <pt x="61" y="657" on="0"/>
        <pt x="75" y="701" on="0"/>
        <pt x="98" y="728" on="0"/>
        <pt x="128" y="740" on="0"/>
        <pt x="145" y="740" on="1"/>
        <pt x="160" y="740" on="0"/>
        <pt x="187" y="734" on="0"/>
        <pt x="195" y="732" on="1"/>
      </contour>
      <contour>
        <pt x="363" y="704" on="1"/>
        <pt x="355" y="707" on="0"/>
        <pt x="330" y="712" on="0"/>
        <pt x="320" y="712" on="1"/>
        <pt x="295" y="712" on="0"/>
        <pt x="265" y="672" on="0"/>
        <pt x="265" y="624" on="1"/>
        <pt x="265" y="441" on="1"/>
        <pt x="340" y="441" on="1"/>
        <pt x="340" y="413" on="1"/>
        <pt x="265" y="413" on="1"/>
        <pt x="265" y="0" on="1"/>
        <pt x="235" y="0" on="1"/>
        <pt x="235" y="412" on="1"/>
        <pt x="178" y="412" on="1"/>
        <pt x="178" y="427" on="1"/>
        <pt x="235" y="441" on="1"/>
        <pt x="235" y="625" on="1"/>
        <pt x="235" y="657" on="0"/>
        <pt x="249" y="701" on="0"/>
        <pt x="272" y="728" on="0"/>
        <pt x="302" y="740" on="0"/>
        <pt x="319" y="740" on="1"/>
        <pt x="334" y="740" on="0"/>
        <pt x="361" y="734" on="0"/>
        <pt x="369" y="732" on="1"/>
      </contour>
      <contour>
        <pt x="398" y="0" on="1"/>
        <pt x="398" y="733" on="1"/>
        <pt x="428" y="733" on="1"/>
        <pt x="428" y="0" on="1"/>
      </contour>
    </TTGlyph>
    <TTGlyph name="fi" xMin="4" yMin="0" xMax="264" yMax="740">
      <contour>
        <pt x="264" y="584" on="1"/>
        <pt x="264" y="573" on="0"/>
        <pt x="250" y="558" on="0"/>
        <pt x="239" y="558" on="1"/>
        <pt x="228" y="558" on="0"/>
        <pt x="214" y="573" on="0"/>
        <pt x="214" y="584" on="1"/>
        <pt x="214" y="595" on="0"/>
        <pt x="228" y="610" on="0"/>
        <pt x="239" y="610" on="1"/>
        <pt x="250" y="610" on="0"/>
        <pt x="264" y="595" on="0"/>
      </contour>
      <contour>
        <pt x="189" y="704" on="1"/>
        <pt x="181" y="707" on="0"/>
        <pt x="156" y="712" on="0"/>
        <pt x="146" y="712" on="1"/>
        <pt x="121" y="712" on="0"/>
        <pt x="91" y="672" on="0"/>
        <pt x="91" y="624" on="1"/>
        <pt x="91" y="441" on="1"/>
        <pt x="166" y="441" on="1"/>
        <pt x="166" y="413" on="1"/>
        <pt x="91" y="413" on="1"/>
        <pt x="91" y="0" on="1"/>
        <pt x="61" y="0" on="1"/>
        <pt x="61" y="412" on="1"/>
        <pt x="4" y="412" on="1"/>
        <pt x="4" y="427" on="1"/>
        <pt x="61" y="441" on="1"/>
        <pt x="61" y="625" on="1"/>
        <pt x="61" y="657" on="0"/>
        <pt x="75" y="701" on="0"/>
        <pt x="98" y="728" on="0"/>
        <pt x="128" y="740" on="0"/>
        <pt x="145" y="740" on="1"/>
        <pt x="160" y="740" on="0"/>
        <pt x="187" y="734" on="0"/>
        <pt x="195" y="732" on="1"/>
      </contour>
      <contour>
        <pt x="224" y="0" on="1"/>
        <pt x="224" y="441" on="1"/>
        <pt x="254" y="441" on="1"/>
        <pt x="254" y="0" on="1"/>
      </contour>
    </TTGlyph>
    <TTGlyph name="five" xMin="25" yMin="-8" xMax="264" yMax="723">
      <contour>
        <pt x="264" y="221" on="1"/>
        <pt x="264" y="168" on="0"/>
        <pt x="242" y="84" on="0"/>
        <pt x="202" y="24" on="0"/>
        <pt x="147" y="-8" on="0"/>
        <pt x="114" y="-8" on="1"/>
        <pt x="88" y="-8" on="0"/>
        <pt x="45" y="7" on="0"/>
        <pt x="25" y="21" on="1"/>
        <pt x="39" y="48" on="1"/>
        <pt x="58" y="35" on="0"/>
        <pt x="96" y="20" on="0"/>
        <pt x="116" y="20" on="1"/>
        <pt x="164" y="20" on="0"/>
        <pt x="234" y="119" on="0"/>
        <pt x="234" y="220" on="1"/>
        <pt x="234" y="267" on="0"/>
        <pt x="216" y="333" on="0"/>
        <pt x="184" y="375" on="0"/>
        <pt x="142" y="394" on="0"/>
        <pt x="118" y="394" on="1"/>
        <pt x="94" y="394" on="0"/>
        <pt x="64" y="385" on="0"/>
        <pt x="51" y="380" on="1"/>
        <pt x="47" y="383" on="1"/>
        <pt x="47" y="723" on="1"/>
        <pt x="252" y="723" on="1"/>
        <pt x="252" y="695" on="1"/>
        <pt x="76" y="695" on="1"/>
        <pt x="76" y="416" on="1"/>
        <pt x="85" y="419" on="0"/>
        <pt x="104" y="422" on="0"/>
        <pt x="120" y="422" on="1"/>
        <pt x="150" y="422" on="0"/>
        <pt x="203" y="399" on="0"/>
        <pt x="242" y="350" on="0"/>
        <pt x="264" y="274" on="0"/>
      </contour>
    </TTGlyph>
    <TTGlyph name="five.lin" xMin="25" yMin="-8" xMax="264" yMax="723">
      <contour>
        <pt x="264" y="221" on="1"/>
        <pt x="264" y="168" on="0"/>
        <pt x="242" y="84" on="0"/>
        <pt x="202" y="24" on="0"/>
        <pt x="147" y="-8" on="0"/>
        <pt x="114" y="-8" on="1"/>
        <pt x="88" y="-8" on="0"/>
        <pt x="45" y="7" on="0"/>
        <pt x="25" y="21" on="1"/>
        <pt x="39" y="48" on="1"/>
        <pt x="58" y="35" on="0"/>
        <pt x="96" y="20" on="0"/>
        <pt x="116" y="20" on="1"/>
        <pt x="164" y="20" on="0"/>
        <pt x="234" y="119" on="0"/>
        <pt x="234" y="220" on="1"/>
        <pt x="234" y="267" on="0"/>
        <pt x="216" y="333" on="0"/>
        <pt x="184" y="375" on="0"/>
        <pt x="142" y="394" on="0"/>
        <pt x="118" y="394" on="1"/>
        <pt x="94" y="394" on="0"/>
        <pt x="64" y="385" on="0"/>
        <pt x="51" y="380" on="1"/>
        <pt x="47" y="383" on="1"/>
        <pt x="47" y="723" on="1"/>
        <pt x="252" y="723" on="1"/>
        <pt x="252" y="695" on="1"/>
        <pt x="76" y="695" on="1"/>
        <pt x="76" y="416" on="1"/>
        <pt x="85" y="419" on="0"/>
        <pt x="104" y="422" on="0"/>
        <pt x="120" y="422" on="1"/>
        <pt x="150" y="422" on="0"/>
        <pt x="203" y="399" on="0"/>
        <pt x="242" y="350" on="0"/>
        <pt x="264" y="274" on="0"/>
      </contour>
    </TTGlyph>
    <TTGlyph name="fl" xMin="4" yMin="0" xMax="254" yMax="740">
      <contour>
        <pt x="189" y="704" on="1"/>
        <pt x="181" y="707" on="0"/>
        <pt x="156" y="712" on="0"/>
        <pt x="146" y="712" on="1"/>
        <pt x="121" y="712" on="0"/>
        <pt x="91" y="672" on="0"/>
        <pt x="91" y="624" on="1"/>
        <pt x="91" y="441" on="1"/>
        <pt x="166" y="441" on="1"/>
        <pt x="166" y="413" on="1"/>
        <pt x="91" y="413" on="1"/>
        <pt x="91" y="0" on="1"/>
        <pt x="61" y="0" on="1"/>
        <pt x="61" y="412" on="1"/>
        <pt x="4" y="412" on="1"/>
        <pt x="4" y="427" on="1"/>
        <pt x="61" y="441" on="1"/>
        <pt x="61" y="625" on="1"/>
        <pt x="61" y="657" on="0"/>
        <pt x="75" y="701" on="0"/>
        <pt x="98" y="728" on="0"/>
        <pt x="128" y="740" on="0"/>
        <pt x="145" y="740" on="1"/>
        <pt x="160" y="740" on="0"/>
        <pt x="187" y="734" on="0"/>
        <pt x="195" y="732" on="1"/>
      </contour>
      <contour>
        <pt x="224" y="0" on="1"/>
        <pt x="224" y="733" on="1"/>
        <pt x="254" y="733" on="1"/>
        <pt x="254" y="0" on="1"/>
      </contour>
    </TTGlyph>
    <TTGlyph name="florin" xMin="30" yMin="0" xMax="251" yMax="729">
      <contour>
        <pt x="243" y="696" on="1"/>
        <pt x="236" y="698" on="0"/>
        <pt x="218" y="701" on="0"/>
        <pt x="210" y="701" on="1"/>
        <pt x="175" y="701" on="0"/>
        <pt x="142" y="655" on="0"/>
        <pt x="137" y="613" on="1"/>
        <pt x="119" y="432" on="1"/>
        <pt x="194" y="432" on="1"/>
        <pt x="194" y="404" on="1"/>
        <pt x="117" y="404" on="1"/>
        <pt x="78" y="0" on="1"/>
        <pt x="48" y="0" on="1"/>
        <pt x="87" y="403" on="1"/>
        <pt x="30" y="403" on="1"/>
        <pt x="31" y="418" on="1"/>
        <pt x="89" y="432" on="1"/>
        <pt x="107" y="614" on="1"/>
        <pt x="111" y="652" on="0"/>
        <pt x="133" y="697" on="0"/>
        <pt x="164" y="721" on="0"/>
        <pt x="199" y="729" on="0"/>
        <pt x="216" y="729" on="1"/>
        <pt x="234" y="729" on="0"/>
        <pt x="251" y="724" on="1"/>
      </contour>
    </TTGlyph>
    <TTGlyph name="florin.lin" xMin="30" yMin="0" xMax="251" yMax="729">
      <contour>
        <pt x="243" y="696" on="1"/>
        <pt x="236" y="698" on="0"/>
        <pt x="218" y="701" on="0"/>
        <pt x="210" y="701" on="1"/>
        <pt x="175" y="701" on="0"/>
        <pt x="142" y="655" on="0"/>
        <pt x="137" y="613" on="1"/>
        <pt x="119" y="432" on="1"/>
        <pt x="194" y="432" on="1"/>
        <pt x="194" y="404" on="1"/>
        <pt x="117" y="404" on="1"/>
        <pt x="78" y="0" on="1"/>
        <pt x="48" y="0" on="1"/>
        <pt x="87" y="403" on="1"/>
        <pt x="30" y="403" on="1"/>
        <pt x="31" y="418" on="1"/>
        <pt x="89" y="432" on="1"/>
        <pt x="107" y="614" on="1"/>
        <pt x="111" y="652" on="0"/>
        <pt x="133" y="697" on="0"/>
        <pt x="164" y="721" on="0"/>
        <pt x="199" y="729" on="0"/>
        <pt x="216" y="729" on="1"/>
        <pt x="234" y="729" on="0"/>
        <pt x="251" y="724" on="1"/>
      </contour>
    </TTGlyph>
    <TTGlyph name="four" xMin="11" yMin="0" xMax="306" yMax="730">
      <contour>
        <pt x="240" y="218" on="1"/>
        <pt x="240" y="0" on="1"/>
        <pt x="212" y="0" on="1"/>
        <pt x="212" y="218" on="1"/>
        <pt x="11" y="218" on="1"/>
        <pt x="11" y="230" on="1"/>
        <pt x="219" y="730" on="1"/>
        <pt x="240" y="730" on="1"/>
        <pt x="240" y="245" on="1"/>
        <pt x="306" y="245" on="1"/>
        <pt x="306" y="218" on="1"/>
      </contour>
      <contour>
        <pt x="212" y="648" on="1"/>
        <pt x="45" y="245" on="1"/>
        <pt x="212" y="245" on="1"/>
      </contour>
    </TTGlyph>
    <TTGlyph name="four.lin" xMin="11" yMin="0" xMax="306" yMax="730">
      <contour>
        <pt x="240" y="218" on="1"/>
        <pt x="240" y="0" on="1"/>
        <pt x="212" y="0" on="1"/>
        <pt x="212" y="218" on="1"/>
        <pt x="11" y="218" on="1"/>
        <pt x="11" y="230" on="1"/>
        <pt x="219" y="730" on="1"/>
        <pt x="240" y="730" on="1"/>
        <pt x="240" y="245" on="1"/>
        <pt x="306" y="245" on="1"/>
        <pt x="306" y="218" on="1"/>
      </contour>
      <contour>
        <pt x="212" y="648" on="1"/>
        <pt x="45" y="245" on="1"/>
        <pt x="212" y="245" on="1"/>
      </contour>
    </TTGlyph>
    <TTGlyph name="fraction" xMin="9" yMin="-8" xMax="400" yMax="750">
      <contour>
        <pt x="33" y="-8" on="1"/>
        <pt x="9" y="5" on="1"/>
        <pt x="376" y="750" on="1"/>
        <pt x="400" y="737" on="1"/>
      </contour>
    </TTGlyph>
    <TTGlyph name="fraction.lin" xMin="9" yMin="-8" xMax="400" yMax="750">
      <contour>
        <pt x="33" y="-8" on="1"/>
        <pt x="9" y="5" on="1"/>
        <pt x="376" y="750" on="1"/>
        <pt x="400" y="737" on="1"/>
      </contour>
    </TTGlyph>
    <TTGlyph name="g" xMin="25" yMin="-192" xMax="256" yMax="448">
      <contour>
        <pt x="256" y="-84" on="1"/>
        <pt x="256" y="-192" on="0"/>
        <pt x="160" y="-192" on="1"/>
        <pt x="135" y="-192" on="0"/>
        <pt x="77" y="-175" on="0"/>
        <pt x="60" y="-165" on="1"/>
        <pt x="71" y="-138" on="1"/>
        <pt x="93" y="-150" on="0"/>
        <pt x="142" y="-164" on="0"/>
        <pt x="162" y="-164" on="1"/>
        <pt x="196" y="-164" on="0"/>
        <pt x="226" y="-127" on="0"/>
        <pt x="226" y="-85" on="1"/>
        <pt x="226" y="42" on="1"/>
        <pt x="209" y="22" on="0"/>
        <pt x="170" y="-7" on="0"/>
        <pt x="143" y="-7" on="1"/>
        <pt x="120" y="-7" on="0"/>
        <pt x="78" y="20" on="0"/>
        <pt x="45" y="74" on="0"/>
        <pt x="25" y="158" on="0"/>
        <pt x="25" y="215" on="1"/>
        <pt x="25" y="272" on="0"/>
        <pt x="45" y="359" on="0"/>
        <pt x="80" y="418" on="0"/>
        <pt x="125" y="448" on="0"/>
        <pt x="149" y="448" on="1"/>
        <pt x="172" y="448" on="0"/>
        <pt x="210" y="418" on="0"/>
        <pt x="227" y="397" on="1"/>
        <pt x="227" y="441" on="1"/>
        <pt x="256" y="441" on="1"/>
      </contour>
      <contour>
        <pt x="226" y="364" on="1"/>
        <pt x="210" y="384" on="0"/>
        <pt x="173" y="420" on="0"/>
        <pt x="150" y="420" on="1"/>
        <pt x="111" y="420" on="0"/>
        <pt x="55" y="315" on="0"/>
        <pt x="55" y="216" on="1"/>
        <pt x="55" y="164" on="0"/>
        <pt x="71" y="90" on="0"/>
        <pt x="97" y="43" on="0"/>
        <pt x="130" y="21" on="0"/>
        <pt x="147" y="21" on="1"/>
        <pt x="170" y="21" on="0"/>
        <pt x="212" y="55" on="0"/>
        <pt x="226" y="74" on="1"/>
      </contour>
    </TTGlyph>
    <TTGlyph name="gbreve" xMin="25" yMin="-192" xMax="256" yMax="578">
      <component glyphName="g" x="0" y="0" flags="0x204"/>
      <component glyphName="breve" x="-45" y="0" flags="0x4"/>
    </TTGlyph>
    <TTGlyph name="gcommaaccent" xMin="25" yMin="-192" xMax="256" yMax="628">
      <contour>
        <pt x="256" y="-84" on="1"/>
        <pt x="256" y="-192" on="0"/>
        <pt x="160" y="-192" on="1"/>
        <pt x="135" y="-192" on="0"/>
        <pt x="77" y="-175" on="0"/>
        <pt x="60" y="-165" on="1"/>
        <pt x="71" y="-138" on="1"/>
        <pt x="93" y="-150" on="0"/>
        <pt x="142" y="-164" on="0"/>
        <pt x="162" y="-164" on="1"/>
        <pt x="196" y="-164" on="0"/>
        <pt x="226" y="-127" on="0"/>
        <pt x="226" y="-85" on="1"/>
        <pt x="226" y="42" on="1"/>
        <pt x="209" y="22" on="0"/>
        <pt x="170" y="-7" on="0"/>
        <pt x="143" y="-7" on="1"/>
        <pt x="120" y="-7" on="0"/>
        <pt x="78" y="20" on="0"/>
        <pt x="45" y="74" on="0"/>
        <pt x="25" y="158" on="0"/>
        <pt x="25" y="215" on="1"/>
        <pt x="25" y="272" on="0"/>
        <pt x="45" y="359" on="0"/>
        <pt x="80" y="418" on="0"/>
        <pt x="125" y="448" on="0"/>
        <pt x="149" y="448" on="1"/>
        <pt x="172" y="448" on="0"/>
        <pt x="210" y="418" on="0"/>
        <pt x="227" y="397" on="1"/>
        <pt x="227" y="441" on="1"/>
        <pt x="256" y="441" on="1"/>
      </contour>
      <contour>
        <pt x="226" y="364" on="1"/>
        <pt x="210" y="384" on="0"/>
        <pt x="173" y="420" on="0"/>
        <pt x="150" y="420" on="1"/>
        <pt x="111" y="420" on="0"/>
        <pt x="55" y="315" on="0"/>
        <pt x="55" y="216" on="1"/>
        <pt x="55" y="164" on="0"/>
        <pt x="71" y="90" on="0"/>
        <pt x="97" y="43" on="0"/>
        <pt x="130" y="21" on="0"/>
        <pt x="147" y="21" on="1"/>
        <pt x="170" y="21" on="0"/>
        <pt x="212" y="55" on="0"/>
        <pt x="226" y="74" on="1"/>
      </contour>
      <contour>
        <pt x="124" y="528" on="1"/>
        <pt x="124" y="544" on="0"/>
        <pt x="135" y="575" on="0"/>
        <pt x="151" y="602" on="0"/>
        <pt x="171" y="622" on="0"/>
        <pt x="180" y="628" on="1"/>
        <pt x="189" y="620" on="1"/>
        <pt x="172" y="603" on="0"/>
        <pt x="151" y="567" on="0"/>
        <pt x="149" y="547" on="1"/>
        <pt x="165" y="545" on="0"/>
        <pt x="181" y="528" on="0"/>
        <pt x="181" y="517" on="1"/>
        <pt x="181" y="506" on="0"/>
        <pt x="166" y="489" on="0"/>
        <pt x="155" y="489" on="1"/>
        <pt x="142" y="489" on="0"/>
        <pt x="124" y="511" on="0"/>
      </contour>
    </TTGlyph>
    <TTGlyph name="gdotaccent" xMin="25" yMin="-192" xMax="256" yMax="540">
      <component glyphName="g" x="0" y="0" flags="0x204"/>
      <component glyphName="dotaccent" x="-45" y="0" flags="0x4"/>
    </TTGlyph>
    <TTGlyph name="germandbls" xMin="50" yMin="-94" xMax="269" yMax="740">
      <contour>
        <pt x="176" y="200" on="1"/>
        <pt x="193" y="195" on="0"/>
        <pt x="226" y="173" on="0"/>
        <pt x="253" y="138" on="0"/>
        <pt x="269" y="90" on="0"/>
        <pt x="269" y="59" on="1"/>
        <pt x="269" y="26" on="0"/>
        <pt x="250" y="-30" on="0"/>
        <pt x="216" y="-71" on="0"/>
        <pt x="168" y="-94" on="0"/>
        <pt x="139" y="-94" on="1"/>
        <pt x="130" y="-94" on="0"/>
        <pt x="127" y="-93" on="1"/>
        <pt x="124" y="-93" on="0"/>
        <pt x="123" y="-92" on="1"/>
        <pt x="125" y="-66" on="1"/>
        <pt x="126" y="-67" on="0"/>
        <pt x="128" y="-67" on="1"/>
        <pt x="138" y="-67" on="1"/>
        <pt x="181" y="-67" on="0"/>
        <pt x="239" y="2" on="0"/>
        <pt x="239" y="58" on="1"/>
        <pt x="239" y="88" on="0"/>
        <pt x="221" y="132" on="0"/>
        <pt x="193" y="162" on="0"/>
        <pt x="158" y="177" on="0"/>
        <pt x="141" y="177" on="1"/>
        <pt x="138" y="177" on="1"/>
        <pt x="138" y="179" on="0"/>
        <pt x="137" y="180" on="0"/>
        <pt x="137" y="182" on="1"/>
        <pt x="223" y="413" on="1"/>
        <pt x="80" y="413" on="1"/>
        <pt x="80" y="0" on="1"/>
        <pt x="50" y="0" on="1"/>
        <pt x="50" y="625" on="1"/>
        <pt x="50" y="657" on="0"/>
        <pt x="64" y="701" on="0"/>
        <pt x="87" y="728" on="0"/>
        <pt x="117" y="740" on="0"/>
        <pt x="134" y="740" on="1"/>
        <pt x="149" y="740" on="0"/>
        <pt x="176" y="734" on="0"/>
        <pt x="184" y="732" on="1"/>
        <pt x="178" y="704" on="1"/>
        <pt x="170" y="707" on="0"/>
        <pt x="145" y="712" on="0"/>
        <pt x="135" y="712" on="1"/>
        <pt x="110" y="712" on="0"/>
        <pt x="80" y="672" on="0"/>
        <pt x="80" y="624" on="1"/>
        <pt x="80" y="441" on="1"/>
        <pt x="262" y="441" on="1"/>
        <pt x="263" y="436" on="1"/>
      </contour>
    </TTGlyph>
    <TTGlyph name="grave" xMin="142" yMin="481" xMax="266" yMax="590">
      <contour>
        <pt x="252" y="481" on="1"/>
        <pt x="142" y="565" on="1"/>
        <pt x="161" y="590" on="1"/>
        <pt x="266" y="497" on="1"/>
      </contour>
    </TTGlyph>
    <TTGlyph name="greater" xMin="17" yMin="134" xMax="176" yMax="611">
      <contour>
        <pt x="40" y="134" on="1"/>
        <pt x="17" y="150" on="1"/>
        <pt x="144" y="372" on="1"/>
        <pt x="17" y="595" on="1"/>
        <pt x="40" y="611" on="1"/>
        <pt x="176" y="372" on="1"/>
      </contour>
    </TTGlyph>
    <TTGlyph name="greater.lin" xMin="17" yMin="134" xMax="176" yMax="611">
      <component glyphName="greater" x="0" y="0" flags="0x204"/>
    </TTGlyph>
    <TTGlyph name="guillemotleft" xMin="15" yMin="60" xMax="183" yMax="387">
      <contour>
        <pt x="153" y="60" on="1"/>
        <pt x="89" y="224" on="1"/>
        <pt x="153" y="387" on="1"/>
        <pt x="183" y="387" on="1"/>
        <pt x="118" y="224" on="1"/>
        <pt x="183" y="60" on="1"/>
      </contour>
      <contour>
        <pt x="79" y="60" on="1"/>
        <pt x="15" y="224" on="1"/>
        <pt x="79" y="387" on="1"/>
        <pt x="108" y="387" on="1"/>
        <pt x="44" y="224" on="1"/>
        <pt x="108" y="60" on="1"/>
      </contour>
    </TTGlyph>
    <TTGlyph name="guillemotleft.cap" xMin="15" yMin="207" xMax="183" yMax="534">
      <component glyphName="guillemotleft" x="0" y="147" flags="0x204"/>
    </TTGlyph>
    <TTGlyph name="guillemotright" xMin="20" yMin="60" xMax="188" yMax="387">
      <contour>
        <pt x="124" y="60" on="1"/>
        <pt x="95" y="60" on="1"/>
        <pt x="159" y="224" on="1"/>
        <pt x="95" y="387" on="1"/>
        <pt x="124" y="387" on="1"/>
        <pt x="188" y="224" on="1"/>
      </contour>
      <contour>
        <pt x="50" y="60" on="1"/>
        <pt x="20" y="60" on="1"/>
        <pt x="85" y="224" on="1"/>
        <pt x="20" y="387" on="1"/>
        <pt x="50" y="387" on="1"/>
        <pt x="114" y="224" on="1"/>
      </contour>
    </TTGlyph>
    <TTGlyph name="guillemotright.cap" xMin="20" yMin="207" xMax="188" yMax="534">
      <component glyphName="guillemotright" x="0" y="147" flags="0x204"/>
    </TTGlyph>
    <TTGlyph name="guilsinglleft" xMin="15" yMin="60" xMax="108" yMax="387">
      <contour>
        <pt x="79" y="60" on="1"/>
        <pt x="15" y="224" on="1"/>
        <pt x="79" y="387" on="1"/>
        <pt x="108" y="387" on="1"/>
        <pt x="44" y="224" on="1"/>
        <pt x="108" y="60" on="1"/>
      </contour>
    </TTGlyph>
    <TTGlyph name="guilsinglleft.cap" xMin="15" yMin="207" xMax="108" yMax="534">
      <component glyphName="guilsinglleft" x="0" y="147" flags="0x204"/>
    </TTGlyph>
    <TTGlyph name="guilsinglright" xMin="20" yMin="60" xMax="113" yMax="387">
      <contour>
        <pt x="49" y="60" on="1"/>
        <pt x="20" y="60" on="1"/>
        <pt x="84" y="224" on="1"/>
        <pt x="20" y="387" on="1"/>
        <pt x="49" y="387" on="1"/>
        <pt x="113" y="224" on="1"/>
      </contour>
    </TTGlyph>
    <TTGlyph name="guilsinglright.cap" xMin="20" yMin="207" xMax="113" yMax="534">
      <component glyphName="guilsinglright" x="0" y="147" flags="0x204"/>
    </TTGlyph>
    <TTGlyph name="h" xMin="47" yMin="0" xMax="259" yMax="733">
      <contour>
        <pt x="229" y="0" on="1"/>
        <pt x="229" y="351" on="1"/>
        <pt x="229" y="383" on="0"/>
        <pt x="201" y="422" on="0"/>
        <pt x="173" y="422" on="1"/>
        <pt x="144" y="422" on="0"/>
        <pt x="96" y="379" on="0"/>
        <pt x="77" y="350" on="1"/>
        <pt x="77" y="0" on="1"/>
        <pt x="47" y="0" on="1"/>
        <pt x="47" y="733" on="1"/>
        <pt x="77" y="733" on="1"/>
        <pt x="77" y="382" on="1"/>
        <pt x="97" y="409" on="0"/>
        <pt x="143" y="449" on="0"/>
        <pt x="178" y="449" on="1"/>
        <pt x="217" y="449" on="0"/>
        <pt x="259" y="398" on="0"/>
        <pt x="259" y="353" on="1"/>
        <pt x="259" y="0" on="1"/>
      </contour>
    </TTGlyph>
    <TTGlyph name="hbar" xMin="3" yMin="0" xMax="259" yMax="733">
      <contour>
        <pt x="229" y="0" on="1"/>
        <pt x="229" y="351" on="1"/>
        <pt x="229" y="383" on="0"/>
        <pt x="201" y="422" on="0"/>
        <pt x="173" y="422" on="1"/>
        <pt x="144" y="422" on="0"/>
        <pt x="96" y="379" on="0"/>
        <pt x="77" y="350" on="1"/>
        <pt x="77" y="0" on="1"/>
        <pt x="47" y="0" on="1"/>
        <pt x="47" y="580" on="1"/>
        <pt x="3" y="580" on="1"/>
        <pt x="3" y="608" on="1"/>
        <pt x="47" y="608" on="1"/>
        <pt x="47" y="733" on="1"/>
        <pt x="77" y="733" on="1"/>
        <pt x="77" y="608" on="1"/>
        <pt x="172" y="608" on="1"/>
        <pt x="172" y="580" on="1"/>
        <pt x="77" y="580" on="1"/>
        <pt x="77" y="382" on="1"/>
        <pt x="97" y="409" on="0"/>
        <pt x="143" y="449" on="0"/>
        <pt x="178" y="449" on="1"/>
        <pt x="217" y="449" on="0"/>
        <pt x="259" y="398" on="0"/>
        <pt x="259" y="353" on="1"/>
        <pt x="259" y="0" on="1"/>
      </contour>
    </TTGlyph>
    <TTGlyph name="hcoslug" xMin="50" yMin="-100" xMax="644" yMax="700">
      <contour>
        <pt x="273" y="18" on="1"/>
        <pt x="275" y="40" on="0"/>
        <pt x="254" y="40" on="1"/>
        <pt x="245" y="40" on="0"/>
        <pt x="234" y="29" on="0"/>
        <pt x="234" y="19" on="1"/>
        <pt x="235" y="-1" on="0"/>
        <pt x="255" y="-1" on="1"/>
        <pt x="270" y="-1" on="0"/>
        <pt x="273" y="13" on="1"/>
        <pt x="266" y="13" on="1"/>
        <pt x="264" y="6" on="0"/>
        <pt x="257" y="6" on="1"/>
        <pt x="247" y="6" on="0"/>
        <pt x="247" y="18" on="1"/>
      </contour>
      <contour>
        <pt x="254" y="35" on="1"/>
        <pt x="261" y="35" on="0"/>
        <pt x="261" y="23" on="1"/>
        <pt x="247" y="23" on="1"/>
        <pt x="247" y="35" on="0"/>
      </contour>
      <contour>
        <pt x="195" y="78" on="1"/>
        <pt x="187" y="78" on="0"/>
        <pt x="187" y="94" on="1"/>
        <pt x="187" y="109" on="0"/>
        <pt x="195" y="109" on="1"/>
        <pt x="203" y="109" on="0"/>
        <pt x="203" y="94" on="1"/>
        <pt x="203" y="78" on="0"/>
      </contour>
      <contour>
        <pt x="210" y="4" on="1"/>
        <pt x="202" y="4" on="0"/>
        <pt x="202" y="20" on="1"/>
        <pt x="202" y="35" on="0"/>
        <pt x="210" y="35" on="1"/>
        <pt x="218" y="35" on="0"/>
        <pt x="218" y="20" on="1"/>
        <pt x="218" y="4" on="0"/>
      </contour>
      <contour>
        <pt x="210" y="-1" on="1"/>
        <pt x="219" y="-1" on="0"/>
        <pt x="231" y="11" on="0"/>
        <pt x="231" y="20" on="1"/>
        <pt x="231" y="29" on="0"/>
        <pt x="219" y="40" on="0"/>
        <pt x="210" y="40" on="1"/>
        <pt x="201" y="40" on="0"/>
        <pt x="189" y="29" on="0"/>
        <pt x="189" y="20" on="1"/>
        <pt x="189" y="10" on="0"/>
        <pt x="201" y="-1" on="0"/>
      </contour>
      <contour>
        <pt x="546" y="4" on="1"/>
        <pt x="538" y="4" on="0"/>
        <pt x="538" y="20" on="1"/>
        <pt x="538" y="35" on="0"/>
        <pt x="546" y="35" on="1"/>
        <pt x="554" y="35" on="0"/>
        <pt x="554" y="20" on="1"/>
        <pt x="554" y="4" on="0"/>
      </contour>
      <contour>
        <pt x="546" y="-1" on="1"/>
        <pt x="555" y="-1" on="0"/>
        <pt x="567" y="11" on="0"/>
        <pt x="567" y="20" on="1"/>
        <pt x="567" y="29" on="0"/>
        <pt x="555" y="40" on="0"/>
        <pt x="546" y="40" on="1"/>
        <pt x="537" y="40" on="0"/>
        <pt x="525" y="29" on="0"/>
        <pt x="525" y="20" on="1"/>
        <pt x="525" y="10" on="0"/>
        <pt x="537" y="-1" on="0"/>
      </contour>
      <contour>
        <pt x="125" y="74" on="1"/>
        <pt x="155" y="74" on="1"/>
        <pt x="155" y="81" on="1"/>
        <pt x="145" y="81" on="1"/>
        <pt x="145" y="97" on="1"/>
        <pt x="149" y="97" on="1"/>
        <pt x="154" y="97" on="0"/>
        <pt x="155" y="89" on="1"/>
        <pt x="162" y="89" on="1"/>
        <pt x="162" y="112" on="1"/>
        <pt x="155" y="112" on="1"/>
        <pt x="154" y="104" on="0"/>
        <pt x="149" y="104" on="1"/>
        <pt x="145" y="104" on="1"/>
        <pt x="145" y="122" on="1"/>
        <pt x="157" y="122" on="1"/>
        <pt x="162" y="122" on="0"/>
        <pt x="166" y="117" on="0"/>
        <pt x="168" y="109" on="1"/>
        <pt x="176" y="109" on="1"/>
        <pt x="176" y="129" on="1"/>
        <pt x="125" y="129" on="1"/>
        <pt x="125" y="122" on="1"/>
        <pt x="132" y="122" on="1"/>
        <pt x="132" y="81" on="1"/>
        <pt x="125" y="81" on="1"/>
      </contour>
      <contour>
        <pt x="195" y="73" on="1"/>
        <pt x="204" y="73" on="0"/>
        <pt x="216" y="85" on="0"/>
        <pt x="216" y="94" on="1"/>
        <pt x="216" y="103" on="0"/>
        <pt x="204" y="114" on="0"/>
        <pt x="195" y="114" on="1"/>
        <pt x="186" y="114" on="0"/>
        <pt x="174" y="103" on="0"/>
        <pt x="174" y="94" on="1"/>
        <pt x="174" y="84" on="0"/>
        <pt x="186" y="73" on="0"/>
      </contour>
      <contour>
        <pt x="644" y="-100" on="1"/>
        <pt x="50" y="-100" on="1"/>
        <pt x="50" y="700" on="1"/>
        <pt x="644" y="700" on="1"/>
      </contour>
      <contour>
        <pt x="498" y="-1" on="1"/>
        <pt x="520" y="-1" on="0"/>
        <pt x="522" y="22" on="1"/>
        <pt x="514" y="22" on="1"/>
        <pt x="512" y="6" on="0"/>
        <pt x="500" y="6" on="1"/>
        <pt x="484" y="6" on="0"/>
        <pt x="484" y="28" on="1"/>
        <pt x="484" y="50" on="0"/>
        <pt x="498" y="50" on="1"/>
        <pt x="508" y="50" on="0"/>
        <pt x="513" y="34" on="1"/>
        <pt x="521" y="34" on="1"/>
        <pt x="521" y="56" on="1"/>
        <pt x="513" y="56" on="1"/>
        <pt x="512" y="50" on="1"/>
        <pt x="505" y="57" on="0"/>
        <pt x="496" y="57" on="1"/>
        <pt x="485" y="57" on="0"/>
        <pt x="469" y="41" on="0"/>
        <pt x="469" y="27" on="1"/>
        <pt x="469" y="-1" on="0"/>
      </contour>
      <contour>
        <pt x="372" y="80" on="1"/>
        <pt x="364" y="80" on="0"/>
        <pt x="364" y="93" on="1"/>
        <pt x="364" y="106" on="0"/>
        <pt x="372" y="106" on="1"/>
        <pt x="379" y="106" on="0"/>
        <pt x="379" y="93" on="1"/>
        <pt x="379" y="80" on="0"/>
      </contour>
      <contour>
        <pt x="276" y="0" on="1"/>
        <pt x="299" y="0" on="1"/>
        <pt x="299" y="7" on="1"/>
        <pt x="294" y="7" on="1"/>
        <pt x="294" y="32" on="1"/>
        <pt x="308" y="32" on="1"/>
        <pt x="308" y="7" on="1"/>
        <pt x="303" y="7" on="1"/>
        <pt x="303" y="0" on="1"/>
        <pt x="326" y="0" on="1"/>
        <pt x="326" y="7" on="1"/>
        <pt x="320" y="7" on="1"/>
        <pt x="320" y="59" on="1"/>
        <pt x="310" y="57" on="1"/>
        <pt x="306" y="59" on="0"/>
        <pt x="301" y="59" on="1"/>
        <pt x="293" y="59" on="0"/>
        <pt x="282" y="50" on="0"/>
        <pt x="282" y="40" on="1"/>
        <pt x="282" y="39" on="1"/>
        <pt x="275" y="39" on="1"/>
        <pt x="275" y="32" on="1"/>
        <pt x="282" y="32" on="1"/>
        <pt x="282" y="7" on="1"/>
        <pt x="276" y="7" on="1"/>
      </contour>
      <contour>
        <pt x="368" y="0" on="1"/>
        <pt x="394" y="0" on="1"/>
        <pt x="394" y="7" on="1"/>
        <pt x="386" y="7" on="1"/>
        <pt x="386" y="23" on="1"/>
        <pt x="390" y="32" on="0"/>
        <pt x="393" y="32" on="1"/>
        <pt x="393" y="31" on="1"/>
        <pt x="393" y="25" on="0"/>
        <pt x="399" y="25" on="1"/>
        <pt x="406" y="25" on="0"/>
        <pt x="406" y="32" on="1"/>
        <pt x="406" y="40" on="0"/>
        <pt x="398" y="40" on="1"/>
        <pt x="390" y="40" on="0"/>
        <pt x="386" y="29" on="1"/>
        <pt x="386" y="39" on="1"/>
        <pt x="368" y="39" on="1"/>
        <pt x="368" y="32" on="1"/>
        <pt x="374" y="32" on="1"/>
        <pt x="374" y="7" on="1"/>
        <pt x="368" y="7" on="1"/>
      </contour>
      <contour>
        <pt x="352" y="73" on="1"/>
        <pt x="358" y="73" on="1"/>
        <pt x="362" y="81" on="1"/>
        <pt x="367" y="73" on="0"/>
        <pt x="376" y="73" on="1"/>
        <pt x="385" y="73" on="0"/>
        <pt x="392" y="87" on="0"/>
        <pt x="392" y="94" on="1"/>
        <pt x="392" y="114" on="0"/>
        <pt x="377" y="114" on="1"/>
        <pt x="367" y="114" on="0"/>
        <pt x="364" y="105" on="1"/>
        <pt x="364" y="132" on="1"/>
        <pt x="346" y="132" on="1"/>
        <pt x="346" y="125" on="1"/>
        <pt x="352" y="125" on="1"/>
      </contour>
      <contour>
        <pt x="400" y="75" on="1"/>
        <pt x="393" y="75" on="0"/>
        <pt x="393" y="68" on="1"/>
        <pt x="393" y="59" on="0"/>
        <pt x="404" y="59" on="1"/>
        <pt x="416" y="59" on="0"/>
        <pt x="422" y="75" on="1"/>
        <pt x="435" y="106" on="1"/>
        <pt x="440" y="106" on="1"/>
        <pt x="440" y="113" on="1"/>
        <pt x="423" y="113" on="1"/>
        <pt x="423" y="106" on="1"/>
        <pt x="428" y="106" on="1"/>
        <pt x="420" y="86" on="1"/>
        <pt x="411" y="106" on="1"/>
        <pt x="417" y="106" on="1"/>
        <pt x="417" y="113" on="1"/>
        <pt x="392" y="113" on="1"/>
        <pt x="392" y="106" on="1"/>
        <pt x="397" y="106" on="1"/>
        <pt x="399" y="101" on="0"/>
        <pt x="403" y="93" on="1"/>
        <pt x="406" y="87" on="0"/>
        <pt x="411" y="77" on="0"/>
        <pt x="413" y="73" on="1"/>
        <pt x="411" y="65" on="0"/>
        <pt x="405" y="65" on="1"/>
        <pt x="407" y="67" on="0"/>
        <pt x="405" y="75" on="0"/>
      </contour>
      <contour>
        <pt x="247" y="428" on="1"/>
        <pt x="247" y="441" on="0"/>
        <pt x="262" y="457" on="0"/>
        <pt x="274" y="457" on="1"/>
        <pt x="287" y="457" on="0"/>
        <pt x="303" y="436" on="0"/>
        <pt x="303" y="419" on="1"/>
        <pt x="303" y="406" on="0"/>
        <pt x="293" y="382" on="0"/>
        <pt x="285" y="369" on="1"/>
        <pt x="268" y="386" on="0"/>
        <pt x="247" y="411" on="0"/>
      </contour>
      <contour>
        <pt x="302" y="74" on="1"/>
        <pt x="309" y="74" on="1"/>
        <pt x="310" y="78" on="1"/>
        <pt x="312" y="76" on="0"/>
        <pt x="318" y="73" on="0"/>
        <pt x="323" y="73" on="1"/>
        <pt x="337" y="73" on="0"/>
        <pt x="337" y="86" on="1"/>
        <pt x="337" y="92" on="0"/>
        <pt x="329" y="97" on="0"/>
        <pt x="320" y="99" on="0"/>
        <pt x="313" y="101" on="0"/>
        <pt x="313" y="104" on="1"/>
        <pt x="313" y="108" on="0"/>
        <pt x="318" y="108" on="1"/>
        <pt x="323" y="108" on="0"/>
        <pt x="328" y="101" on="1"/>
        <pt x="335" y="101" on="1"/>
        <pt x="335" y="114" on="1"/>
        <pt x="329" y="114" on="1"/>
        <pt x="327" y="109" on="1"/>
        <pt x="324" y="114" on="0"/>
        <pt x="316" y="114" on="1"/>
        <pt x="309" y="114" on="0"/>
        <pt x="302" y="107" on="0"/>
        <pt x="302" y="102" on="1"/>
        <pt x="302" y="96" on="0"/>
        <pt x="309" y="91" on="0"/>
        <pt x="318" y="88" on="0"/>
        <pt x="326" y="86" on="0"/>
        <pt x="326" y="83" on="1"/>
        <pt x="326" y="79" on="0"/>
        <pt x="321" y="79" on="1"/>
        <pt x="315" y="79" on="0"/>
        <pt x="309" y="88" on="1"/>
        <pt x="302" y="88" on="1"/>
      </contour>
      <contour>
        <pt x="261" y="219" on="1"/>
        <pt x="238" y="219" on="0"/>
        <pt x="209" y="250" on="0"/>
        <pt x="209" y="273" on="1"/>
        <pt x="209" y="297" on="0"/>
        <pt x="225" y="313" on="1"/>
        <pt x="239" y="300" on="0"/>
        <pt x="278" y="257" on="0"/>
        <pt x="299" y="231" on="1"/>
        <pt x="284" y="219" on="0"/>
      </contour>
      <contour>
        <pt x="274" y="122" on="1"/>
        <pt x="274" y="113" on="1"/>
        <pt x="267" y="113" on="1"/>
        <pt x="267" y="106" on="1"/>
        <pt x="274" y="106" on="1"/>
        <pt x="274" y="86" on="1"/>
        <pt x="274" y="73" on="0"/>
        <pt x="286" y="73" on="1"/>
        <pt x="297" y="73" on="0"/>
        <pt x="300" y="86" on="1"/>
        <pt x="295" y="88" on="1"/>
        <pt x="294" y="81" on="0"/>
        <pt x="290" y="81" on="1"/>
        <pt x="286" y="81" on="0"/>
        <pt x="286" y="86" on="1"/>
        <pt x="286" y="106" on="1"/>
        <pt x="299" y="106" on="1"/>
        <pt x="299" y="113" on="1"/>
        <pt x="286" y="113" on="1"/>
        <pt x="286" y="124" on="1"/>
      </contour>
      <contour>
        <pt x="428" y="306" on="1"/>
        <pt x="435" y="295" on="0"/>
        <pt x="457" y="281" on="0"/>
        <pt x="471" y="281" on="1"/>
        <pt x="492" y="281" on="0"/>
        <pt x="521" y="312" on="0"/>
        <pt x="521" y="335" on="1"/>
        <pt x="521" y="358" on="0"/>
        <pt x="492" y="387" on="0"/>
        <pt x="471" y="387" on="1"/>
        <pt x="436" y="387" on="0"/>
        <pt x="411" y="349" on="1"/>
        <pt x="409" y="369" on="0"/>
        <pt x="382" y="387" on="0"/>
        <pt x="362" y="386" on="1"/>
        <pt x="371" y="401" on="0"/>
        <pt x="371" y="420" on="1"/>
        <pt x="371" y="433" on="0"/>
        <pt x="359" y="460" on="0"/>
        <pt x="335" y="481" on="0"/>
        <pt x="299" y="494" on="0"/>
        <pt x="276" y="494" on="1"/>
        <pt x="251" y="494" on="0"/>
        <pt x="211" y="480" on="0"/>
        <pt x="182" y="456" on="0"/>
        <pt x="167" y="425" on="0"/>
        <pt x="167" y="409" on="1"/>
        <pt x="167" y="387" on="0"/>
        <pt x="182" y="357" on="0"/>
        <pt x="198" y="340" on="1"/>
        <pt x="116" y="312" on="0"/>
        <pt x="116" y="249" on="1"/>
        <pt x="116" y="229" on="0"/>
        <pt x="133" y="195" on="0"/>
        <pt x="163" y="170" on="0"/>
        <pt x="202" y="156" on="0"/>
        <pt x="225" y="156" on="1"/>
        <pt x="288" y="156" on="0"/>
        <pt x="329" y="201" on="1"/>
        <pt x="354" y="175" on="0"/>
        <pt x="391" y="156" on="0"/>
        <pt x="414" y="156" on="1"/>
        <pt x="446" y="156" on="0"/>
        <pt x="492" y="206" on="0"/>
        <pt x="494" y="250" on="1"/>
        <pt x="487" y="252" on="1"/>
        <pt x="479" y="239" on="0"/>
        <pt x="460" y="223" on="0"/>
        <pt x="444" y="223" on="1"/>
        <pt x="429" y="223" on="0"/>
        <pt x="401" y="242" on="0"/>
        <pt x="382" y="264" on="1"/>
        <pt x="393" y="279" on="0"/>
        <pt x="417" y="299" on="0"/>
      </contour>
      <contour>
        <pt x="219" y="74" on="1"/>
        <pt x="241" y="74" on="1"/>
        <pt x="241" y="81" on="1"/>
        <pt x="237" y="81" on="1"/>
        <pt x="237" y="96" on="1"/>
        <pt x="237" y="106" on="0"/>
        <pt x="244" y="106" on="1"/>
        <pt x="250" y="106" on="0"/>
        <pt x="250" y="99" on="1"/>
        <pt x="250" y="81" on="1"/>
        <pt x="246" y="81" on="1"/>
        <pt x="246" y="74" on="1"/>
        <pt x="268" y="74" on="1"/>
        <pt x="268" y="81" on="1"/>
        <pt x="262" y="81" on="1"/>
        <pt x="262" y="100" on="1"/>
        <pt x="262" y="114" on="0"/>
        <pt x="250" y="114" on="1"/>
        <pt x="241" y="114" on="0"/>
        <pt x="236" y="103" on="1"/>
        <pt x="236" y="113" on="1"/>
        <pt x="219" y="113" on="1"/>
        <pt x="219" y="106" on="1"/>
        <pt x="225" y="106" on="1"/>
        <pt x="225" y="81" on="1"/>
        <pt x="219" y="81" on="1"/>
      </contour>
      <contour>
        <pt x="446" y="33" on="1"/>
        <pt x="446" y="26" on="1"/>
        <pt x="452" y="26" on="1"/>
        <pt x="450" y="21" on="0"/>
        <pt x="446" y="17" on="1"/>
        <pt x="443" y="20" on="0"/>
        <pt x="438" y="26" on="0"/>
        <pt x="434" y="30" on="1"/>
        <pt x="445" y="35" on="0"/>
        <pt x="445" y="42" on="1"/>
        <pt x="445" y="47" on="0"/>
        <pt x="438" y="54" on="0"/>
        <pt x="431" y="54" on="1"/>
        <pt x="423" y="54" on="0"/>
        <pt x="414" y="46" on="0"/>
        <pt x="414" y="40" on="1"/>
        <pt x="414" y="34" on="0"/>
        <pt x="420" y="28" on="1"/>
        <pt x="407" y="24" on="0"/>
        <pt x="407" y="13" on="1"/>
        <pt x="407" y="-1" on="0"/>
        <pt x="425" y="-1" on="1"/>
        <pt x="434" y="-1" on="0"/>
        <pt x="440" y="5" on="1"/>
        <pt x="445" y="-1" on="0"/>
        <pt x="452" y="-1" on="1"/>
        <pt x="462" y="-1" on="0"/>
        <pt x="465" y="11" on="1"/>
        <pt x="460" y="12" on="1"/>
        <pt x="459" y="7" on="0"/>
        <pt x="456" y="7" on="1"/>
        <pt x="453" y="7" on="0"/>
        <pt x="450" y="12" on="1"/>
        <pt x="453" y="15" on="0"/>
        <pt x="457" y="21" on="0"/>
        <pt x="459" y="26" on="1"/>
        <pt x="464" y="26" on="1"/>
        <pt x="464" y="33" on="1"/>
      </contour>
      <contour>
        <pt x="429" y="6" on="1"/>
        <pt x="419" y="6" on="0"/>
        <pt x="419" y="16" on="1"/>
        <pt x="419" y="21" on="0"/>
        <pt x="423" y="25" on="1"/>
        <pt x="427" y="21" on="0"/>
        <pt x="433" y="14" on="0"/>
        <pt x="437" y="9" on="1"/>
        <pt x="433" y="6" on="0"/>
      </contour>
      <contour>
        <pt x="294" y="42" on="1"/>
        <pt x="294" y="49" on="0"/>
        <pt x="297" y="54" on="0"/>
        <pt x="300" y="54" on="1"/>
        <pt x="302" y="54" on="0"/>
        <pt x="303" y="53" on="1"/>
        <pt x="302" y="51" on="0"/>
        <pt x="302" y="49" on="1"/>
        <pt x="302" y="44" on="0"/>
        <pt x="308" y="44" on="1"/>
        <pt x="308" y="39" on="1"/>
        <pt x="294" y="39" on="1"/>
      </contour>
      <contour>
        <pt x="425" y="43" on="1"/>
        <pt x="425" y="48" on="0"/>
        <pt x="430" y="48" on="1"/>
        <pt x="436" y="48" on="0"/>
        <pt x="436" y="42" on="1"/>
        <pt x="436" y="36" on="0"/>
        <pt x="431" y="33" on="1"/>
        <pt x="425" y="39" on="0"/>
      </contour>
      <contour>
        <pt x="312" y="342" on="1"/>
        <pt x="342" y="362" on="0"/>
        <pt x="354" y="376" on="1"/>
        <pt x="371" y="359" on="0"/>
        <pt x="367" y="321" on="0"/>
        <pt x="353" y="296" on="1"/>
        <pt x="343" y="307" on="0"/>
        <pt x="324" y="330" on="0"/>
      </contour>
      <contour>
        <pt x="366" y="18" on="1"/>
        <pt x="368" y="40" on="0"/>
        <pt x="347" y="40" on="1"/>
        <pt x="339" y="40" on="0"/>
        <pt x="327" y="28" on="0"/>
        <pt x="327" y="19" on="1"/>
        <pt x="327" y="-1" on="0"/>
        <pt x="348" y="-1" on="1"/>
        <pt x="362" y="-1" on="0"/>
        <pt x="366" y="13" on="1"/>
        <pt x="359" y="13" on="1"/>
        <pt x="358" y="6" on="0"/>
        <pt x="350" y="6" on="1"/>
        <pt x="340" y="6" on="0"/>
        <pt x="340" y="18" on="1"/>
      </contour>
      <contour>
        <pt x="347" y="35" on="1"/>
        <pt x="354" y="35" on="0"/>
        <pt x="354" y="23" on="1"/>
        <pt x="340" y="23" on="1"/>
        <pt x="340" y="35" on="0"/>
      </contour>
      <contour>
        <pt x="124" y="0" on="1"/>
        <pt x="153" y="0" on="1"/>
        <pt x="153" y="7" on="1"/>
        <pt x="145" y="7" on="1"/>
        <pt x="145" y="25" on="1"/>
        <pt x="167" y="25" on="1"/>
        <pt x="167" y="7" on="1"/>
        <pt x="159" y="7" on="1"/>
        <pt x="159" y="0" on="1"/>
        <pt x="188" y="0" on="1"/>
        <pt x="188" y="7" on="1"/>
        <pt x="180" y="7" on="1"/>
        <pt x="180" y="48" on="1"/>
        <pt x="188" y="48" on="1"/>
        <pt x="188" y="55" on="1"/>
        <pt x="159" y="55" on="1"/>
        <pt x="159" y="48" on="1"/>
        <pt x="167" y="48" on="1"/>
        <pt x="167" y="32" on="1"/>
        <pt x="145" y="32" on="1"/>
        <pt x="145" y="48" on="1"/>
        <pt x="153" y="48" on="1"/>
        <pt x="153" y="55" on="1"/>
        <pt x="124" y="55" on="1"/>
        <pt x="124" y="48" on="1"/>
        <pt x="132" y="48" on="1"/>
        <pt x="132" y="7" on="1"/>
        <pt x="124" y="7" on="1"/>
      </contour>
      <contour>
        <pt x="576" y="13" on="1"/>
        <pt x="569" y="13" on="0"/>
        <pt x="569" y="6" on="1"/>
        <pt x="569" y="-1" on="0"/>
        <pt x="576" y="-1" on="1"/>
        <pt x="583" y="-1" on="0"/>
        <pt x="583" y="6" on="1"/>
        <pt x="583" y="13" on="0"/>
      </contour>
    </TTGlyph>
    <TTGlyph name="hungarumlaut" xMin="113" yMin="481" xMax="305" yMax="633">
      <contour>
        <pt x="131" y="490" on="1"/>
        <pt x="113" y="500" on="1"/>
        <pt x="185" y="633" on="1"/>
        <pt x="212" y="616" on="1"/>
      </contour>
      <contour>
        <pt x="223" y="481" on="1"/>
        <pt x="205" y="491" on="1"/>
        <pt x="277" y="624" on="1"/>
        <pt x="305" y="606" on="1"/>
      </contour>
    </TTGlyph>
    <TTGlyph name="hyphen" xMin="36" yMin="251" xMax="168" yMax="285">
      <contour>
        <pt x="36" y="251" on="1"/>
        <pt x="36" y="285" on="1"/>
        <pt x="168" y="285" on="1"/>
        <pt x="168" y="251" on="1"/>
      </contour>
    </TTGlyph>
    <TTGlyph name="hyphen.cap" xMin="36" yMin="354" xMax="168" yMax="388">
      <component glyphName="hyphen" x="0" y="103" flags="0x204"/>
    </TTGlyph>
    <TTGlyph name="i" xMin="40" yMin="0" xMax="90" yMax="610">
      <contour>
        <pt x="90" y="584" on="1"/>
        <pt x="90" y="573" on="0"/>
        <pt x="76" y="558" on="0"/>
        <pt x="65" y="558" on="1"/>
        <pt x="54" y="558" on="0"/>
        <pt x="40" y="573" on="0"/>
        <pt x="40" y="584" on="1"/>
        <pt x="40" y="595" on="0"/>
        <pt x="54" y="610" on="0"/>
        <pt x="65" y="610" on="1"/>
        <pt x="76" y="610" on="0"/>
        <pt x="90" y="595" on="0"/>
      </contour>
      <contour>
        <pt x="50" y="0" on="1"/>
        <pt x="50" y="441" on="1"/>
        <pt x="80" y="441" on="1"/>
        <pt x="80" y="0" on="1"/>
      </contour>
    </TTGlyph>
    <TTGlyph name="i.dot" xMin="40" yMin="0" xMax="90" yMax="610">
      <contour>
        <pt x="90" y="584" on="1"/>
        <pt x="90" y="573" on="0"/>
        <pt x="76" y="558" on="0"/>
        <pt x="65" y="558" on="1"/>
        <pt x="54" y="558" on="0"/>
        <pt x="40" y="573" on="0"/>
        <pt x="40" y="584" on="1"/>
        <pt x="40" y="595" on="0"/>
        <pt x="54" y="610" on="0"/>
        <pt x="65" y="610" on="1"/>
        <pt x="76" y="610" on="0"/>
        <pt x="90" y="595" on="0"/>
      </contour>
      <contour>
        <pt x="50" y="0" on="1"/>
        <pt x="50" y="441" on="1"/>
        <pt x="80" y="441" on="1"/>
        <pt x="80" y="0" on="1"/>
      </contour>
    </TTGlyph>
    <TTGlyph name="iacute" xMin="40" yMin="0" xMax="164" yMax="590">
      <component glyphName="dotlessi" x="0" y="0" flags="0x204"/>
      <component glyphName="acute" x="-91" y="0" flags="0x4"/>
    </TTGlyph>
    <TTGlyph name="ibreve" xMin="-17" yMin="0" xMax="149" yMax="578">
      <component glyphName="dotlessi" x="0" y="0" flags="0x204"/>
      <component glyphName="breve" x="-134" y="0" flags="0x4"/>
    </TTGlyph>
    <TTGlyph name="icircumflex" xMin="-21" yMin="0" xMax="151" yMax="574">
      <component glyphName="dotlessi" x="0" y="0" flags="0x204"/>
      <component glyphName="circumflex" x="-136" y="0" flags="0x4"/>
    </TTGlyph>
    <TTGlyph name="idieresis" xMin="-9" yMin="0" xMax="141" yMax="540">
      <component glyphName="dotlessi" x="0" y="0" flags="0x204"/>
      <component glyphName="dieresis" x="-134" y="0" flags="0x4"/>
    </TTGlyph>
    <TTGlyph name="igrave" xMin="-32" yMin="0" xMax="92" yMax="590">
      <component glyphName="dotlessi" x="0" y="0" flags="0x204"/>
      <component glyphName="grave" x="-174" y="0" flags="0x4"/>
    </TTGlyph>
    <TTGlyph name="imacron" xMin="-25" yMin="0" xMax="157" yMax="525">
      <component glyphName="dotlessi" x="0" y="0" flags="0x204"/>
      <component glyphName="macron" x="-134" y="0" flags="0x4"/>
    </TTGlyph>
</ttFont>
